Graphik-RegularItalic.ufo
<glyph name="exclam" format="2">
  <advance width="286"/>
  <unicode hex="0021"/>
  <outline>
    <contour>
      <point x="101" y="202" type="line"/>
      <point x="169" y="715" type="line"/>
      <point x="261" y="715" type="line"/>
      <point x="165" y="202" type="line"/>
    </contour>
    <contour>
      <point x="113" y="-5" type="curve" smooth="yes"/>
      <point x="78" y="-5"/>
      <point x="49" y="23"/>
      <point x="49" y="59" type="curve" smooth="yes"/>
      <point x="49" y="95"/>
      <point x="77" y="123"/>
      <point x="112" y="123" type="curve" smooth="yes"/>
      <point x="147" y="123"/>
      <point x="177" y="95"/>
      <point x="177" y="59" type="curve" smooth="yes"/>
      <point x="177" y="23"/>
      <point x="148" y="-5"/>
    </contour>
  </outline>
</glyph>
<glyph name="quotedbl" format="2">
  <advance width="375"/>
  <unicode hex="0022"/>
  <outline>
    <contour>
      <point x="109" y="470" type="line"/>
      <point x="131" y="715" type="line"/>
      <point x="221" y="715" type="line"/>
      <point x="169" y="470" type="line"/>
    </contour>
    <contour>
      <point x="272" y="470" type="line"/>
      <point x="294" y="715" type="line"/>
      <point x="384" y="715" type="line"/>
      <point x="332" y="470" type="line"/>
    </contour>
  </outline>
</glyph>
<glyph name="numbersign" format="2">
  <advance width="503"/>
  <unicode hex="0023"/>
  <outline>
    <contour>
      <point x="246" y="99" type="line"/>
      <point x="289" y="282" type="line"/>
      <point x="192" y="282" type="line"/>
      <point x="149" y="99" type="line"/>
      <point x="81" y="99" type="line"/>
      <point x="124" y="282" type="line"/>
      <point x="37" y="282" type="line"/>
      <point x="48" y="352" type="line"/>
      <point x="140" y="352" type="line"/>
      <point x="171" y="484" type="line"/>
      <point x="83" y="484" type="line"/>
      <point x="94" y="554" type="line"/>
      <point x="188" y="554" type="line"/>
      <point x="226" y="715" type="line"/>
      <point x="294" y="715" type="line"/>
      <point x="256" y="554" type="line"/>
      <point x="353" y="554" type="line"/>
      <point x="391" y="715" type="line"/>
      <point x="459" y="715" type="line"/>
      <point x="421" y="554" type="line"/>
      <point x="509" y="554" type="line"/>
      <point x="498" y="484" type="line"/>
      <point x="404" y="484" type="line"/>
      <point x="373" y="352" type="line"/>
      <point x="463" y="352" type="line"/>
      <point x="452" y="282" type="line"/>
      <point x="357" y="282" type="line"/>
      <point x="314" y="99" type="line"/>
    </contour>
    <contour>
      <point x="239" y="484" type="line"/>
      <point x="208" y="352" type="line"/>
      <point x="305" y="352" type="line"/>
      <point x="336" y="484" type="line"/>
    </contour>
  </outline>
</glyph>
<glyph name="dollar" format="2">
  <advance width="617"/>
  <unicode hex="0024"/>
  <outline>
    <contour>
      <point x="300" y="-9" type="curve" smooth="yes"/>
      <point x="295" y="-9" type="line"/>
      <point x="275" y="-135" type="line"/>
      <point x="216" y="-135" type="line"/>
      <point x="236" y="-4" type="line"/>
      <point x="98" y="18"/>
      <point x="33" y="114"/>
      <point x="32" y="218" type="curve"/>
      <point x="116" y="218" type="line"/>
      <point x="119" y="150"/>
      <point x="155" y="84"/>
      <point x="247" y="65" type="curve"/>
      <point x="291" y="339" type="line"/>
      <point x="172" y="377"/>
      <point x="110" y="423"/>
      <point x="110" y="526" type="curve" smooth="yes"/>
      <point x="110" y="633"/>
      <point x="208" y="723"/>
      <point x="352" y="724" type="curve"/>
      <point x="366" y="813" type="line"/>
      <point x="425" y="813" type="line"/>
      <point x="410" y="719" type="line"/>
      <point x="515" y="702"/>
      <point x="584" y="635"/>
      <point x="587" y="527" type="curve"/>
      <point x="509" y="527" type="line"/>
      <point x="502" y="601"/>
      <point x="459" y="637"/>
      <point x="399" y="650" type="curve"/>
      <point x="359" y="399" type="line"/>
      <point x="491" y="358"/>
      <point x="553" y="311"/>
      <point x="553" y="209" type="curve" smooth="yes"/>
      <point x="553" y="83"/>
      <point x="457" y="-9"/>
    </contour>
    <contour>
      <point x="469" y="201" type="curve" smooth="yes"/>
      <point x="469" y="260"/>
      <point x="443" y="291"/>
      <point x="347" y="322" type="curve"/>
      <point x="306" y="60" type="line"/>
      <point x="411" y="61"/>
      <point x="469" y="116"/>
    </contour>
    <contour>
      <point x="192" y="529" type="curve" smooth="yes"/>
      <point x="192" y="479"/>
      <point x="214" y="449"/>
      <point x="303" y="417" type="curve"/>
      <point x="341" y="655" type="line"/>
      <point x="240" y="654"/>
      <point x="192" y="598"/>
    </contour>
  </outline>
</glyph>
<glyph name="percent" format="2">
  <advance width="784"/>
  <unicode hex="0025"/>
  <outline>
    <contour>
      <point x="149" y="535" type="curve" smooth="yes"/>
      <point x="149" y="491"/>
      <point x="167" y="447"/>
      <point x="229" y="447" type="curve" smooth="yes"/>
      <point x="288" y="447"/>
      <point x="324" y="497"/>
      <point x="324" y="565" type="curve" smooth="yes"/>
      <point x="324" y="609"/>
      <point x="305" y="657"/>
      <point x="245" y="657" type="curve" smooth="yes"/>
      <point x="180" y="657"/>
      <point x="149" y="602"/>
    </contour>
    <contour>
      <point x="227" y="383" type="curve" smooth="yes"/>
      <point x="135" y="383"/>
      <point x="73" y="451"/>
      <point x="73" y="539" type="curve" smooth="yes"/>
      <point x="73" y="636"/>
      <point x="150" y="721"/>
      <point x="248" y="721" type="curve" smooth="yes"/>
      <point x="342" y="721"/>
      <point x="400" y="651"/>
      <point x="400" y="562" type="curve" smooth="yes"/>
      <point x="400" y="466"/>
      <point x="324" y="383"/>
    </contour>
    <contour>
      <point x="96" y="0" type="line"/>
      <point x="643" y="715" type="line"/>
      <point x="722" y="715" type="line"/>
      <point x="175" y="0" type="line"/>
    </contour>
    <contour>
      <point x="493" y="144" type="curve" smooth="yes"/>
      <point x="493" y="100"/>
      <point x="511" y="56"/>
      <point x="573" y="56" type="curve" smooth="yes"/>
      <point x="632" y="56"/>
      <point x="668" y="106"/>
      <point x="668" y="174" type="curve" smooth="yes"/>
      <point x="668" y="218"/>
      <point x="649" y="266"/>
      <point x="589" y="266" type="curve" smooth="yes"/>
      <point x="524" y="266"/>
      <point x="493" y="211"/>
    </contour>
    <contour>
      <point x="571" y="-8" type="curve" smooth="yes"/>
      <point x="479" y="-8"/>
      <point x="417" y="60"/>
      <point x="417" y="148" type="curve" smooth="yes"/>
      <point x="417" y="245"/>
      <point x="494" y="330"/>
      <point x="592" y="330" type="curve" smooth="yes"/>
      <point x="686" y="330"/>
      <point x="744" y="260"/>
      <point x="744" y="171" type="curve" smooth="yes"/>
      <point x="744" y="75"/>
      <point x="668" y="-8"/>
    </contour>
  </outline>
</glyph>
<glyph name="ampersand" format="2">
  <advance width="680"/>
  <unicode hex="0026"/>
  <outline>
    <contour>
      <point x="603" y="0" type="line"/>
      <point x="506" y="0" type="line"/>
      <point x="449" y="85" type="line"/>
      <point x="403" y="37"/>
      <point x="331" y="-5"/>
      <point x="250" y="-6" type="curve" smooth="yes"/>
      <point x="149" y="-6"/>
      <point x="38" y="41"/>
      <point x="38" y="180" type="curve" smooth="yes"/>
      <point x="38" y="300"/>
      <point x="124" y="364"/>
      <point x="236" y="408" type="curve"/>
      <point x="209" y="454"/>
      <point x="194" y="499"/>
      <point x="194" y="540" type="curve" smooth="yes"/>
      <point x="194" y="650"/>
      <point x="273" y="719"/>
      <point x="372" y="719" type="curve" smooth="yes"/>
      <point x="458" y="719"/>
      <point x="527" y="666"/>
      <point x="527" y="577" type="curve" smooth="yes"/>
      <point x="527" y="472"/>
      <point x="440" y="423"/>
      <point x="348" y="385" type="curve"/>
      <point x="467" y="204" type="line"/>
      <point x="575" y="369" type="line"/>
      <point x="655" y="369" type="line"/>
      <point x="507" y="145" type="line"/>
    </contour>
    <contour>
      <point x="124" y="182" type="curve" smooth="yes"/>
      <point x="124" y="105"/>
      <point x="175" y="61"/>
      <point x="253" y="61" type="curve" smooth="yes"/>
      <point x="309" y="61"/>
      <point x="367" y="89"/>
      <point x="414" y="139" type="curve"/>
      <point x="268" y="358" type="line"/>
      <point x="194" y="329"/>
      <point x="124" y="285"/>
    </contour>
    <contour>
      <point x="370" y="655" type="curve" smooth="yes"/>
      <point x="315" y="655"/>
      <point x="275" y="615"/>
      <point x="275" y="548" type="curve" smooth="yes"/>
      <point x="275" y="515"/>
      <point x="290" y="480"/>
      <point x="317" y="436" type="curve"/>
      <point x="381" y="461"/>
      <point x="448" y="492"/>
      <point x="448" y="575" type="curve" smooth="yes"/>
      <point x="448" y="616"/>
      <point x="424" y="655"/>
    </contour>
  </outline>
</glyph>
<glyph name="quotesingle" format="2">
  <advance width="212"/>
  <unicode hex="0027"/>
  <outline>
    <contour>
      <point x="109" y="470" type="line"/>
      <point x="131" y="715" type="line"/>
      <point x="221" y="715" type="line"/>
      <point x="169" y="470" type="line"/>
    </contour>
  </outline>
</glyph>
<glyph name="parenleft" format="2">
  <advance width="322"/>
  <unicode hex="0028"/>
  <outline>
    <contour>
      <point x="155" y="-148" type="line"/>
      <point x="91" y="-55"/>
      <point x="50" y="62"/>
      <point x="50" y="202" type="curve" smooth="yes"/>
      <point x="50" y="436"/>
      <point x="149" y="626"/>
      <point x="296" y="773" type="curve"/>
      <point x="387" y="773" type="line"/>
      <point x="236" y="617"/>
      <point x="136" y="437"/>
      <point x="136" y="202" type="curve" smooth="yes"/>
      <point x="136" y="71"/>
      <point x="172" y="-44"/>
      <point x="235" y="-148" type="curve"/>
    </contour>
  </outline>
</glyph>
<glyph name="parenright" format="2">
  <advance width="322"/>
  <unicode hex="0029"/>
  <outline>
    <contour>
      <point x="181" y="776" type="line"/>
      <point x="245" y="683"/>
      <point x="286" y="566"/>
      <point x="286" y="426" type="curve" smooth="yes"/>
      <point x="286" y="192"/>
      <point x="187" y="2"/>
      <point x="40" y="-145" type="curve"/>
      <point x="-51" y="-145" type="line"/>
      <point x="100" y="11"/>
      <point x="200" y="191"/>
      <point x="200" y="426" type="curve" smooth="yes"/>
      <point x="200" y="557"/>
      <point x="164" y="672"/>
      <point x="101" y="776" type="curve"/>
    </contour>
  </outline>
</glyph>
<glyph name="asterisk" format="2">
  <advance width="422"/>
  <unicode hex="002A"/>
  <outline>
    <contour>
      <point x="162" y="416" type="line"/>
      <point x="112" y="460" type="line"/>
      <point x="211" y="565" type="line"/>
      <point x="93" y="601" type="line"/>
      <point x="126" y="666" type="line"/>
      <point x="236" y="612" type="line"/>
      <point x="250" y="743" type="line"/>
      <point x="323" y="743" type="line"/>
      <point x="295" y="609" type="line"/>
      <point x="420" y="649" type="line"/>
      <point x="431" y="582" type="line"/>
      <point x="302" y="560" type="line"/>
      <point x="369" y="445" type="line"/>
      <point x="306" y="408" type="line"/>
      <point x="250" y="531" type="line"/>
    </contour>
  </outline>
</glyph>
<glyph name="plus" format="2">
  <advance width="519"/>
  <unicode hex="002B"/>
  <outline>
    <contour>
      <point x="197" y="105" type="line"/>
      <point x="229" y="307" type="line"/>
      <point x="42" y="307" type="line"/>
      <point x="53" y="377" type="line"/>
      <point x="240" y="377" type="line"/>
      <point x="272" y="579" type="line"/>
      <point x="345" y="579" type="line"/>
      <point x="313" y="377" type="line"/>
      <point x="500" y="377" type="line"/>
      <point x="489" y="307" type="line"/>
      <point x="302" y="307" type="line"/>
      <point x="270" y="105" type="line"/>
    </contour>
  </outline>
</glyph>
<glyph name="comma" format="2">
  <advance width="282"/>
  <unicode hex="002C"/>
  <outline>
    <contour>
      <point x="41" y="-123" type="line"/>
      <point x="-9" y="-95" type="line"/>
      <point x="109" y="124" type="line"/>
      <point x="184" y="86" type="line"/>
    </contour>
  </outline>
</glyph>
<glyph name="hyphen" format="2">
  <advance width="335"/>
  <unicode hex="002D"/>
  <outline>
    <contour>
      <point x="55" y="236" type="line"/>
      <point x="67" y="314" type="line"/>
      <point x="281" y="314" type="line"/>
      <point x="269" y="236" type="line"/>
    </contour>
  </outline>
</glyph>
<glyph name="period" format="2">
  <advance width="282"/>
  <unicode hex="002E"/>
  <outline>
    <contour>
      <point x="108" y="-5" type="curve" smooth="yes"/>
      <point x="73" y="-5"/>
      <point x="44" y="23"/>
      <point x="44" y="59" type="curve" smooth="yes"/>
      <point x="44" y="95"/>
      <point x="72" y="123"/>
      <point x="107" y="123" type="curve" smooth="yes"/>
      <point x="142" y="123"/>
      <point x="172" y="95"/>
      <point x="172" y="59" type="curve" smooth="yes"/>
      <point x="172" y="23"/>
      <point x="143" y="-5"/>
    </contour>
  </outline>
</glyph>
<glyph name="slash" format="2">
  <advance width="403"/>
  <unicode hex="002F"/>
  <outline>
    <contour>
      <point x="-59" y="-148" type="line"/>
      <point x="375" y="776" type="line"/>
      <point x="453" y="776" type="line"/>
      <point x="18" y="-148" type="line"/>
    </contour>
  </outline>
</glyph>
<glyph name="zero" format="2">
  <advance width="681"/>
  <unicode hex="0030"/>
  <outline>
    <contour>
      <point x="318" y="-9" type="curve" smooth="yes"/>
      <point x="145" y="-9"/>
      <point x="68" y="114"/>
      <point x="67" y="266" type="curve" smooth="yes"/>
      <point x="67" y="296"/>
      <point x="69" y="327"/>
      <point x="74" y="355" type="curve" smooth="yes"/>
      <point x="80" y="392" type="line" smooth="yes"/>
      <point x="113" y="594"/>
      <point x="232" y="724"/>
      <point x="398" y="724" type="curve" smooth="yes"/>
      <point x="570" y="724"/>
      <point x="642" y="598"/>
      <point x="642" y="446" type="curve" smooth="yes"/>
      <point x="642" y="418"/>
      <point x="640" y="387"/>
      <point x="635" y="358" type="curve" smooth="yes"/>
      <point x="629" y="321" type="line" smooth="yes"/>
      <point x="597" y="123"/>
      <point x="484" y="-9"/>
    </contour>
    <contour>
      <point x="323" y="63" type="curve" smooth="yes"/>
      <point x="440" y="63"/>
      <point x="515" y="158"/>
      <point x="543" y="331" type="curve" smooth="yes"/>
      <point x="549" y="368" type="line" smooth="yes"/>
      <point x="553" y="392"/>
      <point x="555" y="420"/>
      <point x="555" y="446" type="curve" smooth="yes"/>
      <point x="555" y="549"/>
      <point x="520" y="654"/>
      <point x="393" y="654" type="curve" smooth="yes"/>
      <point x="278" y="654"/>
      <point x="195" y="556"/>
      <point x="167" y="386" type="curve" smooth="yes"/>
      <point x="161" y="349" type="line" smooth="yes"/>
      <point x="157" y="324"/>
      <point x="154" y="294"/>
      <point x="154" y="265" type="curve" smooth="yes"/>
      <point x="154" y="165"/>
      <point x="188" y="63"/>
    </contour>
  </outline>
</glyph>
<glyph name="one" format="2">
  <advance width="399"/>
  <unicode hex="0031"/>
  <outline>
    <contour>
      <point x="151" y="0" type="line"/>
      <point x="250" y="627" type="line"/>
      <point x="72" y="512" type="line"/>
      <point x="85" y="595" type="line"/>
      <point x="270" y="715" type="line"/>
      <point x="351" y="715" type="line"/>
      <point x="238" y="0" type="line"/>
    </contour>
  </outline>
</glyph>
<glyph name="two" format="2">
  <advance width="554"/>
  <unicode hex="0032"/>
  <outline>
    <contour>
      <point x="-33" y="0" type="line"/>
      <point x="-30" y="20" type="line"/>
      <point x="311" y="316" type="line" smooth="yes"/>
      <point x="378" y="374"/>
      <point x="442" y="445"/>
      <point x="442" y="537" type="curve" smooth="yes"/>
      <point x="442" y="599"/>
      <point x="404" y="654"/>
      <point x="328" y="654" type="curve" smooth="yes"/>
      <point x="249" y="655"/>
      <point x="187" y="616"/>
      <point x="158" y="495" type="curve"/>
      <point x="76" y="495" type="line"/>
      <point x="101" y="651"/>
      <point x="203" y="725"/>
      <point x="333" y="724" type="curve" smooth="yes"/>
      <point x="442" y="724"/>
      <point x="530" y="656"/>
      <point x="530" y="539" type="curve" smooth="yes"/>
      <point x="530" y="423"/>
      <point x="449" y="341"/>
      <point x="351" y="258" type="curve" smooth="yes"/>
      <point x="130" y="71" type="line"/>
      <point x="467" y="71" type="line"/>
      <point x="456" y="0" type="line"/>
    </contour>
  </outline>
</glyph>
<glyph name="three" format="2">
  <advance width="604"/>
  <unicode hex="0033"/>
  <outline>
    <contour>
      <point x="271" y="-9" type="curve" smooth="yes"/>
      <point x="124" y="-9"/>
      <point x="30" y="77"/>
      <point x="30" y="211" type="curve"/>
      <point x="112" y="211" type="line"/>
      <point x="114" y="129"/>
      <point x="159" y="61"/>
      <point x="275" y="61" type="curve" smooth="yes"/>
      <point x="381" y="61"/>
      <point x="444" y="111"/>
      <point x="444" y="219" type="curve" smooth="yes"/>
      <point x="444" y="289"/>
      <point x="402" y="338"/>
      <point x="307" y="338" type="curve" smooth="yes"/>
      <point x="261" y="338" type="line"/>
      <point x="273" y="411" type="line"/>
      <point x="335" y="411" type="line" smooth="yes"/>
      <point x="411" y="411"/>
      <point x="474" y="448"/>
      <point x="474" y="541" type="curve" smooth="yes"/>
      <point x="474" y="612"/>
      <point x="428" y="653"/>
      <point x="353" y="653" type="curve" smooth="yes"/>
      <point x="267" y="653"/>
      <point x="205" y="607"/>
      <point x="184" y="518" type="curve"/>
      <point x="107" y="518" type="line"/>
      <point x="125" y="641"/>
      <point x="227" y="724"/>
      <point x="358" y="724" type="curve" smooth="yes"/>
      <point x="458" y="724"/>
      <point x="560" y="669"/>
      <point x="560" y="544" type="curve" smooth="yes"/>
      <point x="560" y="462"/>
      <point x="509" y="396"/>
      <point x="424" y="372" type="curve"/>
      <point x="493" y="350"/>
      <point x="533" y="296"/>
      <point x="533" y="219" type="curve" smooth="yes"/>
      <point x="533" y="78"/>
      <point x="425" y="-9"/>
    </contour>
  </outline>
</glyph>
<glyph name="four" format="2">
  <advance width="617"/>
  <unicode hex="0034"/>
  <outline>
    <contour>
      <point x="355" y="0" type="line"/>
      <point x="378" y="150" type="line"/>
      <point x="22" y="150" type="line"/>
      <point x="27" y="178" type="line"/>
      <point x="437" y="715" type="line"/>
      <point x="553" y="715" type="line"/>
      <point x="475" y="221" type="line"/>
      <point x="574" y="221" type="line"/>
      <point x="562" y="150" type="line"/>
      <point x="463" y="150" type="line"/>
      <point x="440" y="0" type="line"/>
    </contour>
    <contour>
      <point x="143" y="221" type="line"/>
      <point x="390" y="221" type="line"/>
      <point x="456" y="641" type="line"/>
    </contour>
  </outline>
</glyph>
<glyph name="five" format="2">
  <advance width="587"/>
  <unicode hex="0035"/>
  <outline>
    <contour>
      <point x="258" y="-9" type="curve" smooth="yes"/>
      <point x="131" y="-9"/>
      <point x="38" y="60"/>
      <point x="32" y="193" type="curve"/>
      <point x="116" y="193" type="line"/>
      <point x="121" y="113"/>
      <point x="164" y="61"/>
      <point x="259" y="61" type="curve" smooth="yes"/>
      <point x="368" y="61"/>
      <point x="436" y="138"/>
      <point x="436" y="260" type="curve" smooth="yes"/>
      <point x="436" y="342"/>
      <point x="391" y="401"/>
      <point x="294" y="401" type="curve" smooth="yes"/>
      <point x="218" y="401"/>
      <point x="169" y="371"/>
      <point x="128" y="332" type="curve"/>
      <point x="96" y="332" type="line"/>
      <point x="157" y="715" type="line"/>
      <point x="559" y="715" type="line"/>
      <point x="547" y="640" type="line"/>
      <point x="217" y="640" type="line"/>
      <point x="183" y="426" type="line"/>
      <point x="215" y="451"/>
      <point x="262" y="471"/>
      <point x="323" y="471" type="curve" smooth="yes"/>
      <point x="444" y="471"/>
      <point x="526" y="388"/>
      <point x="526" y="264" type="curve" smooth="yes"/>
      <point x="526" y="109"/>
      <point x="417" y="-9"/>
    </contour>
  </outline>
</glyph>
<glyph name="six" format="2">
  <advance width="619"/>
  <unicode hex="0036"/>
  <outline>
    <contour>
      <point x="299" y="-9" type="curve" smooth="yes"/>
      <point x="144" y="-9"/>
      <point x="61" y="79"/>
      <point x="61" y="238" type="curve" smooth="yes"/>
      <point x="61" y="269"/>
      <point x="65" y="301"/>
      <point x="70" y="335" type="curve" smooth="yes"/>
      <point x="75" y="366" type="line" smooth="yes"/>
      <point x="103" y="539"/>
      <point x="189" y="724"/>
      <point x="393" y="724" type="curve" smooth="yes"/>
      <point x="517" y="724"/>
      <point x="587" y="659"/>
      <point x="592" y="551" type="curve"/>
      <point x="510" y="551" type="line"/>
      <point x="503" y="612"/>
      <point x="473" y="653"/>
      <point x="388" y="653" type="curve" smooth="yes"/>
      <point x="251" y="653"/>
      <point x="189" y="518"/>
      <point x="163" y="376" type="curve"/>
      <point x="207" y="433"/>
      <point x="270" y="464"/>
      <point x="347" y="464" type="curve" smooth="yes"/>
      <point x="468" y="464"/>
      <point x="559" y="382"/>
      <point x="559" y="256" type="curve" smooth="yes"/>
      <point x="559" y="108"/>
      <point x="454" y="-9"/>
    </contour>
    <contour>
      <point x="146" y="211" type="curve" smooth="yes"/>
      <point x="146" y="129"/>
      <point x="194" y="59"/>
      <point x="300" y="59" type="curve" smooth="yes"/>
      <point x="403" y="59"/>
      <point x="470" y="143"/>
      <point x="470" y="252" type="curve" smooth="yes"/>
      <point x="470" y="329"/>
      <point x="425" y="396"/>
      <point x="322" y="396" type="curve" smooth="yes"/>
      <point x="221" y="396"/>
      <point x="146" y="315"/>
    </contour>
  </outline>
</glyph>
<glyph name="seven" format="2">
  <advance width="525"/>
  <unicode hex="0037"/>
  <outline>
    <contour>
      <point x="88" y="0" type="line"/>
      <point x="445" y="645" type="line"/>
      <point x="88" y="645" type="line"/>
      <point x="99" y="715" type="line"/>
      <point x="570" y="715" type="line"/>
      <point x="568" y="703" type="line"/>
      <point x="179" y="0" type="line"/>
    </contour>
  </outline>
</glyph>
<glyph name="eight" format="2">
  <advance width="607"/>
  <unicode hex="0038"/>
  <outline>
    <contour>
      <point x="287" y="-9" type="curve" smooth="yes"/>
      <point x="169" y="-9"/>
      <point x="50" y="57"/>
      <point x="50" y="186" type="curve" smooth="yes"/>
      <point x="50" y="291"/>
      <point x="117" y="364"/>
      <point x="215" y="393" type="curve"/>
      <point x="160" y="418"/>
      <point x="127" y="470"/>
      <point x="127" y="527" type="curve" smooth="yes"/>
      <point x="127" y="644"/>
      <point x="232" y="724"/>
      <point x="359" y="724" type="curve" smooth="yes"/>
      <point x="462" y="724"/>
      <point x="565" y="658"/>
      <point x="565" y="546" type="curve" smooth="yes"/>
      <point x="565" y="457"/>
      <point x="511" y="410"/>
      <point x="432" y="384" type="curve"/>
      <point x="501" y="356"/>
      <point x="545" y="293"/>
      <point x="545" y="219" type="curve" smooth="yes"/>
      <point x="545" y="72"/>
      <point x="427" y="-9"/>
    </contour>
    <contour>
      <point x="139" y="197" type="curve" smooth="yes"/>
      <point x="139" y="114"/>
      <point x="205" y="62"/>
      <point x="292" y="62" type="curve" smooth="yes"/>
      <point x="389" y="62"/>
      <point x="456" y="118"/>
      <point x="456" y="218" type="curve" smooth="yes"/>
      <point x="456" y="299"/>
      <point x="393" y="350"/>
      <point x="311" y="350" type="curve" smooth="yes"/>
      <point x="213" y="350"/>
      <point x="139" y="297"/>
    </contour>
    <contour>
      <point x="214" y="530" type="curve" smooth="yes"/>
      <point x="214" y="468"/>
      <point x="266" y="419"/>
      <point x="344" y="419" type="curve" smooth="yes"/>
      <point x="413" y="419"/>
      <point x="478" y="454"/>
      <point x="478" y="542" type="curve" smooth="yes"/>
      <point x="478" y="606"/>
      <point x="427" y="656"/>
      <point x="352" y="656" type="curve" smooth="yes"/>
      <point x="279" y="656"/>
      <point x="214" y="615"/>
    </contour>
  </outline>
</glyph>
<glyph name="nine" format="2">
  <advance width="620"/>
  <unicode hex="0039"/>
  <outline>
    <contour>
      <point x="260" y="-8" type="curve" smooth="yes"/>
      <point x="144" y="-8"/>
      <point x="52" y="47"/>
      <point x="42" y="176" type="curve"/>
      <point x="127" y="176" type="line"/>
      <point x="139" y="91"/>
      <point x="186" y="63"/>
      <point x="267" y="63" type="curve" smooth="yes"/>
      <point x="375" y="63"/>
      <point x="452" y="152"/>
      <point x="482" y="336" type="curve"/>
      <point x="442" y="283"/>
      <point x="374" y="252"/>
      <point x="298" y="252" type="curve" smooth="yes"/>
      <point x="184" y="252"/>
      <point x="87" y="327"/>
      <point x="87" y="459" type="curve" smooth="yes"/>
      <point x="87" y="611"/>
      <point x="198" y="725"/>
      <point x="355" y="725" type="curve" smooth="yes"/>
      <point x="504" y="725"/>
      <point x="581" y="634"/>
      <point x="582" y="482" type="curve" smooth="yes"/>
      <point x="582" y="451"/>
      <point x="580" y="418"/>
      <point x="574" y="382" type="curve" smooth="yes"/>
      <point x="567" y="338" type="line" smooth="yes"/>
      <point x="529" y="104"/>
      <point x="423" y="-8"/>
    </contour>
    <contour>
      <point x="176" y="463" type="curve" smooth="yes"/>
      <point x="176" y="379"/>
      <point x="223" y="320"/>
      <point x="310" y="320" type="curve" smooth="yes"/>
      <point x="415" y="320"/>
      <point x="499" y="381"/>
      <point x="499" y="504" type="curve" smooth="yes"/>
      <point x="499" y="583"/>
      <point x="458" y="657"/>
      <point x="352" y="657" type="curve" smooth="yes"/>
      <point x="248" y="657"/>
      <point x="176" y="576"/>
    </contour>
  </outline>
</glyph>
<glyph name="colon" format="2">
  <advance width="292"/>
  <unicode hex="003A"/>
  <outline>
    <contour>
      <point x="112" y="-5" type="curve" smooth="yes"/>
      <point x="77" y="-5"/>
      <point x="48" y="23"/>
      <point x="48" y="59" type="curve" smooth="yes"/>
      <point x="48" y="95"/>
      <point x="76" y="123"/>
      <point x="111" y="123" type="curve" smooth="yes"/>
      <point x="146" y="123"/>
      <point x="176" y="95"/>
      <point x="176" y="59" type="curve" smooth="yes"/>
      <point x="176" y="23"/>
      <point x="147" y="-5"/>
    </contour>
    <contour>
      <point x="160" y="292" type="curve" smooth="yes"/>
      <point x="125" y="292"/>
      <point x="96" y="320"/>
      <point x="96" y="356" type="curve" smooth="yes"/>
      <point x="96" y="392"/>
      <point x="124" y="420"/>
      <point x="159" y="420" type="curve" smooth="yes"/>
      <point x="194" y="420"/>
      <point x="224" y="392"/>
      <point x="224" y="356" type="curve" smooth="yes"/>
      <point x="224" y="320"/>
      <point x="195" y="292"/>
    </contour>
  </outline>
</glyph>
<glyph name="semicolon" format="2">
  <advance width="292"/>
  <unicode hex="003B"/>
  <outline>
    <contour>
      <point x="26" y="-123" type="line"/>
      <point x="-24" y="-95" type="line"/>
      <point x="94" y="124" type="line"/>
      <point x="169" y="86" type="line"/>
    </contour>
    <contour>
      <point x="168" y="292" type="curve" smooth="yes"/>
      <point x="133" y="292"/>
      <point x="104" y="320"/>
      <point x="104" y="356" type="curve" smooth="yes"/>
      <point x="104" y="392"/>
      <point x="132" y="420"/>
      <point x="167" y="420" type="curve" smooth="yes"/>
      <point x="202" y="420"/>
      <point x="232" y="392"/>
      <point x="232" y="356" type="curve" smooth="yes"/>
      <point x="232" y="320"/>
      <point x="203" y="292"/>
    </contour>
  </outline>
</glyph>
<glyph name="less" format="2">
  <advance width="504"/>
  <unicode hex="003C"/>
  <outline>
    <contour>
      <point x="410" y="95" type="line"/>
      <point x="60" y="316" type="line"/>
      <point x="63" y="336" type="line"/>
      <point x="481" y="549" type="line"/>
      <point x="469" y="467" type="line"/>
      <point x="181" y="324" type="line"/>
      <point x="422" y="173" type="line"/>
    </contour>
  </outline>
</glyph>
<glyph name="greater" format="2">
  <advance width="504"/>
  <unicode hex="003E"/>
  <outline>
    <contour>
      <point x="111" y="549" type="line"/>
      <point x="461" y="328" type="line"/>
      <point x="458" y="308" type="line"/>
      <point x="40" y="95" type="line"/>
      <point x="52" y="179" type="line"/>
      <point x="340" y="322" type="line"/>
      <point x="99" y="473" type="line"/>
    </contour>
  </outline>
</glyph>
<glyph name="question" format="2">
  <advance width="489"/>
  <unicode hex="003F"/>
  <outline>
    <contour>
      <point x="168" y="202" type="line"/>
      <point x="176" y="253" type="line" smooth="yes"/>
      <point x="191" y="349"/>
      <point x="258" y="392"/>
      <point x="315" y="435" type="curve" smooth="yes"/>
      <point x="364" y="472"/>
      <point x="399" y="503"/>
      <point x="399" y="565" type="curve" smooth="yes"/>
      <point x="399" y="620"/>
      <point x="362" y="655"/>
      <point x="294" y="655" type="curve" smooth="yes"/>
      <point x="224" y="655"/>
      <point x="168" y="610"/>
      <point x="154" y="525" type="curve"/>
      <point x="75" y="525" type="line"/>
      <point x="92" y="653"/>
      <point x="187" y="725"/>
      <point x="303" y="724" type="curve" smooth="yes"/>
      <point x="429" y="724"/>
      <point x="484" y="648"/>
      <point x="484" y="566" type="curve" smooth="yes"/>
      <point x="484" y="469"/>
      <point x="422" y="428"/>
      <point x="356" y="381" type="curve" smooth="yes"/>
      <point x="306" y="345"/>
      <point x="259" y="309"/>
      <point x="249" y="246" type="curve" smooth="yes"/>
      <point x="242" y="202" type="line"/>
    </contour>
    <contour>
      <point x="188" y="-5" type="curve" smooth="yes"/>
      <point x="153" y="-5"/>
      <point x="124" y="23"/>
      <point x="124" y="59" type="curve" smooth="yes"/>
      <point x="124" y="95"/>
      <point x="152" y="123"/>
      <point x="187" y="123" type="curve" smooth="yes"/>
      <point x="222" y="123"/>
      <point x="252" y="95"/>
      <point x="252" y="59" type="curve" smooth="yes"/>
      <point x="252" y="23"/>
      <point x="223" y="-5"/>
    </contour>
  </outline>
</glyph>
<glyph name="B" format="2">
  <advance width="622"/>
  <unicode hex="0042"/>
  <outline>
    <contour>
      <point x="48" y="0" type="line"/>
      <point x="161" y="715" type="line"/>
      <point x="365" y="715" type="line" smooth="yes"/>
      <point x="497" y="715"/>
      <point x="575" y="665"/>
      <point x="574" y="548" type="curve" smooth="yes"/>
      <point x="574" y="459"/>
      <point x="532" y="401"/>
      <point x="439" y="372" type="curve"/>
      <point x="519" y="352"/>
      <point x="560" y="301"/>
      <point x="561" y="216" type="curve" smooth="yes"/>
      <point x="561" y="83"/>
      <point x="461" y="0"/>
      <point x="309" y="0" type="curve" smooth="yes"/>
    </contour>
    <contour>
      <point x="143" y="68" type="line"/>
      <point x="309" y="68" type="line" smooth="yes"/>
      <point x="422" y="68"/>
      <point x="476" y="130"/>
      <point x="476" y="218" type="curve" smooth="yes"/>
      <point x="476" y="294"/>
      <point x="433" y="335"/>
      <point x="323" y="335" type="curve" smooth="yes"/>
      <point x="186" y="335" type="line"/>
    </contour>
    <contour>
      <point x="196" y="403" type="line"/>
      <point x="328" y="403" type="line" smooth="yes"/>
      <point x="437" y="403"/>
      <point x="489" y="451"/>
      <point x="489" y="544" type="curve" smooth="yes"/>
      <point x="489" y="614"/>
      <point x="452" y="647"/>
      <point x="362" y="647" type="curve" smooth="yes"/>
      <point x="235" y="647" type="line"/>
    </contour>
  </outline>
</glyph>
<glyph name="C" format="2">
  <advance width="728"/>
  <unicode hex="0043"/>
  <outline>
    <contour>
      <point x="386" y="-9" type="curve" smooth="yes"/>
      <point x="189" y="-9"/>
      <point x="68" y="114"/>
      <point x="68" y="304" type="curve" smooth="yes"/>
      <point x="68" y="538"/>
      <point x="224" y="726"/>
      <point x="448" y="726" type="curve" smooth="yes"/>
      <point x="592" y="726"/>
      <point x="704" y="646"/>
      <point x="714" y="492" type="curve"/>
      <point x="632" y="492" type="line"/>
      <point x="615" y="600"/>
      <point x="558" y="657"/>
      <point x="444" y="657" type="curve" smooth="yes"/>
      <point x="264" y="657"/>
      <point x="158" y="501"/>
      <point x="158" y="304" type="curve" smooth="yes"/>
      <point x="158" y="150"/>
      <point x="234" y="61"/>
      <point x="387" y="61" type="curve" smooth="yes"/>
      <point x="502" y="61"/>
      <point x="578" y="132"/>
      <point x="611" y="237" type="curve"/>
      <point x="694" y="237" type="line"/>
      <point x="656" y="86"/>
      <point x="537" y="-9"/>
    </contour>
  </outline>
</glyph>
<glyph name="D" format="2">
  <advance width="698"/>
  <unicode hex="0044"/>
  <outline>
    <contour>
      <point x="48" y="0" type="line"/>
      <point x="161" y="715" type="line"/>
      <point x="335" y="715" type="line" smooth="yes"/>
      <point x="571" y="715"/>
      <point x="668" y="585"/>
      <point x="669" y="410" type="curve" smooth="yes"/>
      <point x="669" y="183"/>
      <point x="525" y="0"/>
      <point x="257" y="0" type="curve" smooth="yes"/>
    </contour>
    <contour>
      <point x="146" y="71" type="line"/>
      <point x="254" y="71" type="line" smooth="yes"/>
      <point x="460" y="71"/>
      <point x="580" y="198"/>
      <point x="580" y="409" type="curve" smooth="yes"/>
      <point x="580" y="545"/>
      <point x="511" y="645"/>
      <point x="331" y="645" type="curve" smooth="yes"/>
      <point x="237" y="645" type="line"/>
    </contour>
  </outline>
</glyph>
<glyph name="F" format="2">
  <advance width="556"/>
  <unicode hex="0046"/>
  <outline>
    <contour>
      <point x="48" y="0" type="line"/>
      <point x="161" y="715" type="line"/>
      <point x="579" y="715" type="line"/>
      <point x="567" y="644" type="line"/>
      <point x="236" y="644" type="line"/>
      <point x="196" y="391" type="line"/>
      <point x="454" y="391" type="line"/>
      <point x="443" y="320" type="line"/>
      <point x="185" y="320" type="line"/>
      <point x="135" y="0" type="line"/>
    </contour>
  </outline>
</glyph>
<glyph name="M" format="2">
  <advance width="856"/>
  <unicode hex="004D"/>
  <outline>
    <contour>
      <point x="48" y="0" type="line"/>
      <point x="161" y="715" type="line"/>
      <point x="279" y="715" type="line"/>
      <point x="412" y="158" type="line"/>
      <point x="714" y="715" type="line"/>
      <point x="837" y="715" type="line"/>
      <point x="724" y="0" type="line"/>
      <point x="637" y="0" type="line"/>
      <point x="732" y="602" type="line"/>
      <point x="400" y="0" type="line"/>
      <point x="373" y="0" type="line"/>
      <point x="223" y="602" type="line"/>
      <point x="128" y="0" type="line"/>
    </contour>
  </outline>
</glyph>
<glyph name="P" format="2">
  <advance width="581"/>
  <unicode hex="0050"/>
  <outline>
    <contour>
      <point x="48" y="0" type="line"/>
      <point x="161" y="715" type="line"/>
      <point x="360" y="715" type="line" smooth="yes"/>
      <point x="490" y="715"/>
      <point x="580" y="654"/>
      <point x="580" y="529" type="curve" smooth="yes"/>
      <point x="580" y="354"/>
      <point x="447" y="291"/>
      <point x="307" y="291" type="curve" smooth="yes"/>
      <point x="181" y="291" type="line"/>
      <point x="135" y="0" type="line"/>
    </contour>
    <contour>
      <point x="192" y="360" type="line"/>
      <point x="312" y="360" type="line" smooth="yes"/>
      <point x="433" y="360"/>
      <point x="494" y="421"/>
      <point x="494" y="528" type="curve" smooth="yes"/>
      <point x="494" y="609"/>
      <point x="447" y="645"/>
      <point x="351" y="645" type="curve" smooth="yes"/>
      <point x="237" y="645" type="line"/>
    </contour>
  </outline>
</glyph>
<glyph name="Q" format="2">
  <advance width="811"/>
  <unicode hex="0051"/>
  <outline>
    <contour>
      <point x="773" y="402" type="curve" smooth="yes"/>
      <point x="773" y="253"/>
      <point x="707" y="130"/>
      <point x="607" y="58" type="curve"/>
      <point x="687" y="-40" type="line"/>
      <point x="627" y="-89" type="line"/>
      <point x="538" y="20" type="line"/>
      <point x="494" y="1"/>
      <point x="446" y="-9"/>
      <point x="395" y="-9" type="curve" smooth="yes"/>
      <point x="197" y="-9"/>
      <point x="68" y="128"/>
      <point x="68" y="312" type="curve" smooth="yes"/>
      <point x="68" y="540"/>
      <point x="235" y="724"/>
      <point x="452" y="724" type="curve" smooth="yes"/>
      <point x="658" y="724"/>
      <point x="773" y="577"/>
    </contour>
    <contour>
      <point x="683" y="402" type="curve" smooth="yes"/>
      <point x="683" y="541"/>
      <point x="601" y="654"/>
      <point x="451" y="654" type="curve" smooth="yes"/>
      <point x="271" y="654"/>
      <point x="158" y="497"/>
      <point x="158" y="312" type="curve" smooth="yes"/>
      <point x="158" y="156"/>
      <point x="257" y="62"/>
      <point x="396" y="62" type="curve" smooth="yes"/>
      <point x="430" y="62"/>
      <point x="462" y="67"/>
      <point x="491" y="78" type="curve"/>
      <point x="416" y="171" type="line"/>
      <point x="476" y="220" type="line"/>
      <point x="560" y="116" type="line"/>
      <point x="637" y="176"/>
      <point x="683" y="279"/>
    </contour>
  </outline>
</glyph>
<glyph name="T" format="2">
  <advance width="561"/>
  <unicode hex="0054"/>
  <outline>
    <contour>
      <point x="194" y="0" type="line"/>
      <point x="295" y="644" type="line"/>
      <point x="87" y="644" type="line"/>
      <point x="99" y="715" type="line"/>
      <point x="602" y="715" type="line"/>
      <point x="590" y="644" type="line"/>
      <point x="382" y="644" type="line"/>
      <point x="281" y="0" type="line"/>
    </contour>
  </outline>
</glyph>
<glyph name="V" format="2">
  <advance width="636"/>
  <unicode hex="0056"/>
  <outline>
    <contour>
      <point x="222" y="0" type="line"/>
      <point x="92" y="715" type="line"/>
      <point x="177" y="715" type="line"/>
      <point x="290" y="84" type="line"/>
      <point x="603" y="715" type="line"/>
      <point x="686" y="715" type="line"/>
      <point x="326" y="0" type="line"/>
    </contour>
  </outline>
</glyph>
<glyph name="X" format="2">
  <advance width="607"/>
  <unicode hex="0058"/>
  <outline>
    <contour>
      <point x="-19" y="0" type="line"/>
      <point x="273" y="373" type="line"/>
      <point x="110" y="715" type="line"/>
      <point x="200" y="715" type="line"/>
      <point x="337" y="430" type="line"/>
      <point x="554" y="715" type="line"/>
      <point x="644" y="715" type="line"/>
      <point x="370" y="360" type="line"/>
      <point x="542" y="0" type="line"/>
      <point x="448" y="0" type="line"/>
      <point x="304" y="303" type="line"/>
      <point x="71" y="0" type="line"/>
    </contour>
  </outline>
</glyph>
<glyph name="Y" format="2">
  <advance width="592"/>
  <unicode hex="0059"/>
  <outline>
    <contour>
      <point x="217" y="0" type="line"/>
      <point x="266" y="312" type="line"/>
      <point x="91" y="715" type="line"/>
      <point x="184" y="715" type="line"/>
      <point x="322" y="383" type="line"/>
      <point x="554" y="715" type="line"/>
      <point x="643" y="715" type="line"/>
      <point x="352" y="305" type="line"/>
      <point x="304" y="0" type="line"/>
    </contour>
  </outline>
</glyph>
<glyph name="Z" format="2">
  <advance width="595"/>
  <unicode hex="005A"/>
  <outline>
    <contour>
      <point x="-14" y="0" type="line"/>
      <point x="-12" y="14" type="line"/>
      <point x="489" y="647" type="line"/>
      <point x="124" y="647" type="line"/>
      <point x="135" y="715" type="line"/>
      <point x="624" y="715" type="line"/>
      <point x="622" y="702" type="line"/>
      <point x="130" y="71" type="line"/>
      <point x="516" y="71" type="line"/>
      <point x="505" y="0" type="line"/>
    </contour>
  </outline>
</glyph>
<glyph name="backslash" format="2">
  <advance width="403"/>
  <unicode hex="005C"/>
  <outline>
    <contour>
      <point x="257" y="-148" type="line"/>
      <point x="110" y="776" type="line"/>
      <point x="184" y="776" type="line"/>
      <point x="331" y="-148" type="line"/>
    </contour>
  </outline>
</glyph>
<glyph name="underscore" format="2">
  <advance width="394"/>
  <unicode hex="005F"/>
  <outline>
    <contour>
      <point x="-68" y="-158" type="line"/>
      <point x="-57" y="-92" type="line"/>
      <point x="338" y="-92" type="line"/>
      <point x="327" y="-158" type="line"/>
    </contour>
  </outline>
</glyph>
<glyph name="grave" format="2">
  <advance width="400"/>
  <unicode hex="0060"/>
  <outline>
    <contour>
      <point x="233" y="613" type="line"/>
      <point x="145" y="760" type="line"/>
      <point x="247" y="760" type="line"/>
      <point x="294" y="613" type="line"/>
    </contour>
  </outline>
</glyph>
<glyph name="f" format="2">
  <advance width="336"/>
  <unicode hex="0066"/>
  <outline>
    <contour>
      <point x="51" y="453" type="line"/>
      <point x="62" y="523" type="line"/>
      <point x="137" y="523" type="line"/>
      <point x="153" y="625" type="line" smooth="yes"/>
      <point x="169" y="725"/>
      <point x="235" y="776"/>
      <point x="323" y="776" type="curve" smooth="yes"/>
      <point x="358" y="776"/>
      <point x="376" y="771"/>
      <point x="392" y="763" type="curve"/>
      <point x="382" y="697" type="line"/>
      <point x="368" y="703"/>
      <point x="350" y="707"/>
      <point x="327" y="707" type="curve" smooth="yes"/>
      <point x="273" y="707"/>
      <point x="245" y="676"/>
      <point x="236" y="623" type="curve" smooth="yes"/>
      <point x="220" y="523" type="line"/>
      <point x="348" y="523" type="line"/>
      <point x="337" y="453" type="line"/>
      <point x="209" y="453" type="line"/>
      <point x="137" y="0" type="line"/>
      <point x="54" y="0" type="line"/>
      <point x="126" y="453" type="line"/>
    </contour>
  </outline>
</glyph>
<glyph name="j" format="2">
  <advance width="255"/>
  <unicode hex="006A"/>
  <outline>
    <contour>
      <point x="-63" y="-190" type="curve"/>
      <point x="-52" y="-121" type="line"/>
      <point x="8" y="-118"/>
      <point x="30" y="-90"/>
      <point x="38" y="-41" type="curve" smooth="yes"/>
      <point x="127" y="523" type="line"/>
      <point x="210" y="523" type="line"/>
      <point x="120" y="-46" type="line" smooth="yes"/>
      <point x="106" y="-137"/>
      <point x="53" y="-190"/>
    </contour>
    <contour>
      <point x="192" y="632" type="curve" smooth="yes"/>
      <point x="162" y="632"/>
      <point x="137" y="656"/>
      <point x="137" y="686" type="curve" smooth="yes"/>
      <point x="137" y="716"/>
      <point x="163" y="742"/>
      <point x="193" y="742" type="curve" smooth="yes"/>
      <point x="223" y="742"/>
      <point x="247" y="718"/>
      <point x="247" y="688" type="curve" smooth="yes"/>
      <point x="247" y="658"/>
      <point x="222" y="632"/>
    </contour>
  </outline>
</glyph>
<glyph name="m" format="2">
  <advance width="897"/>
  <unicode hex="006D"/>
  <outline>
    <contour>
      <point x="42" y="0" type="line"/>
      <point x="100" y="367" type="line" smooth="yes"/>
      <point x="111" y="438"/>
      <point x="113" y="479"/>
      <point x="114" y="523" type="curve"/>
      <point x="192" y="523" type="line"/>
      <point x="192" y="494"/>
      <point x="191" y="459"/>
      <point x="187" y="424" type="curve"/>
      <point x="224" y="490"/>
      <point x="284" y="532"/>
      <point x="353" y="532" type="curve" smooth="yes"/>
      <point x="426" y="532"/>
      <point x="481" y="499"/>
      <point x="496" y="418" type="curve"/>
      <point x="542" y="502"/>
      <point x="618" y="532"/>
      <point x="677" y="532" type="curve" smooth="yes"/>
      <point x="777" y="532"/>
      <point x="852" y="474"/>
      <point x="826" y="311" type="curve" smooth="yes"/>
      <point x="777" y="0" type="line"/>
      <point x="694" y="0" type="line"/>
      <point x="745" y="324" type="line" smooth="yes"/>
      <point x="760" y="419"/>
      <point x="732" y="461"/>
      <point x="659" y="461" type="curve" smooth="yes"/>
      <point x="591" y="461"/>
      <point x="517" y="414"/>
      <point x="500" y="310" type="curve" smooth="yes"/>
      <point x="451" y="0" type="line"/>
      <point x="368" y="0" type="line"/>
      <point x="420" y="330" type="line" smooth="yes"/>
      <point x="434" y="417"/>
      <point x="403" y="461"/>
      <point x="333" y="461" type="curve" smooth="yes"/>
      <point x="262" y="461"/>
      <point x="190" y="409"/>
      <point x="174" y="310" type="curve" smooth="yes"/>
      <point x="125" y="0" type="line"/>
    </contour>
  </outline>
</glyph>
<glyph name="n" format="2">
  <advance width="592"/>
  <unicode hex="006E"/>
  <outline>
    <contour>
      <point x="42" y="0" type="line"/>
      <point x="100" y="367" type="line" smooth="yes"/>
      <point x="111" y="438"/>
      <point x="113" y="479"/>
      <point x="114" y="523" type="curve"/>
      <point x="192" y="523" type="line"/>
      <point x="192" y="494"/>
      <point x="190" y="454"/>
      <point x="186" y="419" type="curve"/>
      <point x="222" y="482"/>
      <point x="284" y="532"/>
      <point x="369" y="532" type="curve" smooth="yes"/>
      <point x="478" y="532"/>
      <point x="546" y="471"/>
      <point x="521" y="313" type="curve" smooth="yes"/>
      <point x="471" y="0" type="line"/>
      <point x="388" y="0" type="line"/>
      <point x="441" y="332" type="line" smooth="yes"/>
      <point x="455" y="419"/>
      <point x="424" y="461"/>
      <point x="351" y="461" type="curve" smooth="yes"/>
      <point x="264" y="461"/>
      <point x="189" y="403"/>
      <point x="173" y="304" type="curve" smooth="yes"/>
      <point x="125" y="0" type="line"/>
    </contour>
  </outline>
</glyph>
<glyph name="p" format="2">
  <advance width="627"/>
  <unicode hex="0070"/>
  <outline>
    <contour>
      <point x="376" y="532" type="curve" smooth="yes"/>
      <point x="498" y="532"/>
      <point x="586" y="442"/>
      <point x="586" y="302" type="curve" smooth="yes"/>
      <point x="586" y="134"/>
      <point x="489" y="-9"/>
      <point x="325" y="-9" type="curve" smooth="yes"/>
      <point x="219" y="-9"/>
      <point x="164" y="47"/>
      <point x="141" y="98" type="curve"/>
      <point x="96" y="-182" type="line"/>
      <point x="13" y="-182" type="line"/>
      <point x="100" y="367" type="line" smooth="yes"/>
      <point x="111" y="438"/>
      <point x="113" y="479"/>
      <point x="114" y="523" type="curve"/>
      <point x="192" y="523" type="line"/>
      <point x="192" y="494"/>
      <point x="190" y="454"/>
      <point x="186" y="421" type="curve"/>
      <point x="223" y="488"/>
      <point x="299" y="532"/>
    </contour>
    <contour>
      <point x="320" y="59" type="curve" smooth="yes"/>
      <point x="434" y="59"/>
      <point x="498" y="161"/>
      <point x="498" y="297" type="curve" smooth="yes"/>
      <point x="498" y="404"/>
      <point x="445" y="464"/>
      <point x="360" y="464" type="curve" smooth="yes"/>
      <point x="247" y="464"/>
      <point x="159" y="372"/>
      <point x="159" y="222" type="curve" smooth="yes"/>
      <point x="159" y="121"/>
      <point x="221" y="59"/>
    </contour>
  </outline>
</glyph>
<glyph name="q" format="2">
  <advance width="627"/>
  <unicode hex="0071"/>
  <outline>
    <contour>
      <point x="389" y="-182" type="line"/>
      <point x="431" y="81" type="line"/>
      <point x="392" y="25"/>
      <point x="338" y="-9"/>
      <point x="261" y="-9" type="curve" smooth="yes"/>
      <point x="131" y="-9"/>
      <point x="40" y="81"/>
      <point x="40" y="222" type="curve" smooth="yes"/>
      <point x="40" y="389"/>
      <point x="143" y="532"/>
      <point x="311" y="532" type="curve" smooth="yes"/>
      <point x="411" y="532"/>
      <point x="462" y="478"/>
      <point x="486" y="428" type="curve"/>
      <point x="501" y="523" type="line"/>
      <point x="584" y="523" type="line"/>
      <point x="472" y="-182" type="line"/>
    </contour>
    <contour>
      <point x="271" y="60" type="curve" smooth="yes"/>
      <point x="382" y="60"/>
      <point x="467" y="141"/>
      <point x="467" y="303" type="curve" smooth="yes"/>
      <point x="467" y="402"/>
      <point x="403" y="463"/>
      <point x="314" y="463" type="curve" smooth="yes"/>
      <point x="196" y="463"/>
      <point x="128" y="362"/>
      <point x="128" y="226" type="curve" smooth="yes"/>
      <point x="128" y="122"/>
      <point x="181" y="60"/>
    </contour>
  </outline>
</glyph>
<glyph name="s" format="2">
  <advance width="480"/>
  <unicode hex="0073"/>
  <outline>
    <contour>
      <point x="229" y="-9" type="curve" smooth="yes"/>
      <point x="90" y="-9"/>
      <point x="27" y="71"/>
      <point x="25" y="161" type="curve"/>
      <point x="106" y="161" type="line"/>
      <point x="110" y="105"/>
      <point x="139" y="60"/>
      <point x="232" y="60" type="curve" smooth="yes"/>
      <point x="305" y="60"/>
      <point x="339" y="92"/>
      <point x="339" y="146" type="curve" smooth="yes"/>
      <point x="339" y="191"/>
      <point x="312" y="211"/>
      <point x="233" y="231" type="curve" smooth="yes"/>
      <point x="116" y="260"/>
      <point x="74" y="301"/>
      <point x="74" y="380" type="curve" smooth="yes"/>
      <point x="74" y="480"/>
      <point x="162" y="532"/>
      <point x="256" y="532" type="curve" smooth="yes"/>
      <point x="358" y="532"/>
      <point x="435" y="487"/>
      <point x="441" y="381" type="curve"/>
      <point x="363" y="381" type="line"/>
      <point x="360" y="431"/>
      <point x="319" y="463"/>
      <point x="254" y="463" type="curve" smooth="yes"/>
      <point x="189" y="463"/>
      <point x="152" y="434"/>
      <point x="152" y="385" type="curve" smooth="yes"/>
      <point x="152" y="345"/>
      <point x="176" y="325"/>
      <point x="258" y="305" type="curve" smooth="yes"/>
      <point x="362" y="279"/>
      <point x="420" y="246"/>
      <point x="420" y="150" type="curve" smooth="yes"/>
      <point x="420" y="54"/>
      <point x="346" y="-9"/>
    </contour>
  </outline>
</glyph>
<glyph name="u" format="2">
  <advance width="588"/>
  <unicode hex="0075"/>
  <outline>
    <contour>
      <point x="545" y="523" type="line"/>
      <point x="487" y="156" type="line" smooth="yes"/>
      <point x="476" y="85"/>
      <point x="474" y="43"/>
      <point x="476" y="0" type="curve"/>
      <point x="397" y="0" type="line"/>
      <point x="395" y="30"/>
      <point x="397" y="69"/>
      <point x="402" y="104" type="curve"/>
      <point x="365" y="41"/>
      <point x="305" y="-9"/>
      <point x="220" y="-9" type="curve" smooth="yes"/>
      <point x="111" y="-9"/>
      <point x="46" y="58"/>
      <point x="70" y="210" type="curve" smooth="yes"/>
      <point x="120" y="523" type="line"/>
      <point x="203" y="523" type="line"/>
      <point x="150" y="191" type="line" smooth="yes"/>
      <point x="137" y="109"/>
      <point x="166" y="62"/>
      <point x="238" y="62" type="curve" smooth="yes"/>
      <point x="325" y="62"/>
      <point x="398" y="120"/>
      <point x="414" y="219" type="curve" smooth="yes"/>
      <point x="462" y="523" type="line"/>
    </contour>
  </outline>
</glyph>
<glyph name="y" format="2">
  <advance width="505"/>
  <unicode hex="0079"/>
  <outline>
    <contour>
      <point x="44" y="-182" type="line"/>
      <point x="184" y="59" type="line"/>
      <point x="60" y="523" type="line"/>
      <point x="145" y="523" type="line"/>
      <point x="239" y="148" type="line"/>
      <point x="438" y="523" type="line"/>
      <point x="527" y="523" type="line"/>
      <point x="132" y="-182" type="line"/>
    </contour>
  </outline>
</glyph>
<glyph name="braceleft" format="2">
  <advance width="381"/>
  <unicode hex="007B"/>
  <outline>
    <contour>
      <point x="271" y="-147" type="line"/>
      <point x="123" y="-139"/>
      <point x="62" y="-63"/>
      <point x="111" y="76" type="curve" smooth="yes"/>
      <point x="144" y="167" type="line" smooth="yes"/>
      <point x="168" y="234"/>
      <point x="147" y="286"/>
      <point x="45" y="289" type="curve"/>
      <point x="53" y="350" type="line"/>
      <point x="155" y="348"/>
      <point x="191" y="388"/>
      <point x="189" y="467" type="curve" smooth="yes"/>
      <point x="186" y="573" type="line" smooth="yes"/>
      <point x="182" y="727"/>
      <point x="261" y="782"/>
      <point x="418" y="779" type="curve"/>
      <point x="408" y="717" type="line"/>
      <point x="298" y="716"/>
      <point x="262" y="682"/>
      <point x="264" y="568" type="curve" smooth="yes"/>
      <point x="266" y="467" type="line" smooth="yes"/>
      <point x="267" y="374"/>
      <point x="219" y="332"/>
      <point x="148" y="315" type="curve"/>
      <point x="218" y="296"/>
      <point x="247" y="241"/>
      <point x="216" y="153" type="curve" smooth="yes"/>
      <point x="187" y="72" type="line" smooth="yes"/>
      <point x="149" y="-39"/>
      <point x="179" y="-78"/>
      <point x="281" y="-84" type="curve"/>
    </contour>
  </outline>
</glyph>
<glyph name="bar" format="2">
  <advance width="253"/>
  <unicode hex="007C"/>
  <outline>
    <contour>
      <point x="108" y="-148" type="line"/>
      <point x="108" y="776" type="line"/>
      <point x="175" y="776" type="line"/>
      <point x="175" y="-148" type="line"/>
    </contour>
  </outline>
</glyph>
<glyph name="braceright" format="2">
  <advance width="381"/>
  <unicode hex="007D"/>
  <outline>
    <contour>
      <point x="125" y="779" type="line"/>
      <point x="273" y="771"/>
      <point x="334" y="695"/>
      <point x="285" y="556" type="curve" smooth="yes"/>
      <point x="252" y="463" type="line" smooth="yes"/>
      <point x="228" y="398"/>
      <point x="249" y="344"/>
      <point x="351" y="335" type="curve"/>
      <point x="343" y="274" type="line"/>
      <point x="241" y="282"/>
      <point x="205" y="246"/>
      <point x="207" y="165" type="curve" smooth="yes"/>
      <point x="210" y="59" type="line" smooth="yes"/>
      <point x="214" y="-95"/>
      <point x="135" y="-150"/>
      <point x="-22" y="-147" type="curve"/>
      <point x="-12" y="-85" type="line"/>
      <point x="98" y="-84"/>
      <point x="134" y="-50"/>
      <point x="132" y="64" type="curve" smooth="yes"/>
      <point x="130" y="171" type="line" smooth="yes"/>
      <point x="129" y="266"/>
      <point x="179" y="302"/>
      <point x="248" y="313" type="curve"/>
      <point x="178" y="336"/>
      <point x="149" y="395"/>
      <point x="177" y="472" type="curve" smooth="yes"/>
      <point x="209" y="560" type="line" smooth="yes"/>
      <point x="247" y="671"/>
      <point x="217" y="710"/>
      <point x="115" y="716" type="curve"/>
    </contour>
  </outline>
</glyph>
<glyph name="asciitilde" format="2">
  <advance width="445"/>
  <unicode hex="007E"/>
  <outline>
    <contour>
      <point x="40" y="223" type="line"/>
      <point x="56" y="310"/>
      <point x="103" y="351"/>
      <point x="153" y="351" type="curve" smooth="yes"/>
      <point x="219" y="351"/>
      <point x="259" y="300"/>
      <point x="292" y="300" type="curve" smooth="yes"/>
      <point x="313" y="300"/>
      <point x="338" y="317"/>
      <point x="344" y="353" type="curve"/>
      <point x="410" y="353" type="line"/>
      <point x="395" y="264"/>
      <point x="345" y="225"/>
      <point x="298" y="225" type="curve" smooth="yes"/>
      <point x="229" y="225"/>
      <point x="189" y="276"/>
      <point x="157" y="276" type="curve" smooth="yes"/>
      <point x="135" y="276"/>
      <point x="114" y="258"/>
      <point x="106" y="223" type="curve"/>
    </contour>
  </outline>
</glyph>
<glyph name="exclamdown" format="2">
  <advance width="288"/>
  <unicode hex="00A1"/>
  <outline>
    <contour>
      <point x="197" y="396" type="line"/>
      <point x="129" y="-117" type="line"/>
      <point x="37" y="-117" type="line"/>
      <point x="133" y="396" type="line"/>
    </contour>
    <contour>
      <point x="185" y="603" type="curve" smooth="yes"/>
      <point x="220" y="603"/>
      <point x="249" y="575"/>
      <point x="249" y="539" type="curve" smooth="yes"/>
      <point x="249" y="503"/>
      <point x="221" y="475"/>
      <point x="186" y="475" type="curve" smooth="yes"/>
      <point x="151" y="475"/>
      <point x="121" y="503"/>
      <point x="121" y="539" type="curve" smooth="yes"/>
      <point x="121" y="575"/>
      <point x="150" y="603"/>
    </contour>
  </outline>
</glyph>
<glyph name="cent" format="2">
  <advance width="562"/>
  <unicode hex="00A2"/>
  <outline>
    <contour>
      <point x="287" y="-8" type="curve" smooth="yes"/>
      <point x="280" y="-8" type="line"/>
      <point x="260" y="-135" type="line"/>
      <point x="201" y="-135" type="line"/>
      <point x="222" y="-2" type="line"/>
      <point x="106" y="21"/>
      <point x="39" y="107"/>
      <point x="39" y="228" type="curve" smooth="yes"/>
      <point x="39" y="417"/>
      <point x="167" y="526"/>
      <point x="306" y="531" type="curve"/>
      <point x="322" y="629" type="line"/>
      <point x="381" y="629" type="line"/>
      <point x="365" y="527" type="line"/>
      <point x="455" y="512"/>
      <point x="523" y="455"/>
      <point x="530" y="347" type="curve"/>
      <point x="451" y="347" type="line"/>
      <point x="445" y="416"/>
      <point x="406" y="448"/>
      <point x="354" y="458" type="curve"/>
      <point x="291" y="60" type="line"/>
      <point x="357" y="60"/>
      <point x="424" y="93"/>
      <point x="443" y="186" type="curve"/>
      <point x="521" y="186" type="line"/>
      <point x="498" y="51"/>
      <point x="396" y="-8"/>
    </contour>
    <contour>
      <point x="124" y="228" type="curve" smooth="yes"/>
      <point x="124" y="137"/>
      <point x="162" y="83"/>
      <point x="233" y="66" type="curve"/>
      <point x="295" y="461" type="line"/>
      <point x="199" y="453"/>
      <point x="124" y="371"/>
    </contour>
  </outline>
</glyph>
<glyph name="yen" format="2">
  <advance width="576"/>
  <unicode hex="00A5"/>
  <outline>
    <contour>
      <point x="85" y="281" type="line"/>
      <point x="94" y="339" type="line"/>
      <point x="250" y="339" type="line"/>
      <point x="99" y="715" type="line"/>
      <point x="190" y="715" type="line"/>
      <point x="313" y="391" type="line"/>
      <point x="532" y="715" type="line"/>
      <point x="619" y="715" type="line"/>
      <point x="359" y="339" type="line"/>
      <point x="515" y="339" type="line"/>
      <point x="506" y="281" type="line"/>
      <point x="338" y="281" type="line"/>
      <point x="326" y="203" type="line"/>
      <point x="493" y="203" type="line"/>
      <point x="484" y="145" type="line"/>
      <point x="317" y="145" type="line"/>
      <point x="294" y="0" type="line"/>
      <point x="209" y="0" type="line"/>
      <point x="232" y="145" type="line"/>
      <point x="63" y="145" type="line"/>
      <point x="72" y="203" type="line"/>
      <point x="241" y="203" type="line"/>
      <point x="253" y="281" type="line"/>
    </contour>
  </outline>
</glyph>
<glyph name="brokenbar" format="2">
  <advance width="253"/>
  <unicode hex="00A6"/>
  <outline>
    <contour>
      <point x="108" y="-148" type="line"/>
      <point x="108" y="297" type="line"/>
      <point x="175" y="297" type="line"/>
      <point x="175" y="-148" type="line"/>
    </contour>
    <contour>
      <point x="108" y="367" type="line"/>
      <point x="108" y="776" type="line"/>
      <point x="175" y="776" type="line"/>
      <point x="175" y="367" type="line"/>
    </contour>
  </outline>
</glyph>
<glyph name="section" format="2">
  <advance width="539"/>
  <unicode hex="00A7"/>
  <outline>
    <contour>
      <point x="217" y="-137" type="curve" smooth="yes"/>
      <point x="120" y="-137"/>
      <point x="30" y="-86"/>
      <point x="35" y="26" type="curve"/>
      <point x="119" y="26" type="line"/>
      <point x="120" y="-33"/>
      <point x="151" y="-67"/>
      <point x="224" y="-67" type="curve" smooth="yes"/>
      <point x="282" y="-67"/>
      <point x="331" y="-33"/>
      <point x="331" y="30" type="curve" smooth="yes"/>
      <point x="331" y="75"/>
      <point x="304" y="101"/>
      <point x="203" y="138" type="curve" smooth="yes"/>
      <point x="108" y="173"/>
      <point x="45" y="215"/>
      <point x="45" y="302" type="curve" smooth="yes"/>
      <point x="45" y="383"/>
      <point x="107" y="429"/>
      <point x="181" y="446" type="curve"/>
      <point x="154" y="472"/>
      <point x="139" y="502"/>
      <point x="139" y="552" type="curve" smooth="yes"/>
      <point x="139" y="657"/>
      <point x="230" y="724"/>
      <point x="337" y="724" type="curve" smooth="yes"/>
      <point x="433" y="724"/>
      <point x="504" y="676"/>
      <point x="507" y="567" type="curve"/>
      <point x="422" y="567" type="line"/>
      <point x="421" y="626"/>
      <point x="391" y="654"/>
      <point x="329" y="654" type="curve" smooth="yes"/>
      <point x="270" y="654"/>
      <point x="221" y="627"/>
      <point x="221" y="557" type="curve" smooth="yes"/>
      <point x="221" y="513"/>
      <point x="246" y="486"/>
      <point x="338" y="453" type="curve" smooth="yes"/>
      <point x="434" y="419"/>
      <point x="502" y="377"/>
      <point x="502" y="283" type="curve" smooth="yes"/>
      <point x="502" y="202"/>
      <point x="444" y="164"/>
      <point x="369" y="143" type="curve"/>
      <point x="396" y="119"/>
      <point x="414" y="78"/>
      <point x="414" y="37" type="curve" smooth="yes"/>
      <point x="414" y="-74"/>
      <point x="327" y="-137"/>
    </contour>
    <contour>
      <point x="313" y="180" type="line"/>
      <point x="363" y="190"/>
      <point x="418" y="214"/>
      <point x="418" y="277" type="curve" smooth="yes"/>
      <point x="418" y="324"/>
      <point x="377" y="355"/>
      <point x="314" y="378" type="curve" smooth="yes"/>
      <point x="232" y="408" type="line"/>
      <point x="185" y="401"/>
      <point x="129" y="371"/>
      <point x="129" y="309" type="curve" smooth="yes"/>
      <point x="129" y="265"/>
      <point x="161" y="238"/>
      <point x="229" y="212" type="curve" smooth="yes"/>
    </contour>
  </outline>
</glyph>
<glyph name="dieresis" format="2">
  <advance width="400"/>
  <unicode hex="00A8"/>
  <outline>
    <contour>
      <point x="172" y="634" type="curve" smooth="yes"/>
      <point x="143" y="634"/>
      <point x="119" y="657"/>
      <point x="119" y="686" type="curve" smooth="yes"/>
      <point x="119" y="715"/>
      <point x="144" y="740"/>
      <point x="173" y="740" type="curve" smooth="yes"/>
      <point x="202" y="740"/>
      <point x="225" y="717"/>
      <point x="225" y="688" type="curve" smooth="yes"/>
      <point x="225" y="659"/>
      <point x="201" y="634"/>
    </contour>
    <contour>
      <point x="360" y="634" type="curve" smooth="yes"/>
      <point x="331" y="634"/>
      <point x="307" y="657"/>
      <point x="307" y="686" type="curve" smooth="yes"/>
      <point x="307" y="715"/>
      <point x="332" y="740"/>
      <point x="361" y="740" type="curve" smooth="yes"/>
      <point x="390" y="740"/>
      <point x="413" y="717"/>
      <point x="413" y="688" type="curve" smooth="yes"/>
      <point x="413" y="659"/>
      <point x="389" y="634"/>
    </contour>
  </outline>
</glyph>
<glyph name="copyright" format="2">
  <advance width="844"/>
  <unicode hex="00A9"/>
  <outline>
    <contour>
      <point x="434" y="155" type="curve" smooth="yes"/>
      <point x="313" y="155"/>
      <point x="242" y="232"/>
      <point x="242" y="353" type="curve" smooth="yes"/>
      <point x="242" y="361" type="line" smooth="yes"/>
      <point x="242" y="480"/>
      <point x="323" y="560"/>
      <point x="434" y="560" type="curve" smooth="yes"/>
      <point x="524" y="560"/>
      <point x="595" y="515"/>
      <point x="603" y="422" type="curve"/>
      <point x="527" y="422" type="line"/>
      <point x="519" y="473"/>
      <point x="489" y="500"/>
      <point x="434" y="500" type="curve" smooth="yes"/>
      <point x="365" y="500"/>
      <point x="321" y="449"/>
      <point x="321" y="361" type="curve" smooth="yes"/>
      <point x="321" y="354" type="line" smooth="yes"/>
      <point x="321" y="266"/>
      <point x="362" y="216"/>
      <point x="434" y="216" type="curve" smooth="yes"/>
      <point x="488" y="216"/>
      <point x="527" y="243"/>
      <point x="535" y="299" type="curve"/>
      <point x="607" y="299" type="line"/>
      <point x="597" y="203"/>
      <point x="528" y="155"/>
    </contour>
    <contour>
      <point x="432" y="33" type="curve" smooth="yes"/>
      <point x="602" y="33"/>
      <point x="752" y="166"/>
      <point x="752" y="359" type="curve" smooth="yes"/>
      <point x="752" y="549"/>
      <point x="607" y="682"/>
      <point x="434" y="682" type="curve" smooth="yes"/>
      <point x="259" y="682"/>
      <point x="114" y="548"/>
      <point x="114" y="357" type="curve" smooth="yes"/>
      <point x="114" y="164"/>
      <point x="265" y="33"/>
    </contour>
    <contour>
      <point x="432" y="-9" type="curve" smooth="yes"/>
      <point x="229" y="-9"/>
      <point x="66" y="150"/>
      <point x="66" y="357" type="curve" smooth="yes"/>
      <point x="66" y="561"/>
      <point x="228" y="724"/>
      <point x="434" y="724" type="curve" smooth="yes"/>
      <point x="642" y="724"/>
      <point x="800" y="562"/>
      <point x="800" y="359" type="curve" smooth="yes"/>
      <point x="800" y="151"/>
      <point x="638" y="-9"/>
    </contour>
  </outline>
</glyph>
<glyph name="ordfeminine" format="2">
  <advance width="419"/>
  <unicode hex="00AA"/>
  <outline>
    <contour>
      <point x="184" y="290" type="curve" smooth="yes"/>
      <point x="101" y="290"/>
      <point x="53" y="337"/>
      <point x="53" y="406" type="curve" smooth="yes"/>
      <point x="53" y="510"/>
      <point x="146" y="545"/>
      <point x="263" y="545" type="curve" smooth="yes"/>
      <point x="336" y="545" type="line"/>
      <point x="340" y="571" type="line" smooth="yes"/>
      <point x="349" y="631"/>
      <point x="330" y="661"/>
      <point x="266" y="661" type="curve" smooth="yes"/>
      <point x="216" y="661"/>
      <point x="185" y="639"/>
      <point x="175" y="593" type="curve"/>
      <point x="97" y="593" type="line"/>
      <point x="117" y="692"/>
      <point x="199" y="724"/>
      <point x="270" y="724" type="curve" smooth="yes"/>
      <point x="369" y="724"/>
      <point x="435" y="678"/>
      <point x="417" y="565" type="curve" smooth="yes"/>
      <point x="395" y="425" type="line" smooth="yes"/>
      <point x="386" y="370"/>
      <point x="385" y="333"/>
      <point x="389" y="298" type="curve"/>
      <point x="314" y="298" type="line"/>
      <point x="311" y="320"/>
      <point x="311" y="335"/>
      <point x="312" y="353" type="curve"/>
      <point x="280" y="308"/>
      <point x="235" y="290"/>
    </contour>
    <contour>
      <point x="201" y="350" type="curve" smooth="yes"/>
      <point x="263" y="350"/>
      <point x="310" y="379"/>
      <point x="321" y="447" type="curve" smooth="yes"/>
      <point x="328" y="491" type="line"/>
      <point x="260" y="491" type="line" smooth="yes"/>
      <point x="173" y="491"/>
      <point x="131" y="468"/>
      <point x="131" y="410" type="curve" smooth="yes"/>
      <point x="131" y="376"/>
      <point x="154" y="350"/>
    </contour>
  </outline>
</glyph>
<glyph name="registered" format="2">
  <advance width="514"/>
  <unicode hex="00AE"/>
  <outline>
    <contour>
      <point x="215" y="396" type="line"/>
      <point x="215" y="615" type="line"/>
      <point x="292" y="615" type="line" smooth="yes"/>
      <point x="343" y="615"/>
      <point x="376" y="594"/>
      <point x="376" y="549" type="curve" smooth="yes"/>
      <point x="376" y="548" type="line" smooth="yes"/>
      <point x="376" y="515"/>
      <point x="357" y="497"/>
      <point x="331" y="489" type="curve"/>
      <point x="389" y="396" type="line"/>
      <point x="339" y="396" type="line"/>
      <point x="286" y="481" type="line"/>
      <point x="263" y="481" type="line"/>
      <point x="263" y="396" type="line"/>
    </contour>
    <contour>
      <point x="263" y="514" type="line"/>
      <point x="291" y="514" type="line" smooth="yes"/>
      <point x="316" y="514"/>
      <point x="329" y="525"/>
      <point x="329" y="546" type="curve" smooth="yes"/>
      <point x="329" y="547" type="line" smooth="yes"/>
      <point x="329" y="570"/>
      <point x="315" y="578"/>
      <point x="291" y="578" type="curve" smooth="yes"/>
      <point x="263" y="578" type="line"/>
    </contour>
    <contour>
      <point x="291" y="318" type="curve" smooth="yes"/>
      <point x="394" y="318"/>
      <point x="473" y="394"/>
      <point x="473" y="503" type="curve" smooth="yes"/>
      <point x="473" y="612"/>
      <point x="397" y="688"/>
      <point x="291" y="688" type="curve" smooth="yes"/>
      <point x="185" y="688"/>
      <point x="109" y="611"/>
      <point x="109" y="502" type="curve" smooth="yes"/>
      <point x="109" y="392"/>
      <point x="189" y="318"/>
    </contour>
    <contour>
      <point x="291" y="282" type="curve" smooth="yes"/>
      <point x="168" y="282"/>
      <point x="69" y="377"/>
      <point x="69" y="502" type="curve" smooth="yes"/>
      <point x="69" y="625"/>
      <point x="167" y="724"/>
      <point x="291" y="724" type="curve" smooth="yes"/>
      <point x="417" y="724"/>
      <point x="513" y="626"/>
      <point x="513" y="503" type="curve" smooth="yes"/>
      <point x="513" y="378"/>
      <point x="415" y="282"/>
    </contour>
  </outline>
</glyph>
<glyph name="macron" format="2">
  <advance width="400"/>
  <unicode hex="00AF"/>
  <outline>
    <contour>
      <point x="129" y="648" type="line"/>
      <point x="139" y="712" type="line"/>
      <point x="401" y="712" type="line"/>
      <point x="391" y="648" type="line"/>
    </contour>
  </outline>
</glyph>
<glyph name="degree" format="2">
  <advance width="427"/>
  <unicode hex="00B0"/>
  <outline>
    <contour>
      <point x="257" y="464" type="curve" smooth="yes"/>
      <point x="310" y="464"/>
      <point x="348" y="504"/>
      <point x="348" y="568" type="curve" smooth="yes"/>
      <point x="348" y="623"/>
      <point x="312" y="666"/>
      <point x="261" y="666" type="curve" smooth="yes"/>
      <point x="207" y="666"/>
      <point x="166" y="624"/>
      <point x="166" y="561" type="curve" smooth="yes"/>
      <point x="166" y="507"/>
      <point x="205" y="464"/>
    </contour>
    <contour>
      <point x="255" y="406" type="curve" smooth="yes"/>
      <point x="166" y="406"/>
      <point x="95" y="474"/>
      <point x="95" y="559" type="curve" smooth="yes"/>
      <point x="95" y="652"/>
      <point x="167" y="724"/>
      <point x="263" y="724" type="curve" smooth="yes"/>
      <point x="353" y="724"/>
      <point x="422" y="656"/>
      <point x="422" y="569" type="curve" smooth="yes"/>
      <point x="422" y="479"/>
      <point x="350" y="406"/>
    </contour>
  </outline>
</glyph>
<glyph name="plusminus" format="2">
  <advance width="519"/>
  <unicode hex="00B1"/>
  <outline>
    <contour>
      <point x="203" y="145" type="line"/>
      <point x="232" y="327" type="line"/>
      <point x="45" y="327" type="line"/>
      <point x="56" y="397" type="line"/>
      <point x="243" y="397" type="line"/>
      <point x="272" y="579" type="line"/>
      <point x="345" y="579" type="line"/>
      <point x="316" y="397" type="line"/>
      <point x="503" y="397" type="line"/>
      <point x="492" y="327" type="line"/>
      <point x="305" y="327" type="line"/>
      <point x="276" y="145" type="line"/>
    </contour>
    <contour>
      <point x="-6" y="0" type="line"/>
      <point x="5" y="70" type="line"/>
      <point x="452" y="70" type="line"/>
      <point x="441" y="0" type="line"/>
    </contour>
  </outline>
</glyph>
<glyph name="twosuperior" format="2">
  <advance width="286"/>
  <unicode hex="00B2"/>
  <outline>
    <contour>
      <point x="24" y="373" type="line"/>
      <point x="26" y="385" type="line"/>
      <point x="174" y="516" type="line" smooth="yes"/>
      <point x="213" y="551"/>
      <point x="247" y="586"/>
      <point x="246" y="622" type="curve" smooth="yes"/>
      <point x="245" y="652"/>
      <point x="225" y="667"/>
      <point x="200" y="667" type="curve" smooth="yes"/>
      <point x="168" y="667"/>
      <point x="144" y="648"/>
      <point x="133" y="601" type="curve"/>
      <point x="71" y="601" type="line"/>
      <point x="83" y="676"/>
      <point x="137" y="719"/>
      <point x="204" y="719" type="curve" smooth="yes"/>
      <point x="259" y="719"/>
      <point x="310" y="696"/>
      <point x="313" y="626" type="curve" smooth="yes"/>
      <point x="315" y="578"/>
      <point x="277" y="536"/>
      <point x="217" y="484" type="curve" smooth="yes"/>
      <point x="148" y="424" type="line"/>
      <point x="284" y="424" type="line"/>
      <point x="276" y="373" type="line"/>
    </contour>
  </outline>
</glyph>
<glyph name="acute" format="2">
  <advance width="400"/>
  <unicode hex="00B4"/>
  <outline>
    <contour>
      <point x="214" y="613" type="line"/>
      <point x="293" y="760" type="line"/>
      <point x="401" y="760" type="line"/>
      <point x="280" y="613" type="line"/>
    </contour>
  </outline>
</glyph>
<glyph name="paragraph" format="2">
  <advance width="588"/>
  <unicode hex="00B6"/>
  <outline>
    <contour>
      <point x="218" y="-100" type="line"/>
      <point x="288" y="346" type="line"/>
      <point x="285" y="346" type="line" smooth="yes"/>
      <point x="166" y="346"/>
      <point x="85" y="402"/>
      <point x="85" y="509" type="curve" smooth="yes"/>
      <point x="85" y="645"/>
      <point x="192" y="715"/>
      <point x="321" y="715" type="curve" smooth="yes"/>
      <point x="565" y="715" type="line"/>
      <point x="436" y="-100" type="line"/>
      <point x="367" y="-100" type="line"/>
      <point x="487" y="658" type="line"/>
      <point x="406" y="658" type="line"/>
      <point x="286" y="-100" type="line"/>
    </contour>
  </outline>
</glyph>
<glyph name="periodcentered" format="2">
  <advance width="282"/>
  <unicode hex="00B7"/>
  <outline>
    <contour>
      <point x="150" y="263" type="curve" smooth="yes"/>
      <point x="115" y="263"/>
      <point x="86" y="291"/>
      <point x="86" y="327" type="curve" smooth="yes"/>
      <point x="86" y="363"/>
      <point x="114" y="391"/>
      <point x="149" y="391" type="curve" smooth="yes"/>
      <point x="184" y="391"/>
      <point x="214" y="363"/>
      <point x="214" y="327" type="curve" smooth="yes"/>
      <point x="214" y="291"/>
      <point x="185" y="263"/>
    </contour>
  </outline>
</glyph>
<glyph name="cedilla" format="2">
  <advance width="400"/>
  <unicode hex="00B8"/>
  <outline>
    <contour>
      <point x="143" y="-214" type="curve" smooth="yes"/>
      <point x="91" y="-214"/>
      <point x="49" y="-187"/>
      <point x="44" y="-130" type="curve"/>
      <point x="100" y="-130" type="line"/>
      <point x="102" y="-150"/>
      <point x="117" y="-166"/>
      <point x="142" y="-166" type="curve" smooth="yes"/>
      <point x="163" y="-166"/>
      <point x="182" y="-156"/>
      <point x="182" y="-128" type="curve" smooth="yes"/>
      <point x="182" y="-108"/>
      <point x="167" y="-96"/>
      <point x="147" y="-96" type="curve" smooth="yes"/>
      <point x="135" y="-96"/>
      <point x="127" y="-100"/>
      <point x="121" y="-104" type="curve"/>
      <point x="94" y="-74" type="line"/>
      <point x="151" y="0" type="line"/>
      <point x="204" y="0" type="line"/>
      <point x="164" y="-53" type="line"/>
      <point x="204" y="-49"/>
      <point x="245" y="-74"/>
      <point x="245" y="-125" type="curve" smooth="yes"/>
      <point x="245" y="-183"/>
      <point x="204" y="-214"/>
    </contour>
  </outline>
</glyph>
<glyph name="onesuperior" format="2">
  <advance width="231"/>
  <unicode hex="00B9"/>
  <outline>
    <contour>
      <point x="122" y="373" type="line"/>
      <point x="165" y="647" type="line"/>
      <point x="76" y="593" type="line"/>
      <point x="85" y="654" type="line"/>
      <point x="184" y="715" type="line"/>
      <point x="244" y="715" type="line"/>
      <point x="190" y="373" type="line"/>
    </contour>
  </outline>
</glyph>
<glyph name="ordmasculine" format="2">
  <advance width="493"/>
  <unicode hex="00BA"/>
  <outline>
    <contour>
      <point x="264" y="290" type="curve" smooth="yes"/>
      <point x="146" y="290"/>
      <point x="75" y="367"/>
      <point x="75" y="476" type="curve" smooth="yes"/>
      <point x="75" y="618"/>
      <point x="174" y="724"/>
      <point x="302" y="724" type="curve" smooth="yes"/>
      <point x="420" y="724"/>
      <point x="491" y="647"/>
      <point x="491" y="538" type="curve" smooth="yes"/>
      <point x="491" y="394"/>
      <point x="396" y="290"/>
    </contour>
    <contour>
      <point x="268" y="354" type="curve" smooth="yes"/>
      <point x="358" y="354"/>
      <point x="410" y="433"/>
      <point x="410" y="537" type="curve" smooth="yes"/>
      <point x="410" y="612"/>
      <point x="372" y="660"/>
      <point x="297" y="660" type="curve" smooth="yes"/>
      <point x="211" y="660"/>
      <point x="156" y="581"/>
      <point x="156" y="476" type="curve" smooth="yes"/>
      <point x="156" y="401"/>
      <point x="192" y="354"/>
    </contour>
  </outline>
</glyph>
<glyph name="guillemotright" format="2">
  <advance width="500"/>
  <unicode hex="00BB"/>
  <outline>
    <contour>
      <point x="338" y="439" type="line"/>
      <point x="440" y="260" type="line"/>
      <point x="282" y="83" type="line"/>
      <point x="197" y="83" type="line"/>
      <point x="353" y="264" type="line"/>
      <point x="258" y="439" type="line"/>
    </contour>
    <contour>
      <point x="160" y="439" type="line"/>
      <point x="262" y="260" type="line"/>
      <point x="104" y="83" type="line"/>
      <point x="19" y="83" type="line"/>
      <point x="175" y="264" type="line"/>
      <point x="80" y="439" type="line"/>
    </contour>
  </outline>
</glyph>
<glyph name="onequarter" format="2">
  <advance width="684"/>
  <unicode hex="00BC"/>
  <outline>
    <contour>
      <point x="125" y="373" type="line"/>
      <point x="168" y="647" type="line"/>
      <point x="79" y="593" type="line"/>
      <point x="88" y="654" type="line"/>
      <point x="187" y="715" type="line"/>
      <point x="247" y="715" type="line"/>
      <point x="193" y="373" type="line"/>
    </contour>
    <contour>
      <point x="20" y="0" type="line"/>
      <point x="617" y="715" type="line"/>
      <point x="686" y="715" type="line"/>
      <point x="89" y="0" type="line"/>
    </contour>
    <contour>
      <point x="510" y="0" type="line"/>
      <point x="521" y="69" type="line"/>
      <point x="349" y="69" type="line"/>
      <point x="353" y="93" type="line"/>
      <point x="545" y="342" type="line"/>
      <point x="629" y="342" type="line"/>
      <point x="593" y="118" type="line"/>
      <point x="639" y="118" type="line"/>
      <point x="631" y="69" type="line"/>
      <point x="586" y="69" type="line"/>
      <point x="575" y="0" type="line"/>
    </contour>
    <contour>
      <point x="431" y="118" type="line"/>
      <point x="530" y="118" type="line"/>
      <point x="556" y="287" type="line"/>
    </contour>
  </outline>
</glyph>
<glyph name="onehalf" format="2">
  <advance width="697"/>
  <unicode hex="00BD"/>
  <outline>
    <contour>
      <point x="125" y="373" type="line"/>
      <point x="168" y="647" type="line"/>
      <point x="79" y="593" type="line"/>
      <point x="88" y="654" type="line"/>
      <point x="187" y="715" type="line"/>
      <point x="247" y="715" type="line"/>
      <point x="193" y="373" type="line"/>
    </contour>
    <contour>
      <point x="7" y="0" type="line"/>
      <point x="604" y="715" type="line"/>
      <point x="673" y="715" type="line"/>
      <point x="76" y="0" type="line"/>
    </contour>
    <contour>
      <point x="373" y="0" type="line"/>
      <point x="375" y="12" type="line"/>
      <point x="523" y="143" type="line" smooth="yes"/>
      <point x="571" y="185"/>
      <point x="595" y="210"/>
      <point x="595" y="249" type="curve" smooth="yes"/>
      <point x="595" y="279"/>
      <point x="574" y="294"/>
      <point x="549" y="294" type="curve" smooth="yes"/>
      <point x="517" y="294"/>
      <point x="493" y="275"/>
      <point x="482" y="228" type="curve"/>
      <point x="420" y="228" type="line"/>
      <point x="432" y="303"/>
      <point x="486" y="346"/>
      <point x="553" y="346" type="curve" smooth="yes"/>
      <point x="608" y="346"/>
      <point x="662" y="318"/>
      <point x="662" y="250" type="curve" smooth="yes"/>
      <point x="662" y="197"/>
      <point x="628" y="167"/>
      <point x="564" y="111" type="curve" smooth="yes"/>
      <point x="495" y="51" type="line"/>
      <point x="633" y="51" type="line"/>
      <point x="625" y="0" type="line"/>
    </contour>
  </outline>
</glyph>
<glyph name="threequarters" format="2">
  <advance width="710"/>
  <unicode hex="00BE"/>
  <outline>
    <contour>
      <point x="186" y="368" type="curve" smooth="yes"/>
      <point x="119" y="368"/>
      <point x="58" y="396"/>
      <point x="57" y="479" type="curve"/>
      <point x="120" y="479" type="line"/>
      <point x="122" y="444"/>
      <point x="142" y="418"/>
      <point x="185" y="418" type="curve" smooth="yes"/>
      <point x="218" y="418"/>
      <point x="251" y="436"/>
      <point x="251" y="477" type="curve" smooth="yes"/>
      <point x="251" y="510"/>
      <point x="231" y="526"/>
      <point x="196" y="526" type="curve" smooth="yes"/>
      <point x="172" y="526" type="line"/>
      <point x="179" y="573" type="line"/>
      <point x="206" y="573" type="line" smooth="yes"/>
      <point x="242" y="573"/>
      <point x="266" y="590"/>
      <point x="266" y="623" type="curve" smooth="yes"/>
      <point x="266" y="651"/>
      <point x="252" y="669"/>
      <point x="217" y="669" type="curve" smooth="yes"/>
      <point x="182" y="669"/>
      <point x="157" y="648"/>
      <point x="149" y="614" type="curve"/>
      <point x="89" y="614" type="line"/>
      <point x="97" y="680"/>
      <point x="153" y="719"/>
      <point x="219" y="719" type="curve" smooth="yes"/>
      <point x="279" y="719"/>
      <point x="331" y="695"/>
      <point x="331" y="629" type="curve" smooth="yes"/>
      <point x="331" y="592"/>
      <point x="305" y="562"/>
      <point x="264" y="549" type="curve"/>
      <point x="295" y="542"/>
      <point x="320" y="518"/>
      <point x="320" y="474" type="curve" smooth="yes"/>
      <point x="320" y="406"/>
      <point x="256" y="368"/>
    </contour>
    <contour>
      <point x="60" y="0" type="line"/>
      <point x="657" y="715" type="line"/>
      <point x="726" y="715" type="line"/>
      <point x="129" y="0" type="line"/>
    </contour>
    <contour>
      <point x="536" y="0" type="line"/>
      <point x="547" y="69" type="line"/>
      <point x="375" y="69" type="line"/>
      <point x="379" y="93" type="line"/>
      <point x="571" y="342" type="line"/>
      <point x="655" y="342" type="line"/>
      <point x="619" y="118" type="line"/>
      <point x="665" y="118" type="line"/>
      <point x="657" y="69" type="line"/>
      <point x="612" y="69" type="line"/>
      <point x="601" y="0" type="line"/>
    </contour>
    <contour>
      <point x="457" y="118" type="line"/>
      <point x="556" y="118" type="line"/>
      <point x="582" y="287" type="line"/>
    </contour>
  </outline>
</glyph>
<glyph name="questiondown" format="2">
  <advance width="489"/>
  <unicode hex="00BF"/>
  <outline>
    <contour>
      <point x="328" y="396" type="line"/>
      <point x="320" y="345" type="line" smooth="yes"/>
      <point x="305" y="249"/>
      <point x="238" y="206"/>
      <point x="181" y="163" type="curve" smooth="yes"/>
      <point x="132" y="126"/>
      <point x="97" y="95"/>
      <point x="97" y="33" type="curve" smooth="yes"/>
      <point x="97" y="-22"/>
      <point x="134" y="-57"/>
      <point x="202" y="-57" type="curve" smooth="yes"/>
      <point x="272" y="-57"/>
      <point x="328" y="-12"/>
      <point x="342" y="73" type="curve"/>
      <point x="421" y="73" type="line"/>
      <point x="404" y="-55"/>
      <point x="309" y="-127"/>
      <point x="193" y="-126" type="curve" smooth="yes"/>
      <point x="67" y="-126"/>
      <point x="12" y="-50"/>
      <point x="12" y="32" type="curve" smooth="yes"/>
      <point x="12" y="129"/>
      <point x="74" y="170"/>
      <point x="140" y="217" type="curve" smooth="yes"/>
      <point x="190" y="253"/>
      <point x="237" y="289"/>
      <point x="247" y="352" type="curve" smooth="yes"/>
      <point x="254" y="396" type="line"/>
    </contour>
    <contour>
      <point x="308" y="603" type="curve" smooth="yes"/>
      <point x="343" y="603"/>
      <point x="372" y="575"/>
      <point x="372" y="539" type="curve" smooth="yes"/>
      <point x="372" y="503"/>
      <point x="344" y="475"/>
      <point x="309" y="475" type="curve" smooth="yes"/>
      <point x="274" y="475"/>
      <point x="244" y="503"/>
      <point x="244" y="539" type="curve" smooth="yes"/>
      <point x="244" y="575"/>
      <point x="273" y="603"/>
    </contour>
  </outline>
</glyph>
<glyph name="Agrave" format="2">
  <advance width="650"/>
  <unicode hex="00C0"/>
  <outline>
    <contour>
      <point x="500" y="0" type="line"/>
      <point x="463" y="206" type="line"/>
      <point x="168" y="206" type="line"/>
      <point x="66" y="0" type="line"/>
      <point x="-18" y="0" type="line"/>
      <point x="341" y="715" type="line"/>
      <point x="455" y="715" type="line"/>
      <point x="584" y="0" type="line"/>
    </contour>
    <contour>
      <point x="384" y="643" type="line"/>
      <point x="202" y="275" type="line"/>
      <point x="450" y="275" type="line"/>
    </contour>
    <contour>
      <point x="379" y="771" type="line"/>
      <point x="299" y="898" type="line"/>
      <point x="400" y="898" type="line"/>
      <point x="439" y="771" type="line"/>
    </contour>
  </outline>
</glyph>
<glyph name="Atilde" format="2">
  <advance width="650"/>
  <unicode hex="00C3"/>
  <outline>
    <contour>
      <point x="500" y="0" type="line"/>
      <point x="463" y="206" type="line"/>
      <point x="168" y="206" type="line"/>
      <point x="66" y="0" type="line"/>
      <point x="-18" y="0" type="line"/>
      <point x="341" y="715" type="line"/>
      <point x="455" y="715" type="line"/>
      <point x="584" y="0" type="line"/>
    </contour>
    <contour>
      <point x="384" y="643" type="line"/>
      <point x="202" y="275" type="line"/>
      <point x="450" y="275" type="line"/>
    </contour>
    <contour>
      <point x="465" y="774" type="curve" smooth="yes"/>
      <point x="418" y="774"/>
      <point x="383" y="817"/>
      <point x="354" y="817" type="curve" smooth="yes"/>
      <point x="335" y="817"/>
      <point x="315" y="800"/>
      <point x="308" y="772" type="curve"/>
      <point x="248" y="772" type="line"/>
      <point x="262" y="845"/>
      <point x="303" y="888"/>
      <point x="355" y="888" type="curve" smooth="yes"/>
      <point x="401" y="888"/>
      <point x="436" y="845"/>
      <point x="465" y="845" type="curve" smooth="yes"/>
      <point x="484" y="845"/>
      <point x="503" y="862"/>
      <point x="510" y="890" type="curve"/>
      <point x="570" y="890" type="line"/>
      <point x="556" y="817"/>
      <point x="516" y="774"/>
    </contour>
  </outline>
</glyph>
<glyph name="Adieresis" format="2">
  <advance width="650"/>
  <unicode hex="00C4"/>
  <outline>
    <contour>
      <point x="500" y="0" type="line"/>
      <point x="463" y="206" type="line"/>
      <point x="168" y="206" type="line"/>
      <point x="66" y="0" type="line"/>
      <point x="-18" y="0" type="line"/>
      <point x="341" y="715" type="line"/>
      <point x="455" y="715" type="line"/>
      <point x="584" y="0" type="line"/>
    </contour>
    <contour>
      <point x="384" y="643" type="line"/>
      <point x="202" y="275" type="line"/>
      <point x="450" y="275" type="line"/>
    </contour>
    <contour>
      <point x="305" y="789" type="curve" smooth="yes"/>
      <point x="276" y="789"/>
      <point x="252" y="812"/>
      <point x="252" y="841" type="curve" smooth="yes"/>
      <point x="252" y="870"/>
      <point x="277" y="895"/>
      <point x="306" y="895" type="curve" smooth="yes"/>
      <point x="335" y="895"/>
      <point x="358" y="872"/>
      <point x="358" y="843" type="curve" smooth="yes"/>
      <point x="358" y="814"/>
      <point x="334" y="789"/>
    </contour>
    <contour>
      <point x="508" y="789" type="curve" smooth="yes"/>
      <point x="479" y="789"/>
      <point x="455" y="812"/>
      <point x="455" y="841" type="curve" smooth="yes"/>
      <point x="455" y="870"/>
      <point x="480" y="895"/>
      <point x="509" y="895" type="curve" smooth="yes"/>
      <point x="538" y="895"/>
      <point x="561" y="872"/>
      <point x="561" y="843" type="curve" smooth="yes"/>
      <point x="561" y="814"/>
      <point x="537" y="789"/>
    </contour>
  </outline>
</glyph>
<glyph name="Aring" format="2">
  <advance width="650"/>
  <unicode hex="00C5"/>
  <outline>
    <contour>
      <point x="500" y="0" type="line"/>
      <point x="463" y="206" type="line"/>
      <point x="168" y="206" type="line"/>
      <point x="66" y="0" type="line"/>
      <point x="-18" y="0" type="line"/>
      <point x="341" y="715" type="line"/>
      <point x="455" y="715" type="line"/>
      <point x="584" y="0" type="line"/>
    </contour>
    <contour>
      <point x="384" y="643" type="line"/>
      <point x="202" y="275" type="line"/>
      <point x="450" y="275" type="line"/>
    </contour>
    <contour>
      <point x="405" y="759" type="curve" smooth="yes"/>
      <point x="346" y="759"/>
      <point x="300" y="804"/>
      <point x="300" y="861" type="curve" smooth="yes"/>
      <point x="300" y="920"/>
      <point x="350" y="967"/>
      <point x="409" y="967" type="curve" smooth="yes"/>
      <point x="468" y="967"/>
      <point x="514" y="922"/>
      <point x="514" y="865" type="curve" smooth="yes"/>
      <point x="514" y="806"/>
      <point x="464" y="759"/>
    </contour>
    <contour>
      <point x="405" y="805" type="curve" smooth="yes"/>
      <point x="436" y="805"/>
      <point x="460" y="830"/>
      <point x="460" y="865" type="curve" smooth="yes"/>
      <point x="460" y="898"/>
      <point x="440" y="921"/>
      <point x="409" y="921" type="curve" smooth="yes"/>
      <point x="378" y="921"/>
      <point x="354" y="896"/>
      <point x="354" y="861" type="curve" smooth="yes"/>
      <point x="354" y="828"/>
      <point x="374" y="805"/>
    </contour>
  </outline>
</glyph>
<glyph name="Ccedilla" format="2">
  <advance width="728"/>
  <unicode hex="00C7"/>
  <outline>
    <contour>
      <point x="302" y="-214" type="curve" smooth="yes"/>
      <point x="250" y="-214"/>
      <point x="208" y="-187"/>
      <point x="203" y="-130" type="curve"/>
      <point x="259" y="-130" type="line"/>
      <point x="261" y="-150"/>
      <point x="276" y="-166"/>
      <point x="301" y="-166" type="curve" smooth="yes"/>
      <point x="322" y="-166"/>
      <point x="341" y="-156"/>
      <point x="341" y="-128" type="curve" smooth="yes"/>
      <point x="341" y="-108"/>
      <point x="326" y="-96"/>
      <point x="306" y="-96" type="curve" smooth="yes"/>
      <point x="294" y="-96"/>
      <point x="286" y="-100"/>
      <point x="280" y="-104" type="curve"/>
      <point x="253" y="-74" type="line"/>
      <point x="308" y="-2" type="line"/>
      <point x="158" y="26"/>
      <point x="68" y="140"/>
      <point x="68" y="304" type="curve" smooth="yes"/>
      <point x="68" y="538"/>
      <point x="224" y="726"/>
      <point x="448" y="726" type="curve" smooth="yes"/>
      <point x="592" y="726"/>
      <point x="704" y="646"/>
      <point x="714" y="492" type="curve"/>
      <point x="632" y="492" type="line"/>
      <point x="615" y="600"/>
      <point x="558" y="657"/>
      <point x="444" y="657" type="curve" smooth="yes"/>
      <point x="264" y="657"/>
      <point x="158" y="501"/>
      <point x="158" y="304" type="curve" smooth="yes"/>
      <point x="158" y="150"/>
      <point x="234" y="61"/>
      <point x="387" y="61" type="curve" smooth="yes"/>
      <point x="502" y="61"/>
      <point x="578" y="132"/>
      <point x="611" y="237" type="curve"/>
      <point x="694" y="237" type="line"/>
      <point x="656" y="86"/>
      <point x="537" y="-9"/>
      <point x="386" y="-9" type="curve" smooth="yes"/>
      <point x="376" y="-9"/>
      <point x="371" y="-9"/>
      <point x="357" y="-8" type="curve"/>
      <point x="323" y="-53" type="line"/>
      <point x="363" y="-49"/>
      <point x="404" y="-74"/>
      <point x="404" y="-125" type="curve" smooth="yes"/>
      <point x="404" y="-183"/>
      <point x="363" y="-214"/>
    </contour>
  </outline>
</glyph>
<glyph name="Eacute" format="2">
  <advance width="572"/>
  <unicode hex="00C9"/>
  <outline>
    <contour>
      <point x="48" y="0" type="line"/>
      <point x="161" y="715" type="line"/>
      <point x="574" y="715" type="line"/>
      <point x="562" y="644" type="line"/>
      <point x="236" y="644" type="line"/>
      <point x="198" y="401" type="line"/>
      <point x="464" y="401" type="line"/>
      <point x="453" y="330" type="line"/>
      <point x="187" y="330" type="line"/>
      <point x="146" y="71" type="line"/>
      <point x="494" y="71" type="line"/>
      <point x="483" y="0" type="line"/>
    </contour>
    <contour>
      <point x="333" y="771" type="line"/>
      <point x="401" y="898" type="line"/>
      <point x="507" y="898" type="line"/>
      <point x="399" y="771" type="line"/>
    </contour>
  </outline>
</glyph>
<glyph name="Edieresis" format="2">
  <advance width="572"/>
  <unicode hex="00CB"/>
  <outline>
    <contour>
      <point x="48" y="0" type="line"/>
      <point x="161" y="715" type="line"/>
      <point x="574" y="715" type="line"/>
      <point x="562" y="644" type="line"/>
      <point x="236" y="644" type="line"/>
      <point x="198" y="401" type="line"/>
      <point x="464" y="401" type="line"/>
      <point x="453" y="330" type="line"/>
      <point x="187" y="330" type="line"/>
      <point x="146" y="71" type="line"/>
      <point x="494" y="71" type="line"/>
      <point x="483" y="0" type="line"/>
    </contour>
    <contour>
      <point x="278" y="789" type="curve" smooth="yes"/>
      <point x="249" y="789"/>
      <point x="225" y="812"/>
      <point x="225" y="841" type="curve" smooth="yes"/>
      <point x="225" y="870"/>
      <point x="250" y="895"/>
      <point x="279" y="895" type="curve" smooth="yes"/>
      <point x="308" y="895"/>
      <point x="331" y="872"/>
      <point x="331" y="843" type="curve" smooth="yes"/>
      <point x="331" y="814"/>
      <point x="307" y="789"/>
    </contour>
    <contour>
      <point x="481" y="789" type="curve" smooth="yes"/>
      <point x="452" y="789"/>
      <point x="428" y="812"/>
      <point x="428" y="841" type="curve" smooth="yes"/>
      <point x="428" y="870"/>
      <point x="453" y="895"/>
      <point x="482" y="895" type="curve" smooth="yes"/>
      <point x="511" y="895"/>
      <point x="534" y="872"/>
      <point x="534" y="843" type="curve" smooth="yes"/>
      <point x="534" y="814"/>
      <point x="510" y="789"/>
    </contour>
  </outline>
</glyph>
<glyph name="Igrave" format="2">
  <advance width="279"/>
  <unicode hex="00CC"/>
  <outline>
    <contour>
      <point x="53" y="0" type="line"/>
      <point x="166" y="715" type="line"/>
      <point x="253" y="715" type="line"/>
      <point x="140" y="0" type="line"/>
    </contour>
    <contour>
      <point x="194" y="771" type="line"/>
      <point x="114" y="898" type="line"/>
      <point x="215" y="898" type="line"/>
      <point x="254" y="771" type="line"/>
    </contour>
  </outline>
</glyph>
<glyph name="Idieresis" format="2">
  <advance width="279"/>
  <unicode hex="00CF"/>
  <outline>
    <contour>
      <point x="53" y="0" type="line"/>
      <point x="166" y="715" type="line"/>
      <point x="253" y="715" type="line"/>
      <point x="140" y="0" type="line"/>
    </contour>
    <contour>
      <point x="127" y="789" type="curve" smooth="yes"/>
      <point x="98" y="789"/>
      <point x="74" y="812"/>
      <point x="74" y="841" type="curve" smooth="yes"/>
      <point x="74" y="870"/>
      <point x="99" y="895"/>
      <point x="128" y="895" type="curve" smooth="yes"/>
      <point x="157" y="895"/>
      <point x="180" y="872"/>
      <point x="180" y="843" type="curve" smooth="yes"/>
      <point x="180" y="814"/>
      <point x="156" y="789"/>
    </contour>
    <contour>
      <point x="330" y="789" type="curve" smooth="yes"/>
      <point x="301" y="789"/>
      <point x="277" y="812"/>
      <point x="277" y="841" type="curve" smooth="yes"/>
      <point x="277" y="870"/>
      <point x="302" y="895"/>
      <point x="331" y="895" type="curve" smooth="yes"/>
      <point x="360" y="895"/>
      <point x="383" y="872"/>
      <point x="383" y="843" type="curve" smooth="yes"/>
      <point x="383" y="814"/>
      <point x="359" y="789"/>
    </contour>
  </outline>
</glyph>
<glyph name="Eth" format="2">
  <advance width="718"/>
  <unicode hex="00D0"/>
  <outline>
    <contour>
      <point x="43" y="325" type="line"/>
      <point x="54" y="392" type="line"/>
      <point x="130" y="392" type="line"/>
      <point x="181" y="715" type="line"/>
      <point x="355" y="715" type="line" smooth="yes"/>
      <point x="591" y="715"/>
      <point x="688" y="585"/>
      <point x="689" y="410" type="curve" smooth="yes"/>
      <point x="689" y="183"/>
      <point x="545" y="0"/>
      <point x="277" y="0" type="curve" smooth="yes"/>
      <point x="68" y="0" type="line"/>
      <point x="119" y="325" type="line"/>
    </contour>
    <contour>
      <point x="166" y="71" type="line"/>
      <point x="274" y="71" type="line" smooth="yes"/>
      <point x="480" y="71"/>
      <point x="600" y="198"/>
      <point x="600" y="409" type="curve" smooth="yes"/>
      <point x="600" y="545"/>
      <point x="531" y="645"/>
      <point x="351" y="645" type="curve" smooth="yes"/>
      <point x="257" y="645" type="line"/>
      <point x="217" y="392" type="line"/>
      <point x="424" y="392" type="line"/>
      <point x="413" y="325" type="line"/>
      <point x="206" y="325" type="line"/>
    </contour>
  </outline>
</glyph>
<glyph name="Ntilde" format="2">
  <advance width="724"/>
  <unicode hex="00D1"/>
  <outline>
    <contour>
      <point x="48" y="0" type="line"/>
      <point x="161" y="715" type="line"/>
      <point x="272" y="715" type="line"/>
      <point x="528" y="124" type="line"/>
      <point x="622" y="715" type="line"/>
      <point x="705" y="715" type="line"/>
      <point x="592" y="0" type="line"/>
      <point x="494" y="0" type="line"/>
      <point x="228" y="613" type="line"/>
      <point x="131" y="0" type="line"/>
    </contour>
    <contour>
      <point x="514" y="774" type="curve" smooth="yes"/>
      <point x="467" y="774"/>
      <point x="432" y="817"/>
      <point x="403" y="817" type="curve" smooth="yes"/>
      <point x="384" y="817"/>
      <point x="364" y="800"/>
      <point x="357" y="772" type="curve"/>
      <point x="297" y="772" type="line"/>
      <point x="311" y="845"/>
      <point x="352" y="888"/>
      <point x="404" y="888" type="curve" smooth="yes"/>
      <point x="450" y="888"/>
      <point x="485" y="845"/>
      <point x="514" y="845" type="curve" smooth="yes"/>
      <point x="533" y="845"/>
      <point x="552" y="862"/>
      <point x="559" y="890" type="curve"/>
      <point x="619" y="890" type="line"/>
      <point x="605" y="817"/>
      <point x="565" y="774"/>
    </contour>
  </outline>
</glyph>
<glyph name="multiply" format="2">
  <advance width="469"/>
  <unicode hex="00D7"/>
  <outline>
    <contour>
      <point x="67" y="131" type="line"/>
      <point x="24" y="181" type="line"/>
      <point x="196" y="335" type="line"/>
      <point x="64" y="488" type="line"/>
      <point x="114" y="535" type="line"/>
      <point x="248" y="381" type="line"/>
      <point x="420" y="535" type="line"/>
      <point x="465" y="485" type="line"/>
      <point x="291" y="330" type="line"/>
      <point x="425" y="177" type="line"/>
      <point x="373" y="131" type="line"/>
      <point x="240" y="284" type="line"/>
    </contour>
  </outline>
</glyph>
<glyph name="Ucircumflex" format="2">
  <advance width="696"/>
  <unicode hex="00DB"/>
  <outline>
    <contour>
      <point x="325" y="-9" type="curve" smooth="yes"/>
      <point x="145" y="-9"/>
      <point x="55" y="90"/>
      <point x="86" y="283" type="curve" smooth="yes"/>
      <point x="155" y="715" type="line"/>
      <point x="242" y="715" type="line"/>
      <point x="173" y="282" type="line" smooth="yes"/>
      <point x="148" y="123"/>
      <point x="203" y="63"/>
      <point x="329" y="63" type="curve" smooth="yes"/>
      <point x="436" y="63"/>
      <point x="501" y="117"/>
      <point x="524" y="261" type="curve" smooth="yes"/>
      <point x="596" y="715" type="line"/>
      <point x="683" y="715" type="line"/>
      <point x="609" y="249" type="line" smooth="yes"/>
      <point x="584" y="93"/>
      <point x="497" y="-9"/>
    </contour>
    <contour>
      <point x="272" y="771" type="line"/>
      <point x="396" y="898" type="line"/>
      <point x="471" y="898" type="line"/>
      <point x="562" y="771" type="line"/>
      <point x="504" y="771" type="line"/>
      <point x="427" y="829" type="line"/>
      <point x="334" y="771" type="line"/>
    </contour>
  </outline>
</glyph>
<glyph name="Udieresis" format="2">
  <advance width="696"/>
  <unicode hex="00DC"/>
  <outline>
    <contour>
      <point x="325" y="-9" type="curve" smooth="yes"/>
      <point x="145" y="-9"/>
      <point x="55" y="90"/>
      <point x="86" y="283" type="curve" smooth="yes"/>
      <point x="155" y="715" type="line"/>
      <point x="242" y="715" type="line"/>
      <point x="173" y="282" type="line" smooth="yes"/>
      <point x="148" y="123"/>
      <point x="203" y="63"/>
      <point x="329" y="63" type="curve" smooth="yes"/>
      <point x="436" y="63"/>
      <point x="501" y="117"/>
      <point x="524" y="261" type="curve" smooth="yes"/>
      <point x="596" y="715" type="line"/>
      <point x="683" y="715" type="line"/>
      <point x="609" y="249" type="line" smooth="yes"/>
      <point x="584" y="93"/>
      <point x="497" y="-9"/>
    </contour>
    <contour>
      <point x="331" y="789" type="curve" smooth="yes"/>
      <point x="302" y="789"/>
      <point x="278" y="812"/>
      <point x="278" y="841" type="curve" smooth="yes"/>
      <point x="278" y="870"/>
      <point x="303" y="895"/>
      <point x="332" y="895" type="curve" smooth="yes"/>
      <point x="361" y="895"/>
      <point x="384" y="872"/>
      <point x="384" y="843" type="curve" smooth="yes"/>
      <point x="384" y="814"/>
      <point x="360" y="789"/>
    </contour>
    <contour>
      <point x="534" y="789" type="curve" smooth="yes"/>
      <point x="505" y="789"/>
      <point x="481" y="812"/>
      <point x="481" y="841" type="curve" smooth="yes"/>
      <point x="481" y="870"/>
      <point x="506" y="895"/>
      <point x="535" y="895" type="curve" smooth="yes"/>
      <point x="564" y="895"/>
      <point x="587" y="872"/>
      <point x="587" y="843" type="curve" smooth="yes"/>
      <point x="587" y="814"/>
      <point x="563" y="789"/>
    </contour>
  </outline>
</glyph>
<glyph name="Yacute" format="2">
  <advance width="592"/>
  <unicode hex="00DD"/>
  <outline>
    <contour>
      <point x="217" y="0" type="line"/>
      <point x="266" y="312" type="line"/>
      <point x="91" y="715" type="line"/>
      <point x="184" y="715" type="line"/>
      <point x="322" y="383" type="line"/>
      <point x="554" y="715" type="line"/>
      <point x="643" y="715" type="line"/>
      <point x="352" y="305" type="line"/>
      <point x="304" y="0" type="line"/>
    </contour>
    <contour>
      <point x="333" y="771" type="line"/>
      <point x="401" y="898" type="line"/>
      <point x="507" y="898" type="line"/>
      <point x="399" y="771" type="line"/>
    </contour>
  </outline>
</glyph>
<glyph name="Thorn" format="2">
  <advance width="581"/>
  <unicode hex="00DE"/>
  <outline>
    <contour>
      <point x="248" y="715" type="line"/>
      <point x="227" y="581" type="line"/>
      <point x="341" y="581" type="line" smooth="yes"/>
      <point x="471" y="581"/>
      <point x="562" y="519"/>
      <point x="561" y="399" type="curve" smooth="yes"/>
      <point x="561" y="229"/>
      <point x="427" y="165"/>
      <point x="293" y="165" type="curve" smooth="yes"/>
      <point x="161" y="165" type="line"/>
      <point x="135" y="0" type="line"/>
      <point x="48" y="0" type="line"/>
      <point x="161" y="715" type="line"/>
    </contour>
    <contour>
      <point x="332" y="511" type="curve" smooth="yes"/>
      <point x="216" y="511" type="line"/>
      <point x="172" y="234" type="line"/>
      <point x="298" y="234" type="line" smooth="yes"/>
      <point x="413" y="234"/>
      <point x="475" y="293"/>
      <point x="475" y="398" type="curve" smooth="yes"/>
      <point x="476" y="476"/>
      <point x="428" y="511"/>
    </contour>
  </outline>
</glyph>
<glyph name="germandbls" format="2">
  <advance width="593"/>
  <unicode hex="00DF"/>
  <outline>
    <contour>
      <point x="315" y="-9" type="curve" smooth="yes"/>
      <point x="265" y="-9"/>
      <point x="230" y="2"/>
      <point x="203" y="16" type="curve"/>
      <point x="214" y="83" type="line"/>
      <point x="243" y="68"/>
      <point x="274" y="59"/>
      <point x="311" y="59" type="curve" smooth="yes"/>
      <point x="405" y="59"/>
      <point x="456" y="132"/>
      <point x="456" y="229" type="curve" smooth="yes"/>
      <point x="456" y="331"/>
      <point x="393" y="393"/>
      <point x="284" y="393" type="curve"/>
      <point x="296" y="463" type="line"/>
      <point x="386" y="463"/>
      <point x="466" y="500"/>
      <point x="466" y="602" type="curve" smooth="yes"/>
      <point x="466" y="670"/>
      <point x="422" y="708"/>
      <point x="351" y="708" type="curve" smooth="yes"/>
      <point x="276" y="708"/>
      <point x="229" y="656"/>
      <point x="216" y="575" type="curve" smooth="yes"/>
      <point x="125" y="0" type="line"/>
      <point x="42" y="0" type="line"/>
      <point x="133" y="580" type="line" smooth="yes"/>
      <point x="152" y="701"/>
      <point x="242" y="775"/>
      <point x="353" y="775" type="curve" smooth="yes"/>
      <point x="452" y="775"/>
      <point x="545" y="716"/>
      <point x="545" y="601" type="curve" smooth="yes"/>
      <point x="545" y="514"/>
      <point x="487" y="452"/>
      <point x="400" y="426" type="curve"/>
      <point x="489" y="397"/>
      <point x="542" y="323"/>
      <point x="542" y="225" type="curve" smooth="yes"/>
      <point x="542" y="83"/>
      <point x="454" y="-9"/>
    </contour>
  </outline>
</glyph>
<glyph name="agrave" format="2">
  <advance width="538"/>
  <unicode hex="00E0"/>
  <outline>
    <contour>
      <point x="197" y="-8" type="curve" smooth="yes"/>
      <point x="90" y="-8"/>
      <point x="28" y="51"/>
      <point x="28" y="140" type="curve" smooth="yes"/>
      <point x="28" y="269"/>
      <point x="145" y="307"/>
      <point x="282" y="307" type="curve" smooth="yes"/>
      <point x="383" y="307" type="line"/>
      <point x="389" y="345" type="line" smooth="yes"/>
      <point x="402" y="425"/>
      <point x="375" y="463"/>
      <point x="291" y="463" type="curve" smooth="yes"/>
      <point x="223" y="463"/>
      <point x="180" y="434"/>
      <point x="166" y="369" type="curve"/>
      <point x="83" y="369" type="line"/>
      <point x="107" y="494"/>
      <point x="210" y="532"/>
      <point x="294" y="532" type="curve" smooth="yes"/>
      <point x="411" y="532"/>
      <point x="493" y="479"/>
      <point x="471" y="338" type="curve" smooth="yes"/>
      <point x="442" y="156" type="line" smooth="yes"/>
      <point x="431" y="88"/>
      <point x="428" y="44"/>
      <point x="433" y="0" type="curve"/>
      <point x="355" y="0" type="line"/>
      <point x="352" y="28"/>
      <point x="352" y="60"/>
      <point x="354" y="83" type="curve"/>
      <point x="317" y="23"/>
      <point x="260" y="-8"/>
    </contour>
    <contour>
      <point x="208" y="57" type="curve" smooth="yes"/>
      <point x="286" y="57"/>
      <point x="350" y="100"/>
      <point x="364" y="191" type="curve" smooth="yes"/>
      <point x="373" y="248" type="line"/>
      <point x="284" y="248" type="line" smooth="yes"/>
      <point x="167" y="248"/>
      <point x="110" y="220"/>
      <point x="110" y="140" type="curve" smooth="yes"/>
      <point x="110" y="94"/>
      <point x="141" y="57"/>
    </contour>
    <contour>
      <point x="282" y="613" type="line"/>
      <point x="194" y="760" type="line"/>
      <point x="296" y="760" type="line"/>
      <point x="343" y="613" type="line"/>
    </contour>
  </outline>
</glyph>
<glyph name="aring" format="2">
  <advance width="538"/>
  <unicode hex="00E5"/>
  <outline>
    <contour>
      <point x="197" y="-8" type="curve" smooth="yes"/>
      <point x="90" y="-8"/>
      <point x="28" y="51"/>
      <point x="28" y="140" type="curve" smooth="yes"/>
      <point x="28" y="269"/>
      <point x="145" y="307"/>
      <point x="282" y="307" type="curve" smooth="yes"/>
      <point x="383" y="307" type="line"/>
      <point x="389" y="345" type="line" smooth="yes"/>
      <point x="402" y="425"/>
      <point x="375" y="463"/>
      <point x="291" y="463" type="curve" smooth="yes"/>
      <point x="223" y="463"/>
      <point x="180" y="434"/>
      <point x="166" y="369" type="curve"/>
      <point x="83" y="369" type="line"/>
      <point x="107" y="494"/>
      <point x="210" y="532"/>
      <point x="294" y="532" type="curve" smooth="yes"/>
      <point x="411" y="532"/>
      <point x="493" y="479"/>
      <point x="471" y="338" type="curve" smooth="yes"/>
      <point x="442" y="156" type="line" smooth="yes"/>
      <point x="431" y="88"/>
      <point x="428" y="44"/>
      <point x="433" y="0" type="curve"/>
      <point x="355" y="0" type="line"/>
      <point x="352" y="28"/>
      <point x="352" y="60"/>
      <point x="354" y="83" type="curve"/>
      <point x="317" y="23"/>
      <point x="260" y="-8"/>
    </contour>
    <contour>
      <point x="208" y="57" type="curve" smooth="yes"/>
      <point x="286" y="57"/>
      <point x="350" y="100"/>
      <point x="364" y="191" type="curve" smooth="yes"/>
      <point x="373" y="248" type="line"/>
      <point x="284" y="248" type="line" smooth="yes"/>
      <point x="167" y="248"/>
      <point x="110" y="220"/>
      <point x="110" y="140" type="curve" smooth="yes"/>
      <point x="110" y="94"/>
      <point x="141" y="57"/>
    </contour>
    <contour>
      <point x="324" y="644" type="curve" smooth="yes"/>
      <point x="355" y="644"/>
      <point x="379" y="669"/>
      <point x="379" y="704" type="curve" smooth="yes"/>
      <point x="379" y="737"/>
      <point x="359" y="760"/>
      <point x="328" y="760" type="curve" smooth="yes"/>
      <point x="297" y="760"/>
      <point x="273" y="735"/>
      <point x="273" y="700" type="curve" smooth="yes"/>
      <point x="273" y="667"/>
      <point x="293" y="644"/>
    </contour>
    <contour>
      <point x="324" y="598" type="curve" smooth="yes"/>
      <point x="265" y="598"/>
      <point x="219" y="643"/>
      <point x="219" y="700" type="curve" smooth="yes"/>
      <point x="219" y="759"/>
      <point x="269" y="806"/>
      <point x="328" y="806" type="curve" smooth="yes"/>
      <point x="387" y="806"/>
      <point x="433" y="761"/>
      <point x="433" y="704" type="curve" smooth="yes"/>
      <point x="433" y="645"/>
      <point x="383" y="598"/>
    </contour>
  </outline>
</glyph>
<glyph name="ae" format="2">
  <advance width="875"/>
  <unicode hex="00E6"/>
  <outline>
    <contour>
      <point x="458" y="211" type="curve" smooth="yes"/>
      <point x="458" y="116"/>
      <point x="496" y="60"/>
      <point x="596" y="60" type="curve" smooth="yes"/>
      <point x="669" y="60"/>
      <point x="715" y="91"/>
      <point x="735" y="151" type="curve"/>
      <point x="816" y="151" type="line"/>
      <point x="784" y="43"/>
      <point x="699" y="-9"/>
      <point x="593" y="-9" type="curve" smooth="yes"/>
      <point x="493" y="-9"/>
      <point x="428" y="37"/>
      <point x="397" y="109" type="curve"/>
      <point x="357" y="34"/>
      <point x="286" y="-8"/>
      <point x="199" y="-8" type="curve" smooth="yes"/>
      <point x="89" y="-8"/>
      <point x="28" y="45"/>
      <point x="28" y="134" type="curve" smooth="yes"/>
      <point x="28" y="263"/>
      <point x="149" y="310"/>
      <point x="287" y="310" type="curve" smooth="yes"/>
      <point x="384" y="310" type="line"/>
      <point x="390" y="345" type="line" smooth="yes"/>
      <point x="403" y="425"/>
      <point x="375" y="463"/>
      <point x="291" y="463" type="curve" smooth="yes"/>
      <point x="223" y="463"/>
      <point x="180" y="434"/>
      <point x="166" y="369" type="curve"/>
      <point x="83" y="369" type="line"/>
      <point x="107" y="494"/>
      <point x="210" y="532"/>
      <point x="294" y="532" type="curve" smooth="yes"/>
      <point x="374" y="532"/>
      <point x="434" y="507"/>
      <point x="457" y="446" type="curve"/>
      <point x="503" y="499"/>
      <point x="567" y="531"/>
      <point x="640" y="531" type="curve" smooth="yes"/>
      <point x="782" y="531"/>
      <point x="864" y="443"/>
      <point x="836" y="264" type="curve" smooth="yes"/>
      <point x="833" y="247" type="line"/>
      <point x="459" y="247" type="line"/>
      <point x="458" y="235"/>
      <point x="458" y="223"/>
    </contour>
    <contour>
      <point x="206" y="57" type="curve" smooth="yes"/>
      <point x="287" y="57"/>
      <point x="351" y="100"/>
      <point x="365" y="191" type="curve" smooth="yes"/>
      <point x="374" y="247" type="line"/>
      <point x="284" y="247" type="line" smooth="yes"/>
      <point x="168" y="247"/>
      <point x="110" y="217"/>
      <point x="110" y="137" type="curve" smooth="yes"/>
      <point x="110" y="91"/>
      <point x="141" y="57"/>
    </contour>
    <contour>
      <point x="635" y="463" type="curve" smooth="yes"/>
      <point x="560" y="463"/>
      <point x="493" y="419"/>
      <point x="468" y="310" type="curve"/>
      <point x="759" y="310" type="line"/>
      <point x="767" y="415"/>
      <point x="730" y="463"/>
    </contour>
  </outline>
</glyph>
<glyph name="ccedilla" format="2">
  <advance width="554"/>
  <unicode hex="00E7"/>
  <outline>
    <contour>
      <point x="209" y="-214" type="curve" smooth="yes"/>
      <point x="157" y="-214"/>
      <point x="115" y="-187"/>
      <point x="110" y="-130" type="curve"/>
      <point x="166" y="-130" type="line"/>
      <point x="168" y="-150"/>
      <point x="183" y="-166"/>
      <point x="208" y="-166" type="curve" smooth="yes"/>
      <point x="229" y="-166"/>
      <point x="248" y="-156"/>
      <point x="248" y="-128" type="curve" smooth="yes"/>
      <point x="248" y="-108"/>
      <point x="233" y="-96"/>
      <point x="213" y="-96" type="curve" smooth="yes"/>
      <point x="201" y="-96"/>
      <point x="193" y="-100"/>
      <point x="187" y="-104" type="curve"/>
      <point x="160" y="-74" type="line"/>
      <point x="216" y="-1" type="line"/>
      <point x="101" y="22"/>
      <point x="39" y="111"/>
      <point x="39" y="230" type="curve" smooth="yes"/>
      <point x="39" y="423"/>
      <point x="168" y="531"/>
      <point x="310" y="531" type="curve" smooth="yes"/>
      <point x="425" y="531"/>
      <point x="515" y="474"/>
      <point x="522" y="347" type="curve"/>
      <point x="443" y="347" type="line"/>
      <point x="433" y="437"/>
      <point x="379" y="462"/>
      <point x="306" y="462" type="curve" smooth="yes"/>
      <point x="202" y="462"/>
      <point x="124" y="381"/>
      <point x="124" y="230" type="curve" smooth="yes"/>
      <point x="124" y="120"/>
      <point x="178" y="60"/>
      <point x="285" y="60" type="curve" smooth="yes"/>
      <point x="358" y="60"/>
      <point x="422" y="105"/>
      <point x="436" y="186" type="curve"/>
      <point x="514" y="186" type="line"/>
      <point x="492" y="62"/>
      <point x="399" y="-8"/>
      <point x="283" y="-8" type="curve" smooth="yes"/>
      <point x="263" y="-8" type="line"/>
      <point x="230" y="-53" type="line"/>
      <point x="270" y="-49"/>
      <point x="311" y="-74"/>
      <point x="311" y="-125" type="curve" smooth="yes"/>
      <point x="311" y="-183"/>
      <point x="270" y="-214"/>
    </contour>
  </outline>
</glyph>
<glyph name="egrave" format="2">
  <advance width="553"/>
  <unicode hex="00E8"/>
  <outline>
    <contour>
      <point x="123" y="211" type="curve" smooth="yes"/>
      <point x="123" y="116"/>
      <point x="167" y="60"/>
      <point x="267" y="60" type="curve" smooth="yes"/>
      <point x="340" y="60"/>
      <point x="391" y="91"/>
      <point x="411" y="151" type="curve"/>
      <point x="494" y="151" type="line"/>
      <point x="462" y="43"/>
      <point x="370" y="-9"/>
      <point x="264" y="-9" type="curve" smooth="yes"/>
      <point x="122" y="-9"/>
      <point x="38" y="84"/>
      <point x="38" y="215" type="curve" smooth="yes"/>
      <point x="38" y="400"/>
      <point x="157" y="531"/>
      <point x="311" y="531" type="curve" smooth="yes"/>
      <point x="453" y="531"/>
      <point x="542" y="443"/>
      <point x="514" y="264" type="curve" smooth="yes"/>
      <point x="511" y="245" type="line"/>
      <point x="124" y="245" type="line"/>
      <point x="123" y="234"/>
      <point x="123" y="223"/>
    </contour>
    <contour>
      <point x="306" y="463" type="curve" smooth="yes"/>
      <point x="232" y="463"/>
      <point x="160" y="419"/>
      <point x="134" y="312" type="curve"/>
      <point x="437" y="312" type="line"/>
      <point x="445" y="417"/>
      <point x="401" y="463"/>
    </contour>
    <contour>
      <point x="294" y="613" type="line"/>
      <point x="206" y="760" type="line"/>
      <point x="308" y="760" type="line"/>
      <point x="355" y="613" type="line"/>
    </contour>
  </outline>
</glyph>
<glyph name="edieresis" format="2">
  <advance width="553"/>
  <unicode hex="00EB"/>
  <outline>
    <contour>
      <point x="123" y="211" type="curve" smooth="yes"/>
      <point x="123" y="116"/>
      <point x="167" y="60"/>
      <point x="267" y="60" type="curve" smooth="yes"/>
      <point x="340" y="60"/>
      <point x="391" y="91"/>
      <point x="411" y="151" type="curve"/>
      <point x="494" y="151" type="line"/>
      <point x="462" y="43"/>
      <point x="370" y="-9"/>
      <point x="264" y="-9" type="curve" smooth="yes"/>
      <point x="122" y="-9"/>
      <point x="38" y="84"/>
      <point x="38" y="215" type="curve" smooth="yes"/>
      <point x="38" y="400"/>
      <point x="157" y="531"/>
      <point x="311" y="531" type="curve" smooth="yes"/>
      <point x="453" y="531"/>
      <point x="542" y="443"/>
      <point x="514" y="264" type="curve" smooth="yes"/>
      <point x="511" y="245" type="line"/>
      <point x="124" y="245" type="line"/>
      <point x="123" y="234"/>
      <point x="123" y="223"/>
    </contour>
    <contour>
      <point x="306" y="463" type="curve" smooth="yes"/>
      <point x="232" y="463"/>
      <point x="160" y="419"/>
      <point x="134" y="312" type="curve"/>
      <point x="437" y="312" type="line"/>
      <point x="445" y="417"/>
      <point x="401" y="463"/>
    </contour>
    <contour>
      <point x="241" y="634" type="curve" smooth="yes"/>
      <point x="212" y="634"/>
      <point x="188" y="657"/>
      <point x="188" y="686" type="curve" smooth="yes"/>
      <point x="188" y="715"/>
      <point x="213" y="740"/>
      <point x="242" y="740" type="curve" smooth="yes"/>
      <point x="271" y="740"/>
      <point x="294" y="717"/>
      <point x="294" y="688" type="curve" smooth="yes"/>
      <point x="294" y="659"/>
      <point x="270" y="634"/>
    </contour>
    <contour>
      <point x="429" y="634" type="curve" smooth="yes"/>
      <point x="400" y="634"/>
      <point x="376" y="657"/>
      <point x="376" y="686" type="curve" smooth="yes"/>
      <point x="376" y="715"/>
      <point x="401" y="740"/>
      <point x="430" y="740" type="curve" smooth="yes"/>
      <point x="459" y="740"/>
      <point x="482" y="717"/>
      <point x="482" y="688" type="curve" smooth="yes"/>
      <point x="482" y="659"/>
      <point x="458" y="634"/>
    </contour>
  </outline>
</glyph>
<glyph name="igrave" format="2">
  <advance width="255"/>
  <unicode hex="00EC"/>
  <outline>
    <contour>
      <point x="44" y="0" type="line"/>
      <point x="127" y="523" type="line"/>
      <point x="210" y="523" type="line"/>
      <point x="127" y="0" type="line"/>
    </contour>
    <contour>
      <point x="153" y="613" type="line"/>
      <point x="65" y="760" type="line"/>
      <point x="167" y="760" type="line"/>
      <point x="214" y="613" type="line"/>
    </contour>
  </outline>
</glyph>
<glyph name="icircumflex" format="2">
  <advance width="255"/>
  <unicode hex="00EE"/>
  <outline>
    <contour>
      <point x="44" y="0" type="line"/>
      <point x="127" y="523" type="line"/>
      <point x="210" y="523" type="line"/>
      <point x="127" y="0" type="line"/>
    </contour>
    <contour>
      <point x="28" y="613" type="line"/>
      <point x="157" y="757" type="line"/>
      <point x="232" y="757" type="line"/>
      <point x="318" y="613" type="line"/>
      <point x="260" y="613" type="line"/>
      <point x="186" y="688" type="line"/>
      <point x="90" y="613" type="line"/>
    </contour>
  </outline>
</glyph>
<glyph name="idieresis" format="2">
  <advance width="255"/>
  <unicode hex="00EF"/>
  <outline>
    <contour>
      <point x="105" y="634" type="curve" smooth="yes"/>
      <point x="76" y="634"/>
      <point x="52" y="657"/>
      <point x="52" y="686" type="curve" smooth="yes"/>
      <point x="52" y="715"/>
      <point x="77" y="740"/>
      <point x="106" y="740" type="curve" smooth="yes"/>
      <point x="135" y="740"/>
      <point x="158" y="717"/>
      <point x="158" y="688" type="curve" smooth="yes"/>
      <point x="158" y="659"/>
      <point x="134" y="634"/>
    </contour>
    <contour>
      <point x="283" y="634" type="curve" smooth="yes"/>
      <point x="254" y="634"/>
      <point x="230" y="657"/>
      <point x="230" y="686" type="curve" smooth="yes"/>
      <point x="230" y="715"/>
      <point x="255" y="740"/>
      <point x="284" y="740" type="curve" smooth="yes"/>
      <point x="313" y="740"/>
      <point x="336" y="717"/>
      <point x="336" y="688" type="curve" smooth="yes"/>
      <point x="336" y="659"/>
      <point x="312" y="634"/>
    </contour>
    <contour>
      <point x="44" y="0" type="line"/>
      <point x="127" y="523" type="line"/>
      <point x="210" y="523" type="line"/>
      <point x="127" y="0" type="line"/>
    </contour>
  </outline>
</glyph>
<glyph name="eth" format="2">
  <advance width="592"/>
  <unicode hex="00F0"/>
  <outline>
    <contour>
      <point x="227" y="574" type="line"/>
      <point x="201" y="619" type="line"/>
      <point x="310" y="678" type="line"/>
      <point x="276" y="712"/>
      <point x="237" y="743"/>
      <point x="195" y="773" type="curve"/>
      <point x="301" y="773" type="line"/>
      <point x="326" y="758"/>
      <point x="352" y="738"/>
      <point x="378" y="714" type="curve"/>
      <point x="471" y="765" type="line"/>
      <point x="497" y="719" type="line"/>
      <point x="415" y="675" type="line"/>
      <point x="489" y="590"/>
      <point x="550" y="470"/>
      <point x="550" y="330" type="curve" smooth="yes"/>
      <point x="550" y="139"/>
      <point x="448" y="-9"/>
      <point x="268" y="-9" type="curve" smooth="yes"/>
      <point x="133" y="-9"/>
      <point x="38" y="84"/>
      <point x="38" y="225" type="curve" smooth="yes"/>
      <point x="38" y="379"/>
      <point x="144" y="532"/>
      <point x="304" y="532" type="curve" smooth="yes"/>
      <point x="369" y="532"/>
      <point x="420" y="507"/>
      <point x="454" y="452" type="curve"/>
      <point x="427" y="524"/>
      <point x="392" y="585"/>
      <point x="347" y="638" type="curve"/>
    </contour>
    <contour>
      <point x="124" y="222" type="curve" smooth="yes"/>
      <point x="124" y="137"/>
      <point x="165" y="60"/>
      <point x="270" y="60" type="curve" smooth="yes"/>
      <point x="393" y="60"/>
      <point x="463" y="171"/>
      <point x="463" y="299" type="curve" smooth="yes"/>
      <point x="463" y="383"/>
      <point x="422" y="463"/>
      <point x="313" y="463" type="curve" smooth="yes"/>
      <point x="192" y="463"/>
      <point x="124" y="349"/>
    </contour>
  </outline>
</glyph>
<glyph name="ntilde" format="2">
  <advance width="592"/>
  <unicode hex="00F1"/>
  <outline>
    <contour>
      <point x="42" y="0" type="line"/>
      <point x="100" y="367" type="line" smooth="yes"/>
      <point x="111" y="438"/>
      <point x="113" y="479"/>
      <point x="114" y="523" type="curve"/>
      <point x="192" y="523" type="line"/>
      <point x="192" y="494"/>
      <point x="190" y="454"/>
      <point x="186" y="419" type="curve"/>
      <point x="222" y="482"/>
      <point x="284" y="532"/>
      <point x="369" y="532" type="curve" smooth="yes"/>
      <point x="478" y="532"/>
      <point x="546" y="471"/>
      <point x="521" y="313" type="curve" smooth="yes"/>
      <point x="471" y="0" type="line"/>
      <point x="388" y="0" type="line"/>
      <point x="441" y="332" type="line" smooth="yes"/>
      <point x="455" y="419"/>
      <point x="424" y="461"/>
      <point x="351" y="461" type="curve" smooth="yes"/>
      <point x="264" y="461"/>
      <point x="189" y="403"/>
      <point x="173" y="304" type="curve" smooth="yes"/>
      <point x="125" y="0" type="line"/>
    </contour>
    <contour>
      <point x="409" y="619" type="curve" smooth="yes"/>
      <point x="362" y="619"/>
      <point x="327" y="662"/>
      <point x="298" y="662" type="curve" smooth="yes"/>
      <point x="279" y="662"/>
      <point x="259" y="645"/>
      <point x="252" y="617" type="curve"/>
      <point x="192" y="617" type="line"/>
      <point x="206" y="690"/>
      <point x="247" y="733"/>
      <point x="299" y="733" type="curve" smooth="yes"/>
      <point x="345" y="733"/>
      <point x="380" y="690"/>
      <point x="409" y="690" type="curve" smooth="yes"/>
      <point x="428" y="690"/>
      <point x="447" y="707"/>
      <point x="454" y="735" type="curve"/>
      <point x="514" y="735" type="line"/>
      <point x="500" y="662"/>
      <point x="460" y="619"/>
    </contour>
  </outline>
</glyph>
<glyph name="ocircumflex" format="2">
  <advance width="589"/>
  <unicode hex="00F4"/>
  <outline>
    <contour>
      <point x="271" y="-8" type="curve" smooth="yes"/>
      <point x="126" y="-8"/>
      <point x="38" y="91"/>
      <point x="38" y="224" type="curve" smooth="yes"/>
      <point x="38" y="399"/>
      <point x="159" y="531"/>
      <point x="316" y="531" type="curve" smooth="yes"/>
      <point x="461" y="531"/>
      <point x="550" y="436"/>
      <point x="550" y="301" type="curve" smooth="yes"/>
      <point x="550" y="123"/>
      <point x="435" y="-8"/>
    </contour>
    <contour>
      <point x="275" y="60" type="curve" smooth="yes"/>
      <point x="393" y="60"/>
      <point x="463" y="163"/>
      <point x="463" y="299" type="curve" smooth="yes"/>
      <point x="463" y="398"/>
      <point x="411" y="463"/>
      <point x="311" y="463" type="curve" smooth="yes"/>
      <point x="199" y="463"/>
      <point x="124" y="360"/>
      <point x="124" y="224" type="curve" smooth="yes"/>
      <point x="124" y="125"/>
      <point x="173" y="60"/>
    </contour>
    <contour>
      <point x="182" y="613" type="line"/>
      <point x="311" y="757" type="line"/>
      <point x="386" y="757" type="line"/>
      <point x="472" y="613" type="line"/>
      <point x="414" y="613" type="line"/>
      <point x="340" y="688" type="line"/>
      <point x="244" y="613" type="line"/>
    </contour>
  </outline>
</glyph>
<glyph name="odieresis" format="2">
  <advance width="589"/>
  <unicode hex="00F6"/>
  <outline>
    <contour>
      <point x="271" y="-8" type="curve" smooth="yes"/>
      <point x="126" y="-8"/>
      <point x="38" y="91"/>
      <point x="38" y="224" type="curve" smooth="yes"/>
      <point x="38" y="399"/>
      <point x="159" y="531"/>
      <point x="316" y="531" type="curve" smooth="yes"/>
      <point x="461" y="531"/>
      <point x="550" y="436"/>
      <point x="550" y="301" type="curve" smooth="yes"/>
      <point x="550" y="123"/>
      <point x="435" y="-8"/>
    </contour>
    <contour>
      <point x="275" y="60" type="curve" smooth="yes"/>
      <point x="393" y="60"/>
      <point x="463" y="163"/>
      <point x="463" y="299" type="curve" smooth="yes"/>
      <point x="463" y="398"/>
      <point x="411" y="463"/>
      <point x="311" y="463" type="curve" smooth="yes"/>
      <point x="199" y="463"/>
      <point x="124" y="360"/>
      <point x="124" y="224" type="curve" smooth="yes"/>
      <point x="124" y="125"/>
      <point x="173" y="60"/>
    </contour>
    <contour>
      <point x="246" y="634" type="curve" smooth="yes"/>
      <point x="217" y="634"/>
      <point x="193" y="657"/>
      <point x="193" y="686" type="curve" smooth="yes"/>
      <point x="193" y="715"/>
      <point x="218" y="740"/>
      <point x="247" y="740" type="curve" smooth="yes"/>
      <point x="276" y="740"/>
      <point x="299" y="717"/>
      <point x="299" y="688" type="curve" smooth="yes"/>
      <point x="299" y="659"/>
      <point x="275" y="634"/>
    </contour>
    <contour>
      <point x="434" y="634" type="curve" smooth="yes"/>
      <point x="405" y="634"/>
      <point x="381" y="657"/>
      <point x="381" y="686" type="curve" smooth="yes"/>
      <point x="381" y="715"/>
      <point x="406" y="740"/>
      <point x="435" y="740" type="curve" smooth="yes"/>
      <point x="464" y="740"/>
      <point x="487" y="717"/>
      <point x="487" y="688" type="curve" smooth="yes"/>
      <point x="487" y="659"/>
      <point x="463" y="634"/>
    </contour>
  </outline>
</glyph>
<glyph name="divide" format="2">
  <advance width="519"/>
  <unicode hex="00F7"/>
  <outline>
    <contour>
      <point x="42" y="307" type="line"/>
      <point x="53" y="377" type="line"/>
      <point x="500" y="377" type="line"/>
      <point x="489" y="307" type="line"/>
    </contour>
    <contour>
      <point x="247" y="89" type="curve" smooth="yes"/>
      <point x="212" y="89"/>
      <point x="183" y="117"/>
      <point x="183" y="153" type="curve" smooth="yes"/>
      <point x="183" y="189"/>
      <point x="212" y="217"/>
      <point x="247" y="217" type="curve" smooth="yes"/>
      <point x="282" y="217"/>
      <point x="311" y="189"/>
      <point x="311" y="153" type="curve" smooth="yes"/>
      <point x="311" y="117"/>
      <point x="282" y="89"/>
    </contour>
    <contour>
      <point x="295" y="467" type="curve" smooth="yes"/>
      <point x="260" y="467"/>
      <point x="231" y="495"/>
      <point x="231" y="531" type="curve" smooth="yes"/>
      <point x="231" y="567"/>
      <point x="260" y="595"/>
      <point x="295" y="595" type="curve" smooth="yes"/>
      <point x="330" y="595"/>
      <point x="359" y="567"/>
      <point x="359" y="531" type="curve" smooth="yes"/>
      <point x="359" y="495"/>
      <point x="330" y="467"/>
    </contour>
  </outline>
</glyph>
<glyph name="oslash" format="2">
  <advance width="589"/>
  <unicode hex="00F8"/>
  <outline>
    <contour>
      <point x="51" y="-37" type="line"/>
      <point x="11" y="1" type="line"/>
      <point x="83" y="78" type="line"/>
      <point x="54" y="117"/>
      <point x="38" y="167"/>
      <point x="38" y="224" type="curve" smooth="yes"/>
      <point x="38" y="399"/>
      <point x="159" y="531"/>
      <point x="316" y="531" type="curve" smooth="yes"/>
      <point x="375" y="531"/>
      <point x="426" y="514"/>
      <point x="465" y="484" type="curve"/>
      <point x="532" y="556" type="line"/>
      <point x="573" y="518" type="line"/>
      <point x="504" y="445" type="line"/>
      <point x="534" y="407"/>
      <point x="550" y="357"/>
      <point x="550" y="301" type="curve" smooth="yes"/>
      <point x="550" y="123"/>
      <point x="435" y="-8"/>
      <point x="271" y="-8" type="curve" smooth="yes"/>
      <point x="211" y="-8"/>
      <point x="161" y="9"/>
      <point x="122" y="39" type="curve"/>
    </contour>
    <contour>
      <point x="275" y="60" type="curve" smooth="yes"/>
      <point x="393" y="60"/>
      <point x="463" y="163"/>
      <point x="463" y="299" type="curve" smooth="yes"/>
      <point x="463" y="331"/>
      <point x="458" y="360"/>
      <point x="447" y="384" type="curve"/>
      <point x="172" y="91" type="line"/>
      <point x="196" y="71"/>
      <point x="230" y="60"/>
    </contour>
    <contour>
      <point x="124" y="224" type="curve" smooth="yes"/>
      <point x="124" y="191"/>
      <point x="128" y="162"/>
      <point x="139" y="137" type="curve"/>
      <point x="414" y="430" type="line"/>
      <point x="390" y="451"/>
      <point x="356" y="463"/>
      <point x="311" y="463" type="curve" smooth="yes"/>
      <point x="199" y="463"/>
      <point x="124" y="360"/>
    </contour>
  </outline>
</glyph>
<glyph name="thorn" format="2">
  <advance width="631"/>
  <unicode hex="00FE"/>
  <outline>
    <contour>
      <point x="13" y="-182" type="line"/>
      <point x="164" y="773" type="line"/>
      <point x="247" y="773" type="line"/>
      <point x="193" y="431" type="line"/>
      <point x="228" y="489"/>
      <point x="299" y="532"/>
      <point x="376" y="532" type="curve" smooth="yes"/>
      <point x="498" y="532"/>
      <point x="586" y="442"/>
      <point x="586" y="302" type="curve" smooth="yes"/>
      <point x="586" y="134"/>
      <point x="489" y="-9"/>
      <point x="325" y="-9" type="curve" smooth="yes"/>
      <point x="219" y="-9"/>
      <point x="164" y="47"/>
      <point x="141" y="98" type="curve"/>
      <point x="96" y="-182" type="line"/>
    </contour>
    <contour>
      <point x="320" y="59" type="curve" smooth="yes"/>
      <point x="434" y="59"/>
      <point x="498" y="161"/>
      <point x="498" y="297" type="curve" smooth="yes"/>
      <point x="498" y="404"/>
      <point x="445" y="464"/>
      <point x="360" y="464" type="curve" smooth="yes"/>
      <point x="247" y="464"/>
      <point x="159" y="372"/>
      <point x="159" y="222" type="curve" smooth="yes"/>
      <point x="159" y="121"/>
      <point x="221" y="59"/>
    </contour>
  </outline>
</glyph>
<glyph name="ydieresis" format="2">
  <advance width="505"/>
  <unicode hex="00FF"/>
  <outline>
    <contour>
      <point x="44" y="-182" type="line"/>
      <point x="184" y="59" type="line"/>
      <point x="60" y="523" type="line"/>
      <point x="145" y="523" type="line"/>
      <point x="239" y="148" type="line"/>
      <point x="438" y="523" type="line"/>
      <point x="527" y="523" type="line"/>
      <point x="132" y="-182" type="line"/>
    </contour>
    <contour>
      <point x="223" y="634" type="curve" smooth="yes"/>
      <point x="194" y="634"/>
      <point x="170" y="657"/>
      <point x="170" y="686" type="curve" smooth="yes"/>
      <point x="170" y="715"/>
      <point x="195" y="740"/>
      <point x="224" y="740" type="curve" smooth="yes"/>
      <point x="253" y="740"/>
      <point x="276" y="717"/>
      <point x="276" y="688" type="curve" smooth="yes"/>
      <point x="276" y="659"/>
      <point x="252" y="634"/>
    </contour>
    <contour>
      <point x="411" y="634" type="curve" smooth="yes"/>
      <point x="382" y="634"/>
      <point x="358" y="657"/>
      <point x="358" y="686" type="curve" smooth="yes"/>
      <point x="358" y="715"/>
      <point x="383" y="740"/>
      <point x="412" y="740" type="curve" smooth="yes"/>
      <point x="441" y="740"/>
      <point x="464" y="717"/>
      <point x="464" y="688" type="curve" smooth="yes"/>
      <point x="464" y="659"/>
      <point x="440" y="634"/>
    </contour>
  </outline>
</glyph>
<glyph name="Amacron" format="2">
  <advance width="650"/>
  <unicode hex="0100"/>
  <outline>
    <contour>
      <point x="500" y="0" type="line"/>
      <point x="463" y="206" type="line"/>
      <point x="168" y="206" type="line"/>
      <point x="66" y="0" type="line"/>
      <point x="-18" y="0" type="line"/>
      <point x="341" y="715" type="line"/>
      <point x="455" y="715" type="line"/>
      <point x="584" y="0" type="line"/>
    </contour>
    <contour>
      <point x="384" y="643" type="line"/>
      <point x="202" y="275" type="line"/>
      <point x="450" y="275" type="line"/>
    </contour>
    <contour>
      <point x="273" y="786" type="line"/>
      <point x="283" y="850" type="line"/>
      <point x="549" y="850" type="line"/>
      <point x="539" y="786" type="line"/>
    </contour>
  </outline>
</glyph>
<glyph name="Abreve" format="2">
  <advance width="650"/>
  <unicode hex="0102"/>
  <outline>
    <contour>
      <point x="500" y="0" type="line"/>
      <point x="463" y="206" type="line"/>
      <point x="168" y="206" type="line"/>
      <point x="66" y="0" type="line"/>
      <point x="-18" y="0" type="line"/>
      <point x="341" y="715" type="line"/>
      <point x="455" y="715" type="line"/>
      <point x="584" y="0" type="line"/>
    </contour>
    <contour>
      <point x="384" y="643" type="line"/>
      <point x="202" y="275" type="line"/>
      <point x="450" y="275" type="line"/>
    </contour>
    <contour>
      <point x="406" y="767" type="curve" smooth="yes"/>
      <point x="332" y="767"/>
      <point x="276" y="820"/>
      <point x="276" y="899" type="curve"/>
      <point x="342" y="899" type="line"/>
      <point x="347" y="857"/>
      <point x="367" y="835"/>
      <point x="407" y="835" type="curve" smooth="yes"/>
      <point x="449" y="835"/>
      <point x="472" y="857"/>
      <point x="480" y="899" type="curve"/>
      <point x="544" y="899" type="line"/>
      <point x="538" y="821"/>
      <point x="476" y="767"/>
    </contour>
  </outline>
</glyph>
<glyph name="Aogonek" format="2">
  <advance width="650"/>
  <unicode hex="0104"/>
  <outline>
    <contour>
      <point x="418" y="-101" type="curve" smooth="yes"/>
      <point x="418" y="-54"/>
      <point x="460" y="-22"/>
      <point x="500" y="-2" type="curve"/>
      <point x="463" y="206" type="line"/>
      <point x="168" y="206" type="line"/>
      <point x="66" y="0" type="line"/>
      <point x="-18" y="0" type="line"/>
      <point x="341" y="715" type="line"/>
      <point x="455" y="715" type="line"/>
      <point x="584" y="0" type="line"/>
      <point x="552" y="-19"/>
      <point x="499" y="-45"/>
      <point x="499" y="-91" type="curve" smooth="yes"/>
      <point x="499" y="-112"/>
      <point x="511" y="-122"/>
      <point x="536" y="-122" type="curve" smooth="yes"/>
      <point x="552" y="-122"/>
      <point x="570" y="-118"/>
      <point x="584" y="-112" type="curve"/>
      <point x="575" y="-171" type="line"/>
      <point x="562" y="-176"/>
      <point x="544" y="-182"/>
      <point x="517" y="-182" type="curve" smooth="yes"/>
      <point x="464" y="-182"/>
      <point x="417" y="-159"/>
    </contour>
    <contour>
      <point x="384" y="643" type="line"/>
      <point x="202" y="275" type="line"/>
      <point x="450" y="275" type="line"/>
    </contour>
  </outline>
</glyph>
<glyph name="ccircumflex" format="2">
  <advance width="554"/>
  <unicode hex="0109"/>
  <outline>
    <contour>
      <point x="283" y="-8" type="curve" smooth="yes"/>
      <point x="126" y="-8"/>
      <point x="39" y="90"/>
      <point x="39" y="230" type="curve" smooth="yes"/>
      <point x="39" y="423"/>
      <point x="168" y="531"/>
      <point x="310" y="531" type="curve" smooth="yes"/>
      <point x="425" y="531"/>
      <point x="515" y="474"/>
      <point x="522" y="347" type="curve"/>
      <point x="443" y="347" type="line"/>
      <point x="433" y="437"/>
      <point x="379" y="462"/>
      <point x="306" y="462" type="curve" smooth="yes"/>
      <point x="202" y="462"/>
      <point x="124" y="381"/>
      <point x="124" y="230" type="curve" smooth="yes"/>
      <point x="124" y="120"/>
      <point x="178" y="60"/>
      <point x="285" y="60" type="curve" smooth="yes"/>
      <point x="358" y="60"/>
      <point x="422" y="105"/>
      <point x="436" y="186" type="curve"/>
      <point x="514" y="186" type="line"/>
      <point x="492" y="62"/>
      <point x="399" y="-8"/>
    </contour>
    <contour>
      <point x="172" y="613" type="line"/>
      <point x="301" y="757" type="line"/>
      <point x="376" y="757" type="line"/>
      <point x="462" y="613" type="line"/>
      <point x="404" y="613" type="line"/>
      <point x="330" y="688" type="line"/>
      <point x="234" y="613" type="line"/>
    </contour>
  </outline>
</glyph>
<glyph name="cdotaccent" format="2">
  <advance width="554"/>
  <unicode hex="010B"/>
  <outline>
    <contour>
      <point x="283" y="-8" type="curve" smooth="yes"/>
      <point x="126" y="-8"/>
      <point x="39" y="90"/>
      <point x="39" y="230" type="curve" smooth="yes"/>
      <point x="39" y="423"/>
      <point x="168" y="531"/>
      <point x="310" y="531" type="curve" smooth="yes"/>
      <point x="425" y="531"/>
      <point x="515" y="474"/>
      <point x="522" y="347" type="curve"/>
      <point x="443" y="347" type="line"/>
      <point x="433" y="437"/>
      <point x="379" y="462"/>
      <point x="306" y="462" type="curve" smooth="yes"/>
      <point x="202" y="462"/>
      <point x="124" y="381"/>
      <point x="124" y="230" type="curve" smooth="yes"/>
      <point x="124" y="120"/>
      <point x="178" y="60"/>
      <point x="285" y="60" type="curve" smooth="yes"/>
      <point x="358" y="60"/>
      <point x="422" y="105"/>
      <point x="436" y="186" type="curve"/>
      <point x="514" y="186" type="line"/>
      <point x="492" y="62"/>
      <point x="399" y="-8"/>
    </contour>
    <contour>
      <point x="340" y="632" type="curve" smooth="yes"/>
      <point x="310" y="632"/>
      <point x="285" y="656"/>
      <point x="285" y="686" type="curve" smooth="yes"/>
      <point x="285" y="716"/>
      <point x="311" y="742"/>
      <point x="341" y="742" type="curve" smooth="yes"/>
      <point x="371" y="742"/>
      <point x="395" y="718"/>
      <point x="395" y="688" type="curve" smooth="yes"/>
      <point x="395" y="658"/>
      <point x="370" y="632"/>
    </contour>
  </outline>
</glyph>
<glyph name="dcaron" format="2">
  <advance width="622"/>
  <unicode hex="010F"/>
  <outline>
    <contour>
      <point x="261" y="-9" type="curve" smooth="yes"/>
      <point x="131" y="-9"/>
      <point x="40" y="81"/>
      <point x="40" y="222" type="curve" smooth="yes"/>
      <point x="40" y="389"/>
      <point x="143" y="532"/>
      <point x="311" y="532" type="curve" smooth="yes"/>
      <point x="411" y="532"/>
      <point x="462" y="478"/>
      <point x="486" y="428" type="curve"/>
      <point x="540" y="773" type="line"/>
      <point x="623" y="773" type="line"/>
      <point x="526" y="156" type="line" smooth="yes"/>
      <point x="515" y="85"/>
      <point x="513" y="43"/>
      <point x="515" y="0" type="curve"/>
      <point x="436" y="0" type="line"/>
      <point x="434" y="30"/>
      <point x="436" y="65"/>
      <point x="440" y="95" type="curve"/>
      <point x="403" y="33"/>
      <point x="338" y="-9"/>
    </contour>
    <contour>
      <point x="271" y="60" type="curve" smooth="yes"/>
      <point x="382" y="60"/>
      <point x="467" y="141"/>
      <point x="467" y="303" type="curve" smooth="yes"/>
      <point x="467" y="402"/>
      <point x="403" y="463"/>
      <point x="314" y="463" type="curve" smooth="yes"/>
      <point x="196" y="463"/>
      <point x="128" y="362"/>
      <point x="128" y="226" type="curve" smooth="yes"/>
      <point x="128" y="122"/>
      <point x="181" y="60"/>
    </contour>
    <contour>
      <point x="645" y="598" type="line"/>
      <point x="683" y="773" type="line"/>
      <point x="774" y="773" type="line"/>
      <point x="704" y="598" type="line"/>
    </contour>
  </outline>
</glyph>
<glyph name="dcroat" format="2">
  <advance width="622"/>
  <unicode hex="0111"/>
  <outline>
    <contour>
      <point x="337" y="615" type="line"/>
      <point x="347" y="676" type="line"/>
      <point x="525" y="676" type="line"/>
      <point x="540" y="773" type="line"/>
      <point x="623" y="773" type="line"/>
      <point x="607" y="676" type="line"/>
      <point x="683" y="676" type="line"/>
      <point x="673" y="615" type="line"/>
      <point x="598" y="615" type="line"/>
      <point x="526" y="156" type="line" smooth="yes"/>
      <point x="515" y="85"/>
      <point x="513" y="43"/>
      <point x="515" y="0" type="curve"/>
      <point x="436" y="0" type="line"/>
      <point x="434" y="30"/>
      <point x="436" y="65"/>
      <point x="440" y="95" type="curve"/>
      <point x="403" y="33"/>
      <point x="338" y="-9"/>
      <point x="261" y="-9" type="curve" smooth="yes"/>
      <point x="131" y="-9"/>
      <point x="40" y="81"/>
      <point x="40" y="222" type="curve" smooth="yes"/>
      <point x="40" y="389"/>
      <point x="143" y="532"/>
      <point x="311" y="532" type="curve" smooth="yes"/>
      <point x="411" y="532"/>
      <point x="462" y="478"/>
      <point x="486" y="428" type="curve"/>
      <point x="515" y="615" type="line"/>
    </contour>
    <contour>
      <point x="314" y="463" type="curve" smooth="yes"/>
      <point x="196" y="463"/>
      <point x="128" y="362"/>
      <point x="128" y="226" type="curve" smooth="yes"/>
      <point x="128" y="119"/>
      <point x="179" y="60"/>
      <point x="271" y="60" type="curve" smooth="yes"/>
      <point x="382" y="60"/>
      <point x="467" y="141"/>
      <point x="467" y="306" type="curve" smooth="yes"/>
      <point x="467" y="407"/>
      <point x="406" y="463"/>
    </contour>
  </outline>
</glyph>
<glyph name="Emacron" format="2">
  <advance width="572"/>
  <unicode hex="0112"/>
  <outline>
    <contour>
      <point x="48" y="0" type="line"/>
      <point x="161" y="715" type="line"/>
      <point x="574" y="715" type="line"/>
      <point x="562" y="644" type="line"/>
      <point x="236" y="644" type="line"/>
      <point x="198" y="401" type="line"/>
      <point x="464" y="401" type="line"/>
      <point x="453" y="330" type="line"/>
      <point x="187" y="330" type="line"/>
      <point x="146" y="71" type="line"/>
      <point x="494" y="71" type="line"/>
      <point x="483" y="0" type="line"/>
    </contour>
    <contour>
      <point x="242" y="786" type="line"/>
      <point x="252" y="850" type="line"/>
      <point x="518" y="850" type="line"/>
      <point x="508" y="786" type="line"/>
    </contour>
  </outline>
</glyph>
<glyph name="emacron" format="2">
  <advance width="553"/>
  <unicode hex="0113"/>
  <outline>
    <contour>
      <point x="123" y="211" type="curve" smooth="yes"/>
      <point x="123" y="116"/>
      <point x="167" y="60"/>
      <point x="267" y="60" type="curve" smooth="yes"/>
      <point x="340" y="60"/>
      <point x="391" y="91"/>
      <point x="411" y="151" type="curve"/>
      <point x="494" y="151" type="line"/>
      <point x="462" y="43"/>
      <point x="370" y="-9"/>
      <point x="264" y="-9" type="curve" smooth="yes"/>
      <point x="122" y="-9"/>
      <point x="38" y="84"/>
      <point x="38" y="215" type="curve" smooth="yes"/>
      <point x="38" y="400"/>
      <point x="157" y="531"/>
      <point x="311" y="531" type="curve" smooth="yes"/>
      <point x="453" y="531"/>
      <point x="542" y="443"/>
      <point x="514" y="264" type="curve" smooth="yes"/>
      <point x="511" y="245" type="line"/>
      <point x="124" y="245" type="line"/>
      <point x="123" y="234"/>
      <point x="123" y="223"/>
    </contour>
    <contour>
      <point x="306" y="463" type="curve" smooth="yes"/>
      <point x="232" y="463"/>
      <point x="160" y="419"/>
      <point x="134" y="312" type="curve"/>
      <point x="437" y="312" type="line"/>
      <point x="445" y="417"/>
      <point x="401" y="463"/>
    </contour>
    <contour>
      <point x="198" y="648" type="line"/>
      <point x="208" y="712" type="line"/>
      <point x="470" y="712" type="line"/>
      <point x="460" y="648" type="line"/>
    </contour>
  </outline>
</glyph>
<glyph name="Ebreve" format="2">
  <advance width="572"/>
  <unicode hex="0114"/>
  <outline>
    <contour>
      <point x="48" y="0" type="line"/>
      <point x="161" y="715" type="line"/>
      <point x="574" y="715" type="line"/>
      <point x="562" y="644" type="line"/>
      <point x="236" y="644" type="line"/>
      <point x="198" y="401" type="line"/>
      <point x="464" y="401" type="line"/>
      <point x="453" y="330" type="line"/>
      <point x="187" y="330" type="line"/>
      <point x="146" y="71" type="line"/>
      <point x="494" y="71" type="line"/>
      <point x="483" y="0" type="line"/>
    </contour>
    <contour>
      <point x="375" y="767" type="curve" smooth="yes"/>
      <point x="301" y="767"/>
      <point x="245" y="820"/>
      <point x="245" y="899" type="curve"/>
      <point x="311" y="899" type="line"/>
      <point x="316" y="857"/>
      <point x="336" y="835"/>
      <point x="376" y="835" type="curve" smooth="yes"/>
      <point x="418" y="835"/>
      <point x="441" y="857"/>
      <point x="449" y="899" type="curve"/>
      <point x="513" y="899" type="line"/>
      <point x="507" y="821"/>
      <point x="445" y="767"/>
    </contour>
  </outline>
</glyph>
<glyph name="ebreve" format="2">
  <advance width="553"/>
  <unicode hex="0115"/>
  <outline>
    <contour>
      <point x="123" y="211" type="curve" smooth="yes"/>
      <point x="123" y="116"/>
      <point x="167" y="60"/>
      <point x="267" y="60" type="curve" smooth="yes"/>
      <point x="340" y="60"/>
      <point x="391" y="91"/>
      <point x="411" y="151" type="curve"/>
      <point x="494" y="151" type="line"/>
      <point x="462" y="43"/>
      <point x="370" y="-9"/>
      <point x="264" y="-9" type="curve" smooth="yes"/>
      <point x="122" y="-9"/>
      <point x="38" y="84"/>
      <point x="38" y="215" type="curve" smooth="yes"/>
      <point x="38" y="400"/>
      <point x="157" y="531"/>
      <point x="311" y="531" type="curve" smooth="yes"/>
      <point x="453" y="531"/>
      <point x="542" y="443"/>
      <point x="514" y="264" type="curve" smooth="yes"/>
      <point x="511" y="245" type="line"/>
      <point x="124" y="245" type="line"/>
      <point x="123" y="234"/>
      <point x="123" y="223"/>
    </contour>
    <contour>
      <point x="306" y="463" type="curve" smooth="yes"/>
      <point x="232" y="463"/>
      <point x="160" y="419"/>
      <point x="134" y="312" type="curve"/>
      <point x="437" y="312" type="line"/>
      <point x="445" y="417"/>
      <point x="401" y="463"/>
    </contour>
    <contour>
      <point x="327" y="619" type="curve" smooth="yes"/>
      <point x="253" y="619"/>
      <point x="197" y="672"/>
      <point x="197" y="751" type="curve"/>
      <point x="263" y="751" type="line"/>
      <point x="268" y="709"/>
      <point x="288" y="687"/>
      <point x="328" y="687" type="curve" smooth="yes"/>
      <point x="370" y="687"/>
      <point x="393" y="709"/>
      <point x="401" y="751" type="curve"/>
      <point x="465" y="751" type="line"/>
      <point x="459" y="673"/>
      <point x="397" y="619"/>
    </contour>
  </outline>
</glyph>
<glyph name="Edotaccent" format="2">
  <advance width="572"/>
  <unicode hex="0116"/>
  <outline>
    <contour>
      <point x="48" y="0" type="line"/>
      <point x="161" y="715" type="line"/>
      <point x="574" y="715" type="line"/>
      <point x="562" y="644" type="line"/>
      <point x="236" y="644" type="line"/>
      <point x="198" y="401" type="line"/>
      <point x="464" y="401" type="line"/>
      <point x="453" y="330" type="line"/>
      <point x="187" y="330" type="line"/>
      <point x="146" y="71" type="line"/>
      <point x="494" y="71" type="line"/>
      <point x="483" y="0" type="line"/>
    </contour>
    <contour>
      <point x="379" y="787" type="curve" smooth="yes"/>
      <point x="349" y="787"/>
      <point x="324" y="811"/>
      <point x="324" y="841" type="curve" smooth="yes"/>
      <point x="324" y="871"/>
      <point x="350" y="897"/>
      <point x="380" y="897" type="curve" smooth="yes"/>
      <point x="410" y="897"/>
      <point x="434" y="873"/>
      <point x="434" y="843" type="curve" smooth="yes"/>
      <point x="434" y="813"/>
      <point x="409" y="787"/>
    </contour>
  </outline>
</glyph>
<glyph name="Eogonek" format="2">
  <advance width="572"/>
  <unicode hex="0118"/>
  <outline>
    <contour>
      <point x="48" y="0" type="line"/>
      <point x="161" y="715" type="line"/>
      <point x="574" y="715" type="line"/>
      <point x="562" y="644" type="line"/>
      <point x="236" y="644" type="line"/>
      <point x="198" y="401" type="line"/>
      <point x="464" y="401" type="line"/>
      <point x="453" y="330" type="line"/>
      <point x="187" y="330" type="line"/>
      <point x="146" y="71" type="line"/>
      <point x="494" y="71" type="line"/>
      <point x="483" y="0" type="line"/>
      <point x="452" y="0" type="line"/>
      <point x="421" y="-19"/>
      <point x="368" y="-45"/>
      <point x="368" y="-93" type="curve" smooth="yes"/>
      <point x="368" y="-112"/>
      <point x="380" y="-122"/>
      <point x="405" y="-122" type="curve" smooth="yes"/>
      <point x="421" y="-122"/>
      <point x="439" y="-118"/>
      <point x="453" y="-112" type="curve"/>
      <point x="444" y="-171" type="line"/>
      <point x="431" y="-176"/>
      <point x="413" y="-182"/>
      <point x="386" y="-182" type="curve" smooth="yes"/>
      <point x="333" y="-182"/>
      <point x="286" y="-159"/>
      <point x="287" y="-106" type="curve" smooth="yes"/>
      <point x="287" y="-56"/>
      <point x="328" y="-21"/>
      <point x="367" y="0" type="curve"/>
    </contour>
  </outline>
</glyph>
<glyph name="eogonek" format="2">
  <advance width="553"/>
  <unicode hex="0119"/>
  <outline>
    <contour>
      <point x="316" y="-182" type="curve" smooth="yes"/>
      <point x="263" y="-182"/>
      <point x="216" y="-159"/>
      <point x="217" y="-101" type="curve" smooth="yes"/>
      <point x="217" y="-59"/>
      <point x="257" y="-28"/>
      <point x="294" y="-7" type="curve"/>
      <point x="284" y="-8"/>
      <point x="274" y="-9"/>
      <point x="264" y="-9" type="curve" smooth="yes"/>
      <point x="122" y="-9"/>
      <point x="38" y="84"/>
      <point x="38" y="215" type="curve" smooth="yes"/>
      <point x="38" y="400"/>
      <point x="157" y="531"/>
      <point x="311" y="531" type="curve" smooth="yes"/>
      <point x="453" y="531"/>
      <point x="542" y="443"/>
      <point x="514" y="264" type="curve" smooth="yes"/>
      <point x="511" y="245" type="line"/>
      <point x="124" y="245" type="line"/>
      <point x="123" y="234"/>
      <point x="123" y="223"/>
      <point x="123" y="211" type="curve" smooth="yes"/>
      <point x="123" y="116"/>
      <point x="167" y="60"/>
      <point x="267" y="60" type="curve" smooth="yes"/>
      <point x="340" y="60"/>
      <point x="391" y="91"/>
      <point x="411" y="151" type="curve"/>
      <point x="494" y="151" type="line"/>
      <point x="482" y="112"/>
      <point x="466" y="83"/>
      <point x="438" y="54" type="curve" smooth="yes"/>
      <point x="391" y="5"/>
      <point x="298" y="-34"/>
      <point x="298" y="-91" type="curve" smooth="yes"/>
      <point x="298" y="-112"/>
      <point x="310" y="-122"/>
      <point x="335" y="-122" type="curve" smooth="yes"/>
      <point x="351" y="-122"/>
      <point x="369" y="-118"/>
      <point x="383" y="-112" type="curve"/>
      <point x="374" y="-171" type="line"/>
      <point x="361" y="-176"/>
      <point x="343" y="-182"/>
    </contour>
    <contour>
      <point x="306" y="463" type="curve" smooth="yes"/>
      <point x="232" y="463"/>
      <point x="160" y="419"/>
      <point x="134" y="312" type="curve"/>
      <point x="437" y="312" type="line"/>
      <point x="445" y="417"/>
      <point x="401" y="463"/>
    </contour>
  </outline>
</glyph>
<glyph name="Gcircumflex" format="2">
  <advance width="770"/>
  <unicode hex="011C"/>
  <outline>
    <contour>
      <point x="394" y="-9" type="curve" smooth="yes"/>
      <point x="186" y="-9"/>
      <point x="69" y="130"/>
      <point x="69" y="314" type="curve" smooth="yes"/>
      <point x="69" y="537"/>
      <point x="227" y="724"/>
      <point x="443" y="724" type="curve" smooth="yes"/>
      <point x="588" y="724"/>
      <point x="712" y="652"/>
      <point x="722" y="499" type="curve"/>
      <point x="636" y="499" type="line"/>
      <point x="626" y="606"/>
      <point x="547" y="655"/>
      <point x="441" y="655" type="curve" smooth="yes"/>
      <point x="266" y="655"/>
      <point x="159" y="502"/>
      <point x="159" y="314" type="curve" smooth="yes"/>
      <point x="159" y="161"/>
      <point x="239" y="61"/>
      <point x="396" y="61" type="curve" smooth="yes"/>
      <point x="539" y="61"/>
      <point x="614" y="157"/>
      <point x="635" y="289" type="curve"/>
      <point x="423" y="289" type="line"/>
      <point x="435" y="361" type="line"/>
      <point x="730" y="361" type="line"/>
      <point x="708" y="103"/>
      <point x="587" y="-9"/>
    </contour>
    <contour>
      <point x="302" y="771" type="line"/>
      <point x="426" y="898" type="line"/>
      <point x="501" y="898" type="line"/>
      <point x="592" y="771" type="line"/>
      <point x="534" y="771" type="line"/>
      <point x="457" y="829" type="line"/>
      <point x="364" y="771" type="line"/>
    </contour>
  </outline>
</glyph>
<glyph name="Gbreve" format="2">
  <advance width="770"/>
  <unicode hex="011E"/>
  <outline>
    <contour>
      <point x="394" y="-9" type="curve" smooth="yes"/>
      <point x="186" y="-9"/>
      <point x="69" y="130"/>
      <point x="69" y="314" type="curve" smooth="yes"/>
      <point x="69" y="537"/>
      <point x="227" y="724"/>
      <point x="443" y="724" type="curve" smooth="yes"/>
      <point x="588" y="724"/>
      <point x="712" y="652"/>
      <point x="722" y="499" type="curve"/>
      <point x="636" y="499" type="line"/>
      <point x="626" y="606"/>
      <point x="547" y="655"/>
      <point x="441" y="655" type="curve" smooth="yes"/>
      <point x="266" y="655"/>
      <point x="159" y="502"/>
      <point x="159" y="314" type="curve" smooth="yes"/>
      <point x="159" y="161"/>
      <point x="239" y="61"/>
      <point x="396" y="61" type="curve" smooth="yes"/>
      <point x="539" y="61"/>
      <point x="614" y="157"/>
      <point x="635" y="289" type="curve"/>
      <point x="423" y="289" type="line"/>
      <point x="435" y="361" type="line"/>
      <point x="730" y="361" type="line"/>
      <point x="708" y="103"/>
      <point x="587" y="-9"/>
    </contour>
    <contour>
      <point x="455" y="767" type="curve" smooth="yes"/>
      <point x="381" y="767"/>
      <point x="325" y="820"/>
      <point x="325" y="899" type="curve"/>
      <point x="391" y="899" type="line"/>
      <point x="396" y="857"/>
      <point x="416" y="835"/>
      <point x="456" y="835" type="curve" smooth="yes"/>
      <point x="498" y="835"/>
      <point x="521" y="857"/>
      <point x="529" y="899" type="curve"/>
      <point x="593" y="899" type="line"/>
      <point x="587" y="821"/>
      <point x="525" y="767"/>
    </contour>
  </outline>
</glyph>
<glyph name="Gdotaccent" format="2">
  <advance width="770"/>
  <unicode hex="0120"/>
  <outline>
    <contour>
      <point x="394" y="-9" type="curve" smooth="yes"/>
      <point x="186" y="-9"/>
      <point x="69" y="130"/>
      <point x="69" y="314" type="curve" smooth="yes"/>
      <point x="69" y="537"/>
      <point x="227" y="724"/>
      <point x="443" y="724" type="curve" smooth="yes"/>
      <point x="588" y="724"/>
      <point x="712" y="652"/>
      <point x="722" y="499" type="curve"/>
      <point x="636" y="499" type="line"/>
      <point x="626" y="606"/>
      <point x="547" y="655"/>
      <point x="441" y="655" type="curve" smooth="yes"/>
      <point x="266" y="655"/>
      <point x="159" y="502"/>
      <point x="159" y="314" type="curve" smooth="yes"/>
      <point x="159" y="161"/>
      <point x="239" y="61"/>
      <point x="396" y="61" type="curve" smooth="yes"/>
      <point x="539" y="61"/>
      <point x="614" y="157"/>
      <point x="635" y="289" type="curve"/>
      <point x="423" y="289" type="line"/>
      <point x="435" y="361" type="line"/>
      <point x="730" y="361" type="line"/>
      <point x="708" y="103"/>
      <point x="587" y="-9"/>
    </contour>
    <contour>
      <point x="457" y="787" type="curve" smooth="yes"/>
      <point x="427" y="787"/>
      <point x="402" y="811"/>
      <point x="402" y="841" type="curve" smooth="yes"/>
      <point x="402" y="871"/>
      <point x="428" y="897"/>
      <point x="458" y="897" type="curve" smooth="yes"/>
      <point x="488" y="897"/>
      <point x="512" y="873"/>
      <point x="512" y="843" type="curve" smooth="yes"/>
      <point x="512" y="813"/>
      <point x="487" y="787"/>
    </contour>
  </outline>
</glyph>
<glyph name="Gcommaaccent" format="2">
  <advance width="770"/>
  <unicode hex="0122"/>
  <outline>
    <contour>
      <point x="394" y="-9" type="curve" smooth="yes"/>
      <point x="186" y="-9"/>
      <point x="69" y="130"/>
      <point x="69" y="314" type="curve" smooth="yes"/>
      <point x="69" y="537"/>
      <point x="227" y="724"/>
      <point x="443" y="724" type="curve" smooth="yes"/>
      <point x="588" y="724"/>
      <point x="712" y="652"/>
      <point x="722" y="499" type="curve"/>
      <point x="636" y="499" type="line"/>
      <point x="626" y="606"/>
      <point x="547" y="655"/>
      <point x="441" y="655" type="curve" smooth="yes"/>
      <point x="266" y="655"/>
      <point x="159" y="502"/>
      <point x="159" y="314" type="curve" smooth="yes"/>
      <point x="159" y="161"/>
      <point x="239" y="61"/>
      <point x="396" y="61" type="curve" smooth="yes"/>
      <point x="539" y="61"/>
      <point x="614" y="157"/>
      <point x="635" y="289" type="curve"/>
      <point x="423" y="289" type="line"/>
      <point x="435" y="361" type="line"/>
      <point x="730" y="361" type="line"/>
      <point x="708" y="103"/>
      <point x="587" y="-9"/>
    </contour>
    <contour>
      <point x="281" y="-220" type="line"/>
      <point x="232" y="-194" type="line"/>
      <point x="304" y="-37" type="line"/>
      <point x="382" y="-61" type="line"/>
    </contour>
  </outline>
</glyph>
<glyph name="gcommaaccent" format="2">
  <advance width="623"/>
  <unicode hex="0123"/>
  <outline>
    <contour>
      <point x="272" y="86" type="curve" smooth="yes"/>
      <point x="376" y="86"/>
      <point x="467" y="170"/>
      <point x="467" y="311" type="curve" smooth="yes"/>
      <point x="467" y="407"/>
      <point x="401" y="463"/>
      <point x="312" y="463" type="curve" smooth="yes"/>
      <point x="200" y="463"/>
      <point x="132" y="362"/>
      <point x="132" y="246" type="curve" smooth="yes"/>
      <point x="132" y="152"/>
      <point x="180" y="86"/>
    </contour>
    <contour>
      <point x="584" y="523" type="line"/>
      <point x="506" y="26" type="line" smooth="yes"/>
      <point x="483" y="-118"/>
      <point x="391" y="-190"/>
      <point x="246" y="-190" type="curve" smooth="yes"/>
      <point x="77" y="-190"/>
      <point x="23" y="-105"/>
      <point x="13" y="-30" type="curve"/>
      <point x="97" y="-30" type="line"/>
      <point x="107" y="-83"/>
      <point x="151" y="-120"/>
      <point x="244" y="-120" type="curve" smooth="yes"/>
      <point x="356" y="-120"/>
      <point x="406" y="-67"/>
      <point x="423" y="34" type="curve" smooth="yes"/>
      <point x="435" y="107" type="line"/>
      <point x="396" y="51"/>
      <point x="340" y="19"/>
      <point x="263" y="19" type="curve" smooth="yes"/>
      <point x="135" y="19"/>
      <point x="45" y="110"/>
      <point x="45" y="242" type="curve" smooth="yes"/>
      <point x="45" y="399"/>
      <point x="156" y="532"/>
      <point x="309" y="532" type="curve" smooth="yes"/>
      <point x="409" y="532"/>
      <point x="462" y="478"/>
      <point x="486" y="428" type="curve"/>
      <point x="501" y="523" type="line"/>
    </contour>
    <contour>
      <point x="387" y="785" type="line"/>
      <point x="436" y="759" type="line"/>
      <point x="364" y="602" type="line"/>
      <point x="286" y="626" type="line"/>
    </contour>
  </outline>
</glyph>
<glyph name="Hcircumflex" format="2">
  <advance width="730"/>
  <unicode hex="0124"/>
  <outline>
    <contour>
      <point x="48" y="0" type="line"/>
      <point x="161" y="715" type="line"/>
      <point x="248" y="715" type="line"/>
      <point x="196" y="391" type="line"/>
      <point x="572" y="391" type="line"/>
      <point x="624" y="715" type="line"/>
      <point x="711" y="715" type="line"/>
      <point x="598" y="0" type="line"/>
      <point x="511" y="0" type="line"/>
      <point x="561" y="318" type="line"/>
      <point x="185" y="318" type="line"/>
      <point x="135" y="0" type="line"/>
    </contour>
    <contour>
      <point x="296" y="771" type="line"/>
      <point x="420" y="898" type="line"/>
      <point x="495" y="898" type="line"/>
      <point x="586" y="771" type="line"/>
      <point x="528" y="771" type="line"/>
      <point x="451" y="829" type="line"/>
      <point x="358" y="771" type="line"/>
    </contour>
  </outline>
</glyph>
<glyph name="Hbar" format="2">
  <advance width="730"/>
  <unicode hex="0126"/>
  <outline>
    <contour>
      <point x="56" y="493" type="line"/>
      <point x="66" y="560" type="line"/>
      <point x="136" y="560" type="line"/>
      <point x="161" y="715" type="line"/>
      <point x="248" y="715" type="line"/>
      <point x="223" y="560" type="line"/>
      <point x="599" y="560" type="line"/>
      <point x="624" y="715" type="line"/>
      <point x="711" y="715" type="line"/>
      <point x="686" y="560" type="line"/>
      <point x="756" y="560" type="line"/>
      <point x="746" y="493" type="line"/>
      <point x="676" y="493" type="line"/>
      <point x="598" y="0" type="line"/>
      <point x="511" y="0" type="line"/>
      <point x="561" y="318" type="line"/>
      <point x="185" y="318" type="line"/>
      <point x="135" y="0" type="line"/>
      <point x="48" y="0" type="line"/>
      <point x="126" y="493" type="line"/>
    </contour>
    <contour>
      <point x="196" y="391" type="line"/>
      <point x="572" y="391" type="line"/>
      <point x="588" y="493" type="line"/>
      <point x="212" y="493" type="line"/>
    </contour>
  </outline>
</glyph>
<glyph name="hbar" format="2">
  <advance width="592"/>
  <unicode hex="0127"/>
  <outline>
    <contour>
      <point x="64" y="615" type="line"/>
      <point x="74" y="676" type="line"/>
      <point x="148" y="676" type="line"/>
      <point x="164" y="773" type="line"/>
      <point x="247" y="773" type="line"/>
      <point x="231" y="676" type="line"/>
      <point x="410" y="676" type="line"/>
      <point x="400" y="615" type="line"/>
      <point x="222" y="615" type="line"/>
      <point x="193" y="430" type="line"/>
      <point x="224" y="481"/>
      <point x="284" y="532"/>
      <point x="369" y="532" type="curve" smooth="yes"/>
      <point x="478" y="532"/>
      <point x="546" y="471"/>
      <point x="521" y="313" type="curve" smooth="yes"/>
      <point x="471" y="0" type="line"/>
      <point x="388" y="0" type="line"/>
      <point x="441" y="332" type="line" smooth="yes"/>
      <point x="456" y="425"/>
      <point x="425" y="461"/>
      <point x="351" y="461" type="curve" smooth="yes"/>
      <point x="264" y="461"/>
      <point x="189" y="403"/>
      <point x="173" y="304" type="curve" smooth="yes"/>
      <point x="125" y="0" type="line"/>
      <point x="42" y="0" type="line"/>
      <point x="139" y="615" type="line"/>
    </contour>
  </outline>
</glyph>
<glyph name="Itilde" format="2">
  <advance width="279"/>
  <unicode hex="0128"/>
  <outline>
    <contour>
      <point x="53" y="0" type="line"/>
      <point x="166" y="715" type="line"/>
      <point x="253" y="715" type="line"/>
      <point x="140" y="0" type="line"/>
    </contour>
    <contour>
      <point x="285" y="774" type="curve" smooth="yes"/>
      <point x="238" y="774"/>
      <point x="203" y="817"/>
      <point x="174" y="817" type="curve" smooth="yes"/>
      <point x="155" y="817"/>
      <point x="135" y="800"/>
      <point x="128" y="772" type="curve"/>
      <point x="68" y="772" type="line"/>
      <point x="82" y="845"/>
      <point x="123" y="888"/>
      <point x="175" y="888" type="curve" smooth="yes"/>
      <point x="221" y="888"/>
      <point x="256" y="845"/>
      <point x="285" y="845" type="curve" smooth="yes"/>
      <point x="304" y="845"/>
      <point x="323" y="862"/>
      <point x="330" y="890" type="curve"/>
      <point x="390" y="890" type="line"/>
      <point x="376" y="817"/>
      <point x="336" y="774"/>
    </contour>
  </outline>
</glyph>
<glyph name="itilde" format="2">
  <advance width="255"/>
  <unicode hex="0129"/>
  <outline>
    <contour>
      <point x="44" y="0" type="line"/>
      <point x="127" y="523" type="line"/>
      <point x="210" y="523" type="line"/>
      <point x="127" y="0" type="line"/>
    </contour>
    <contour>
      <point x="247" y="619" type="curve" smooth="yes"/>
      <point x="200" y="619"/>
      <point x="165" y="662"/>
      <point x="136" y="662" type="curve" smooth="yes"/>
      <point x="117" y="662"/>
      <point x="97" y="645"/>
      <point x="90" y="617" type="curve"/>
      <point x="30" y="617" type="line"/>
      <point x="44" y="690"/>
      <point x="85" y="733"/>
      <point x="137" y="733" type="curve" smooth="yes"/>
      <point x="183" y="733"/>
      <point x="218" y="690"/>
      <point x="247" y="690" type="curve" smooth="yes"/>
      <point x="266" y="690"/>
      <point x="285" y="707"/>
      <point x="292" y="735" type="curve"/>
      <point x="352" y="735" type="line"/>
      <point x="338" y="662"/>
      <point x="298" y="619"/>
    </contour>
  </outline>
</glyph>
<glyph name="Imacron" format="2">
  <advance width="279"/>
  <unicode hex="012A"/>
  <outline>
    <contour>
      <point x="53" y="0" type="line"/>
      <point x="166" y="715" type="line"/>
      <point x="253" y="715" type="line"/>
      <point x="140" y="0" type="line"/>
    </contour>
    <contour>
      <point x="88" y="786" type="line"/>
      <point x="98" y="850" type="line"/>
      <point x="364" y="850" type="line"/>
      <point x="354" y="786" type="line"/>
    </contour>
  </outline>
</glyph>
<glyph name="imacron" format="2">
  <advance width="255"/>
  <unicode hex="012B"/>
  <outline>
    <contour>
      <point x="91" y="648" type="line"/>
      <point x="101" y="712" type="line"/>
      <point x="295" y="712" type="line"/>
      <point x="285" y="648" type="line"/>
    </contour>
    <contour>
      <point x="44" y="0" type="line"/>
      <point x="127" y="523" type="line"/>
      <point x="210" y="523" type="line"/>
      <point x="127" y="0" type="line"/>
    </contour>
  </outline>
</glyph>
<glyph name="Ibreve" format="2">
  <advance width="279"/>
  <unicode hex="012C"/>
  <outline>
    <contour>
      <point x="53" y="0" type="line"/>
      <point x="166" y="715" type="line"/>
      <point x="253" y="715" type="line"/>
      <point x="140" y="0" type="line"/>
    </contour>
    <contour>
      <point x="221" y="767" type="curve" smooth="yes"/>
      <point x="147" y="767"/>
      <point x="91" y="820"/>
      <point x="91" y="899" type="curve"/>
      <point x="157" y="899" type="line"/>
      <point x="162" y="857"/>
      <point x="182" y="835"/>
      <point x="222" y="835" type="curve" smooth="yes"/>
      <point x="264" y="835"/>
      <point x="287" y="857"/>
      <point x="295" y="899" type="curve"/>
      <point x="359" y="899" type="line"/>
      <point x="353" y="821"/>
      <point x="291" y="767"/>
    </contour>
  </outline>
</glyph>
<glyph name="ibreve" format="2">
  <advance width="255"/>
  <unicode hex="012D"/>
  <outline>
    <contour>
      <point x="44" y="0" type="line"/>
      <point x="127" y="523" type="line"/>
      <point x="210" y="523" type="line"/>
      <point x="127" y="0" type="line"/>
    </contour>
    <contour>
      <point x="186" y="619" type="curve" smooth="yes"/>
      <point x="112" y="619"/>
      <point x="56" y="672"/>
      <point x="56" y="751" type="curve"/>
      <point x="122" y="751" type="line"/>
      <point x="127" y="709"/>
      <point x="147" y="687"/>
      <point x="187" y="687" type="curve" smooth="yes"/>
      <point x="229" y="687"/>
      <point x="252" y="709"/>
      <point x="260" y="751" type="curve"/>
      <point x="324" y="751" type="line"/>
      <point x="318" y="673"/>
      <point x="256" y="619"/>
    </contour>
  </outline>
</glyph>
<glyph name="Iogonek" format="2">
  <advance width="279"/>
  <unicode hex="012E"/>
  <outline>
    <contour>
      <point x="71" y="-182" type="curve" smooth="yes"/>
      <point x="18" y="-182"/>
      <point x="-29" y="-159"/>
      <point x="-28" y="-101" type="curve" smooth="yes"/>
      <point x="-28" y="-55"/>
      <point x="13" y="-23"/>
      <point x="52" y="-3" type="curve"/>
      <point x="166" y="715" type="line"/>
      <point x="253" y="715" type="line"/>
      <point x="141" y="6" type="line"/>
      <point x="106" y="-16"/>
      <point x="53" y="-50"/>
      <point x="53" y="-91" type="curve" smooth="yes"/>
      <point x="53" y="-112"/>
      <point x="65" y="-122"/>
      <point x="90" y="-122" type="curve" smooth="yes"/>
      <point x="106" y="-122"/>
      <point x="124" y="-118"/>
      <point x="138" y="-112" type="curve"/>
      <point x="129" y="-171" type="line"/>
      <point x="116" y="-176"/>
      <point x="98" y="-182"/>
    </contour>
  </outline>
</glyph>
<glyph name="iogonek" format="2">
  <advance width="255"/>
  <unicode hex="012F"/>
  <outline>
    <contour>
      <point x="44" y="0" type="curve"/>
      <point x="127" y="523" type="line"/>
      <point x="210" y="523" type="line"/>
      <point x="128" y="6" type="line"/>
      <point x="94" y="-16"/>
      <point x="42" y="-45"/>
      <point x="42" y="-91" type="curve" smooth="yes"/>
      <point x="42" y="-112"/>
      <point x="55" y="-122"/>
      <point x="77" y="-122" type="curve" smooth="yes"/>
      <point x="93" y="-122"/>
      <point x="111" y="-118"/>
      <point x="125" y="-112" type="curve"/>
      <point x="116" y="-171" type="line"/>
      <point x="103" y="-176"/>
      <point x="85" y="-182"/>
      <point x="58" y="-182" type="curve" smooth="yes"/>
      <point x="8" y="-182"/>
      <point x="-40" y="-159"/>
      <point x="-39" y="-101" type="curve" smooth="yes"/>
      <point x="-39" y="-53"/>
      <point x="6" y="-19"/>
    </contour>
    <contour>
      <point x="192" y="632" type="curve" smooth="yes"/>
      <point x="162" y="632"/>
      <point x="137" y="656"/>
      <point x="137" y="686" type="curve" smooth="yes"/>
      <point x="137" y="716"/>
      <point x="163" y="742"/>
      <point x="193" y="742" type="curve" smooth="yes"/>
      <point x="223" y="742"/>
      <point x="247" y="718"/>
      <point x="247" y="688" type="curve" smooth="yes"/>
      <point x="247" y="658"/>
      <point x="222" y="632"/>
    </contour>
  </outline>
</glyph>
<glyph name="Idotaccent" format="2">
  <advance width="279"/>
  <unicode hex="0130"/>
  <outline>
    <contour>
      <point x="53" y="0" type="line"/>
      <point x="166" y="715" type="line"/>
      <point x="253" y="715" type="line"/>
      <point x="140" y="0" type="line"/>
    </contour>
    <contour>
      <point x="225" y="787" type="curve" smooth="yes"/>
      <point x="195" y="787"/>
      <point x="170" y="811"/>
      <point x="170" y="841" type="curve" smooth="yes"/>
      <point x="170" y="871"/>
      <point x="196" y="897"/>
      <point x="226" y="897" type="curve" smooth="yes"/>
      <point x="256" y="897"/>
      <point x="280" y="873"/>
      <point x="280" y="843" type="curve" smooth="yes"/>
      <point x="280" y="813"/>
      <point x="255" y="787"/>
    </contour>
  </outline>
</glyph>
<glyph name="IJ" format="2">
  <advance width="657"/>
  <unicode hex="0132"/>
  <outline>
    <contour>
      <point x="11" y="0" type="line"/>
      <point x="124" y="715" type="line"/>
      <point x="211" y="715" type="line"/>
      <point x="98" y="0" type="line"/>
    </contour>
    <contour>
      <point x="308" y="-9" type="curve" smooth="yes"/>
      <point x="241" y="-9"/>
      <point x="211" y="6"/>
      <point x="193" y="17" type="curve"/>
      <point x="204" y="87" type="line"/>
      <point x="229" y="75"/>
      <point x="259" y="62"/>
      <point x="305" y="62" type="curve" smooth="yes"/>
      <point x="377" y="62"/>
      <point x="418" y="100"/>
      <point x="432" y="188" type="curve" smooth="yes"/>
      <point x="515" y="715" type="line"/>
      <point x="602" y="715" type="line"/>
      <point x="517" y="180" type="line" smooth="yes"/>
      <point x="496" y="47"/>
      <point x="413" y="-9"/>
    </contour>
  </outline>
</glyph>
<glyph name="ij" format="2">
  <advance width="510"/>
  <unicode hex="0133"/>
  <outline>
    <contour>
      <point x="192" y="632" type="curve" smooth="yes"/>
      <point x="162" y="632"/>
      <point x="137" y="656"/>
      <point x="137" y="686" type="curve" smooth="yes"/>
      <point x="137" y="716"/>
      <point x="163" y="742"/>
      <point x="193" y="742" type="curve" smooth="yes"/>
      <point x="223" y="742"/>
      <point x="247" y="718"/>
      <point x="247" y="688" type="curve" smooth="yes"/>
      <point x="247" y="658"/>
      <point x="222" y="632"/>
    </contour>
    <contour>
      <point x="44" y="0" type="line"/>
      <point x="127" y="523" type="line"/>
      <point x="210" y="523" type="line"/>
      <point x="127" y="0" type="line"/>
    </contour>
    <contour>
      <point x="192" y="-190" type="curve"/>
      <point x="203" y="-121" type="line"/>
      <point x="263" y="-118"/>
      <point x="285" y="-90"/>
      <point x="293" y="-41" type="curve" smooth="yes"/>
      <point x="382" y="523" type="line"/>
      <point x="465" y="523" type="line"/>
      <point x="375" y="-46" type="line" smooth="yes"/>
      <point x="361" y="-137"/>
      <point x="308" y="-190"/>
    </contour>
    <contour>
      <point x="447" y="632" type="curve" smooth="yes"/>
      <point x="417" y="632"/>
      <point x="392" y="656"/>
      <point x="392" y="686" type="curve" smooth="yes"/>
      <point x="392" y="716"/>
      <point x="418" y="742"/>
      <point x="448" y="742" type="curve" smooth="yes"/>
      <point x="478" y="742"/>
      <point x="502" y="718"/>
      <point x="502" y="688" type="curve" smooth="yes"/>
      <point x="502" y="658"/>
      <point x="477" y="632"/>
    </contour>
  </outline>
</glyph>
<glyph name="Jcircumflex" format="2">
  <advance width="420"/>
  <unicode hex="0134"/>
  <outline>
    <contour>
      <point x="113" y="-9" type="curve" smooth="yes"/>
      <point x="46" y="-9"/>
      <point x="16" y="6"/>
      <point x="-2" y="17" type="curve"/>
      <point x="9" y="87" type="line"/>
      <point x="34" y="75"/>
      <point x="64" y="62"/>
      <point x="110" y="62" type="curve" smooth="yes"/>
      <point x="182" y="62"/>
      <point x="223" y="100"/>
      <point x="237" y="188" type="curve" smooth="yes"/>
      <point x="320" y="715" type="line"/>
      <point x="407" y="715" type="line"/>
      <point x="322" y="180" type="line" smooth="yes"/>
      <point x="301" y="47"/>
      <point x="218" y="-9"/>
    </contour>
    <contour>
      <point x="225" y="771" type="line"/>
      <point x="349" y="898" type="line"/>
      <point x="424" y="898" type="line"/>
      <point x="515" y="771" type="line"/>
      <point x="457" y="771" type="line"/>
      <point x="380" y="829" type="line"/>
      <point x="287" y="771" type="line"/>
    </contour>
  </outline>
</glyph>
<glyph name="jcircumflex" format="2">
  <advance width="255"/>
  <unicode hex="0135"/>
  <outline>
    <contour>
      <point x="-63" y="-190" type="curve"/>
      <point x="-52" y="-121" type="line"/>
      <point x="8" y="-118"/>
      <point x="30" y="-90"/>
      <point x="38" y="-41" type="curve" smooth="yes"/>
      <point x="127" y="523" type="line"/>
      <point x="210" y="523" type="line"/>
      <point x="120" y="-46" type="line" smooth="yes"/>
      <point x="106" y="-137"/>
      <point x="53" y="-190"/>
    </contour>
    <contour>
      <point x="28" y="613" type="line"/>
      <point x="157" y="757" type="line"/>
      <point x="232" y="757" type="line"/>
      <point x="318" y="613" type="line"/>
      <point x="260" y="613" type="line"/>
      <point x="186" y="688" type="line"/>
      <point x="90" y="613" type="line"/>
    </contour>
  </outline>
</glyph>
<glyph name="Kcommaaccent" format="2">
  <advance width="616"/>
  <unicode hex="0136"/>
  <outline>
    <contour>
      <point x="48" y="0" type="line"/>
      <point x="161" y="715" type="line"/>
      <point x="248" y="715" type="line"/>
      <point x="194" y="375" type="line"/>
      <point x="557" y="715" type="line"/>
      <point x="658" y="715" type="line"/>
      <point x="285" y="370" type="line"/>
      <point x="557" y="0" type="line"/>
      <point x="460" y="0" type="line"/>
      <point x="192" y="359" type="line"/>
      <point x="135" y="0" type="line"/>
    </contour>
    <contour>
      <point x="224" y="-220" type="line"/>
      <point x="175" y="-194" type="line"/>
      <point x="247" y="-37" type="line"/>
      <point x="325" y="-61" type="line"/>
    </contour>
  </outline>
</glyph>
<glyph name="kcommaaccent" format="2">
  <advance width="511"/>
  <unicode hex="0137"/>
  <outline>
    <contour>
      <point x="42" y="0" type="line"/>
      <point x="164" y="773" type="line"/>
      <point x="247" y="773" type="line"/>
      <point x="171" y="292" type="line"/>
      <point x="420" y="523" type="line"/>
      <point x="523" y="523" type="line"/>
      <point x="259" y="283" type="line"/>
      <point x="454" y="0" type="line"/>
      <point x="359" y="0" type="line"/>
      <point x="169" y="278" type="line"/>
      <point x="125" y="0" type="line"/>
    </contour>
    <contour>
      <point x="178" y="-220" type="line"/>
      <point x="129" y="-194" type="line"/>
      <point x="201" y="-37" type="line"/>
      <point x="279" y="-61" type="line"/>
    </contour>
  </outline>
</glyph>
<glyph name="Lacute" format="2">
  <advance width="535"/>
  <unicode hex="0139"/>
  <outline>
    <contour>
      <point x="48" y="0" type="line"/>
      <point x="161" y="715" type="line"/>
      <point x="248" y="715" type="line"/>
      <point x="146" y="71" type="line"/>
      <point x="473" y="71" type="line"/>
      <point x="462" y="0" type="line"/>
    </contour>
    <contour>
      <point x="176" y="771" type="line"/>
      <point x="244" y="898" type="line"/>
      <point x="350" y="898" type="line"/>
      <point x="242" y="771" type="line"/>
    </contour>
  </outline>
</glyph>
<glyph name="lacute" format="2">
  <advance width="256"/>
  <unicode hex="013A"/>
  <outline>
    <contour>
      <point x="44" y="0" type="line"/>
      <point x="166" y="773" type="line"/>
      <point x="250" y="773" type="line"/>
      <point x="128" y="0" type="line"/>
    </contour>
    <contour>
      <point x="179" y="821" type="line"/>
      <point x="247" y="948" type="line"/>
      <point x="353" y="948" type="line"/>
      <point x="245" y="821" type="line"/>
    </contour>
  </outline>
</glyph>
<glyph name="Lcaron" format="2">
  <advance width="535"/>
  <unicode hex="013D"/>
  <outline>
    <contour>
      <point x="384" y="558" type="line"/>
      <point x="427" y="715" type="line"/>
      <point x="522" y="715" type="line"/>
      <point x="443" y="558" type="line"/>
    </contour>
    <contour>
      <point x="48" y="0" type="line"/>
      <point x="161" y="715" type="line"/>
      <point x="248" y="715" type="line"/>
      <point x="146" y="71" type="line"/>
      <point x="473" y="71" type="line"/>
      <point x="462" y="0" type="line"/>
    </contour>
  </outline>
</glyph>
<glyph name="lcaron" format="2">
  <advance width="256"/>
  <unicode hex="013E"/>
  <outline>
    <contour>
      <point x="44" y="0" type="line"/>
      <point x="166" y="773" type="line"/>
      <point x="250" y="773" type="line"/>
      <point x="128" y="0" type="line"/>
    </contour>
    <contour>
      <point x="272" y="598" type="line"/>
      <point x="310" y="773" type="line"/>
      <point x="401" y="773" type="line"/>
      <point x="331" y="598" type="line"/>
    </contour>
  </outline>
</glyph>
<glyph name="Ldot" format="2">
  <advance width="535"/>
  <unicode hex="013F"/>
  <outline>
    <contour>
      <point x="48" y="0" type="line"/>
      <point x="161" y="715" type="line"/>
      <point x="248" y="715" type="line"/>
      <point x="146" y="71" type="line"/>
      <point x="473" y="71" type="line"/>
      <point x="462" y="0" type="line"/>
    </contour>
    <contour>
      <point x="448" y="320" type="curve" smooth="yes"/>
      <point x="413" y="320"/>
      <point x="384" y="348"/>
      <point x="384" y="384" type="curve" smooth="yes"/>
      <point x="384" y="420"/>
      <point x="412" y="448"/>
      <point x="447" y="448" type="curve" smooth="yes"/>
      <point x="482" y="448"/>
      <point x="512" y="420"/>
      <point x="512" y="384" type="curve" smooth="yes"/>
      <point x="512" y="348"/>
      <point x="483" y="320"/>
    </contour>
  </outline>
</glyph>
<glyph name="ldot" format="2">
  <advance width="328"/>
  <unicode hex="0140"/>
  <outline>
    <contour>
      <point x="44" y="0" type="line"/>
      <point x="166" y="773" type="line"/>
      <point x="250" y="773" type="line"/>
      <point x="128" y="0" type="line"/>
    </contour>
    <contour>
      <point x="307" y="303" type="curve" smooth="yes"/>
      <point x="272" y="303"/>
      <point x="243" y="331"/>
      <point x="243" y="367" type="curve" smooth="yes"/>
      <point x="243" y="403"/>
      <point x="271" y="431"/>
      <point x="306" y="431" type="curve" smooth="yes"/>
      <point x="341" y="431"/>
      <point x="371" y="403"/>
      <point x="371" y="367" type="curve" smooth="yes"/>
      <point x="371" y="331"/>
      <point x="342" y="303"/>
    </contour>
  </outline>
</glyph>
<glyph name="Lslash" format="2">
  <advance width="555"/>
  <unicode hex="0141"/>
  <outline>
    <contour>
      <point x="39" y="248" type="line"/>
      <point x="50" y="319" type="line"/>
      <point x="122" y="344" type="line"/>
      <point x="181" y="715" type="line"/>
      <point x="268" y="715" type="line"/>
      <point x="214" y="376" type="line"/>
      <point x="425" y="449" type="line"/>
      <point x="414" y="378" type="line"/>
      <point x="203" y="305" type="line"/>
      <point x="166" y="71" type="line"/>
      <point x="493" y="71" type="line"/>
      <point x="482" y="0" type="line"/>
      <point x="68" y="0" type="line"/>
      <point x="111" y="273" type="line"/>
    </contour>
  </outline>
</glyph>
<glyph name="lslash" format="2">
  <advance width="276"/>
  <unicode hex="0142"/>
  <outline>
    <contour>
      <point x="27" y="311" type="line"/>
      <point x="39" y="384" type="line"/>
      <point x="121" y="426" type="line"/>
      <point x="176" y="773" type="line"/>
      <point x="260" y="773" type="line"/>
      <point x="212" y="473" type="line"/>
      <point x="300" y="518" type="line"/>
      <point x="287" y="445" type="line"/>
      <point x="201" y="400" type="line"/>
      <point x="138" y="0" type="line"/>
      <point x="54" y="0" type="line"/>
      <point x="110" y="353" type="line"/>
    </contour>
  </outline>
</glyph>
<glyph name="Ncommaaccent" format="2">
  <advance width="724"/>
  <unicode hex="0145"/>
  <outline>
    <contour>
      <point x="48" y="0" type="line"/>
      <point x="161" y="715" type="line"/>
      <point x="272" y="715" type="line"/>
      <point x="528" y="124" type="line"/>
      <point x="622" y="715" type="line"/>
      <point x="705" y="715" type="line"/>
      <point x="592" y="0" type="line"/>
      <point x="494" y="0" type="line"/>
      <point x="228" y="613" type="line"/>
      <point x="131" y="0" type="line"/>
    </contour>
    <contour>
      <point x="262" y="-220" type="line"/>
      <point x="213" y="-194" type="line"/>
      <point x="285" y="-37" type="line"/>
      <point x="363" y="-61" type="line"/>
    </contour>
  </outline>
</glyph>
<glyph name="napostrophe" format="2">
  <advance width="598"/>
  <unicode hex="0149"/>
  <outline>
    <contour>
      <point x="48" y="0" type="line"/>
      <point x="106" y="367" type="line" smooth="yes"/>
      <point x="117" y="438"/>
      <point x="119" y="479"/>
      <point x="120" y="523" type="curve"/>
      <point x="198" y="523" type="line"/>
      <point x="198" y="494"/>
      <point x="196" y="454"/>
      <point x="192" y="419" type="curve"/>
      <point x="228" y="482"/>
      <point x="290" y="532"/>
      <point x="375" y="532" type="curve" smooth="yes"/>
      <point x="484" y="532"/>
      <point x="552" y="471"/>
      <point x="527" y="313" type="curve" smooth="yes"/>
      <point x="477" y="0" type="line"/>
      <point x="394" y="0" type="line"/>
      <point x="447" y="332" type="line" smooth="yes"/>
      <point x="461" y="419"/>
      <point x="430" y="461"/>
      <point x="357" y="461" type="curve" smooth="yes"/>
      <point x="270" y="461"/>
      <point x="195" y="403"/>
      <point x="179" y="304" type="curve" smooth="yes"/>
      <point x="131" y="0" type="line"/>
    </contour>
    <contour>
      <point x="41" y="488" type="line"/>
      <point x="-8" y="514" type="line"/>
      <point x="95" y="726" type="line"/>
      <point x="172" y="690" type="line"/>
    </contour>
  </outline>
</glyph>
<glyph name="Eng" format="2">
  <advance width="724"/>
  <unicode hex="014A"/>
  <outline>
    <contour>
      <point x="374" y="-122" type="curve" smooth="yes"/>
      <point x="444" y="-122"/>
      <point x="487" y="-90"/>
      <point x="504" y="-9" type="curve"/>
      <point x="228" y="613" type="line"/>
      <point x="131" y="0" type="line"/>
      <point x="48" y="0" type="line"/>
      <point x="161" y="715" type="line"/>
      <point x="275" y="715" type="line"/>
      <point x="531" y="142" type="line"/>
      <point x="622" y="715" type="line"/>
      <point x="705" y="715" type="line"/>
      <point x="593" y="10" type="line" smooth="yes"/>
      <point x="569" y="-140"/>
      <point x="490" y="-193"/>
      <point x="383" y="-193" type="curve" smooth="yes"/>
      <point x="321" y="-193"/>
      <point x="289" y="-179"/>
      <point x="272" y="-169" type="curve"/>
      <point x="283" y="-99" type="line"/>
      <point x="308" y="-112"/>
      <point x="331" y="-122"/>
    </contour>
  </outline>
</glyph>
<glyph name="Ohungarumlaut" format="2">
  <advance width="811"/>
  <unicode hex="0150"/>
  <outline>
    <contour>
      <point x="773" y="402" type="curve" smooth="yes"/>
      <point x="773" y="165"/>
      <point x="606" y="-9"/>
      <point x="395" y="-9" type="curve" smooth="yes"/>
      <point x="197" y="-9"/>
      <point x="68" y="128"/>
      <point x="68" y="312" type="curve" smooth="yes"/>
      <point x="68" y="540"/>
      <point x="235" y="724"/>
      <point x="452" y="724" type="curve" smooth="yes"/>
      <point x="658" y="724"/>
      <point x="773" y="577"/>
    </contour>
    <contour>
      <point x="683" y="402" type="curve" smooth="yes"/>
      <point x="683" y="541"/>
      <point x="601" y="654"/>
      <point x="451" y="654" type="curve" smooth="yes"/>
      <point x="271" y="654"/>
      <point x="158" y="497"/>
      <point x="158" y="312" type="curve" smooth="yes"/>
      <point x="158" y="156"/>
      <point x="257" y="62"/>
      <point x="396" y="62" type="curve" smooth="yes"/>
      <point x="566" y="62"/>
      <point x="683" y="207"/>
    </contour>
    <contour>
      <point x="362" y="771" type="line"/>
      <point x="408" y="898" type="line"/>
      <point x="504" y="898" type="line"/>
      <point x="423" y="771" type="line"/>
    </contour>
    <contour>
      <point x="516" y="771" type="line"/>
      <point x="562" y="898" type="line"/>
      <point x="658" y="898" type="line"/>
      <point x="577" y="771" type="line"/>
    </contour>
  </outline>
</glyph>
<glyph name="ohungarumlaut" format="2">
  <advance width="589"/>
  <unicode hex="0151"/>
  <outline>
    <contour>
      <point x="271" y="-8" type="curve" smooth="yes"/>
      <point x="126" y="-8"/>
      <point x="38" y="91"/>
      <point x="38" y="224" type="curve" smooth="yes"/>
      <point x="38" y="399"/>
      <point x="159" y="531"/>
      <point x="316" y="531" type="curve" smooth="yes"/>
      <point x="461" y="531"/>
      <point x="550" y="436"/>
      <point x="550" y="301" type="curve" smooth="yes"/>
      <point x="550" y="123"/>
      <point x="435" y="-8"/>
    </contour>
    <contour>
      <point x="275" y="60" type="curve" smooth="yes"/>
      <point x="393" y="60"/>
      <point x="463" y="163"/>
      <point x="463" y="299" type="curve" smooth="yes"/>
      <point x="463" y="398"/>
      <point x="411" y="463"/>
      <point x="311" y="463" type="curve" smooth="yes"/>
      <point x="199" y="463"/>
      <point x="124" y="360"/>
      <point x="124" y="224" type="curve" smooth="yes"/>
      <point x="124" y="125"/>
      <point x="173" y="60"/>
    </contour>
    <contour>
      <point x="228" y="613" type="line"/>
      <point x="281" y="760" type="line"/>
      <point x="377" y="760" type="line"/>
      <point x="289" y="613" type="line"/>
    </contour>
    <contour>
      <point x="382" y="613" type="line"/>
      <point x="435" y="760" type="line"/>
      <point x="531" y="760" type="line"/>
      <point x="443" y="613" type="line"/>
    </contour>
  </outline>
</glyph>
